font.ufo
<glyph name="quotedbl" format="1">
  <advance width="441"/>
  <unicode hex="0022"/>
  <outline>
    <contour>
      <point x="124" y="646" type="line"/>
      <point x="127" y="834" type="line"/>
      <point x="97" y="834" type="line"/>
      <point x="100" y="646" type="line"/>
    </contour>
    <contour>
      <point x="343" y="646" type="line"/>
      <point x="346" y="834" type="line"/>
      <point x="316" y="834" type="line"/>
      <point x="319" y="646" type="line"/>
    </contour>
  </outline>
</glyph>
<glyph name="numbersign" format="1">
  <advance width="826"/>
  <unicode hex="0023"/>
  <outline>
    <contour>
      <point x="50" y="247" type="line"/>
      <point x="674" y="247" type="line"/>
      <point x="680" y="269" type="line"/>
      <point x="58" y="269" type="line"/>
    </contour>
    <contour>
      <point x="143" y="492" type="line"/>
      <point x="768" y="492" type="line"/>
      <point x="775" y="513" type="line"/>
      <point x="151" y="513" type="line"/>
    </contour>
    <contour>
      <point x="481" y="39" type="line"/>
      <point x="759" y="722" type="line"/>
      <point x="735" y="722" type="line"/>
      <point x="456" y="39" type="line"/>
    </contour>
    <contour>
      <point x="123" y="46" type="line"/>
      <point x="396" y="722" type="line"/>
      <point x="372" y="722" type="line"/>
      <point x="100" y="46" type="line"/>
    </contour>
  </outline>
</glyph>
<glyph name="percent" format="1">
  <advance width="1334"/>
  <unicode hex="0025"/>
  <outline>
    <contour>
      <point x="434" y="-93" type="line"/>
      <point x="982" y="757" type="line"/>
      <point x="955" y="757" type="line"/>
      <point x="407" y="-93" type="line"/>
    </contour>
    <contour>
      <point x="66" y="553" type="curve"/>
      <point x="66" y="668"/>
      <point x="137" y="739"/>
      <point x="253" y="739" type="curve"/>
      <point x="369" y="740"/>
      <point x="440" y="669"/>
      <point x="440" y="554" type="curve"/>
      <point x="440" y="438"/>
      <point x="371" y="366"/>
      <point x="255" y="366" type="curve"/>
      <point x="138" y="366"/>
      <point x="66" y="436"/>
      <point x="66" y="553" type="curve"/>
      <point x="57" y="553"/>
      <point x="52" y="553"/>
      <point x="43" y="553" type="curve"/>
      <point x="43" y="423"/>
      <point x="124" y="345"/>
      <point x="254" y="345" type="curve"/>
      <point x="384" y="345"/>
      <point x="464" y="424"/>
      <point x="464" y="555" type="curve"/>
      <point x="464" y="683"/>
      <point x="384" y="761"/>
      <point x="254" y="761" type="curve"/>
      <point x="124" y="761"/>
      <point x="43" y="682"/>
      <point x="43" y="553" type="curve"/>
      <point x="52" y="553"/>
      <point x="57" y="553"/>
    </contour>
    <contour>
      <point x="893" y="108" type="curve"/>
      <point x="893" y="224"/>
      <point x="965" y="294"/>
      <point x="1081" y="294" type="curve"/>
      <point x="1197" y="295"/>
      <point x="1267" y="225"/>
      <point x="1267" y="109" type="curve"/>
      <point x="1267" y="-6"/>
      <point x="1199" y="-79"/>
      <point x="1083" y="-79" type="curve"/>
      <point x="965" y="-79"/>
      <point x="893" y="-8"/>
      <point x="893" y="108" type="curve"/>
      <point x="884" y="108"/>
      <point x="879" y="108"/>
      <point x="870" y="108" type="curve"/>
      <point x="870" y="-21"/>
      <point x="951" y="-100"/>
      <point x="1082" y="-100" type="curve"/>
      <point x="1212" y="-100"/>
      <point x="1291" y="-20"/>
      <point x="1291" y="110" type="curve"/>
      <point x="1291" y="238"/>
      <point x="1211" y="316"/>
      <point x="1082" y="316" type="curve"/>
      <point x="951" y="316"/>
      <point x="870" y="237"/>
      <point x="870" y="108" type="curve"/>
      <point x="879" y="108"/>
      <point x="884" y="108"/>
    </contour>
  </outline>
</glyph>
<glyph name="asterisk" format="1">
  <advance width="759"/>
  <unicode hex="002A"/>
  <outline>
    <contour>
      <point x="386" y="640" type="line"/>
      <point x="389" y="828" type="line"/>
      <point x="359" y="828" type="line"/>
      <point x="362" y="640" type="line"/>
    </contour>
    <contour>
      <point x="490" y="558" type="line"/>
      <point x="670" y="614" type="line"/>
      <point x="660" y="642" type="line"/>
      <point x="483" y="581" type="line"/>
    </contour>
    <contour>
      <point x="445" y="436" type="line"/>
      <point x="554" y="282" type="line"/>
      <point x="578" y="300" type="line"/>
      <point x="465" y="450" type="line"/>
    </contour>
    <contour>
      <point x="313" y="440" type="line"/>
      <point x="200" y="290" type="line"/>
      <point x="224" y="272" type="line"/>
      <point x="332" y="426" type="line"/>
    </contour>
    <contour>
      <point x="277" y="566" type="line"/>
      <point x="100" y="627" type="line"/>
      <point x="90" y="599" type="line"/>
      <point x="270" y="543" type="line"/>
    </contour>
  </outline>
</glyph>
<glyph name="plus" format="1">
  <advance width="728"/>
  <unicode hex="002B"/>
  <outline>
    <contour>
      <point x="59" y="297" type="curve"/>
      <point x="669" y="297" type="line"/>
      <point x="669" y="321"/>
      <point x="669" y="297"/>
      <point x="669" y="321" type="curve"/>
      <point x="59" y="321" type="line"/>
      <point x="59" y="297"/>
      <point x="59" y="321"/>
    </contour>
    <contour>
      <point x="371" y="18" type="curve"/>
      <point x="371" y="588" type="line"/>
      <point x="347" y="588"/>
      <point x="371" y="588"/>
      <point x="347" y="588" type="curve"/>
      <point x="347" y="18" type="line"/>
      <point x="371" y="18"/>
      <point x="347" y="18"/>
    </contour>
  </outline>
</glyph>
<glyph name="one" format="1">
  <advance width="512"/>
  <unicode hex="0031"/>
  <outline>
    <contour>
      <point x="321" y="0" type="curve"/>
      <point x="375" y="0"/>
      <point x="429" y="0"/>
      <point x="484" y="0" type="curve"/>
      <point x="484" y="22"/>
      <point x="484" y="0"/>
      <point x="484" y="22" type="curve"/>
      <point x="321" y="22"/>
      <point x="484" y="22"/>
      <point x="321" y="22" type="curve"/>
      <point x="321" y="0"/>
      <point x="321" y="22"/>
    </contour>
    <contour>
      <point x="321" y="22" type="curve"/>
      <point x="156" y="22"/>
      <point x="321" y="22"/>
      <point x="156" y="22" type="curve"/>
      <point x="156" y="0"/>
      <point x="156" y="22"/>
      <point x="156" y="0" type="curve"/>
      <point x="211" y="0"/>
      <point x="265" y="0"/>
      <point x="321" y="0" type="curve"/>
      <point x="321" y="22"/>
      <point x="321" y="0"/>
    </contour>
    <contour>
      <point x="62" y="532" type="curve"/>
      <point x="326" y="706"/>
      <point x="62" y="532"/>
      <point x="326" y="706" type="curve"/>
      <point x="306" y="722"/>
      <point x="326" y="706"/>
      <point x="306" y="722" type="curve"/>
      <point x="48" y="551"/>
      <point x="306" y="722"/>
      <point x="48" y="551" type="curve"/>
      <point x="62" y="532"/>
      <point x="48" y="551"/>
    </contour>
    <contour>
      <point x="330" y="0" type="curve"/>
      <point x="330" y="241"/>
      <point x="330" y="481"/>
      <point x="330" y="722" type="curve"/>
      <point x="306" y="722"/>
      <point x="330" y="722"/>
      <point x="306" y="722" type="curve"/>
      <point x="306" y="481"/>
      <point x="306" y="241"/>
      <point x="306" y="0" type="curve"/>
      <point x="330" y="0"/>
      <point x="306" y="0"/>
    </contour>
  </outline>
</glyph>
<glyph name="six" format="1">
  <advance width="692"/>
  <unicode hex="0036"/>
  <outline>
    <contour>
      <point x="85" y="230" type="curve"/>
      <point x="143" y="339"/>
      <point x="237" y="385"/>
      <point x="354" y="385" type="curve"/>
      <point x="492" y="385"/>
      <point x="589" y="330"/>
      <point x="589" y="202" type="curve"/>
      <point x="589" y="80"/>
      <point x="493" y="21"/>
      <point x="360" y="21" type="curve"/>
      <point x="200" y="21"/>
      <point x="89" y="94"/>
      <point x="89" y="242" type="curve"/>
      <point x="89" y="535"/>
      <point x="330" y="644"/>
      <point x="629" y="717" type="curve"/>
      <point x="624" y="737"/>
      <point x="629" y="717"/>
      <point x="624" y="737" type="curve"/>
      <point x="308" y="664"/>
      <point x="64" y="547"/>
      <point x="64" y="241" type="curve"/>
      <point x="64" y="78"/>
      <point x="186" y="-5"/>
      <point x="359" y="-5" type="curve"/>
      <point x="509" y="-5"/>
      <point x="615" y="64"/>
      <point x="615" y="203" type="curve"/>
      <point x="615" y="344"/>
      <point x="507" y="409"/>
      <point x="356" y="409" type="curve"/>
      <point x="221" y="409"/>
      <point x="122" y="354"/>
      <point x="68" y="241" type="curve"/>
      <point x="85" y="230"/>
      <point x="68" y="241"/>
    </contour>
  </outline>
</glyph>
<glyph name="seven" format="1">
  <advance width="682"/>
  <unicode hex="0037"/>
  <outline>
    <contour>
      <point x="76" y="582" type="line"/>
      <point x="76" y="702" type="line"/>
      <point x="54" y="702" type="line"/>
      <point x="54" y="582" type="line"/>
    </contour>
    <contour>
      <point x="54" y="700" type="line"/>
      <point x="662" y="700" type="line"/>
      <point x="662" y="722" type="line"/>
      <point x="54" y="722" type="line"/>
    </contour>
    <contour>
      <point x="648" y="722" type="line"/>
      <point x="106" y="0" type="line"/>
      <point x="136" y="0" type="line"/>
      <point x="662" y="700" type="line"/>
    </contour>
  </outline>
</glyph>
<glyph name="colon" format="1">
  <advance width="220"/>
  <unicode hex="003A"/>
  <outline>
    <contour>
      <point x="128" y="427" type="curve"/>
      <point x="128" y="438"/>
      <point x="120" y="445"/>
      <point x="109" y="445" type="curve"/>
      <point x="98" y="445"/>
      <point x="91" y="438"/>
      <point x="91" y="427" type="curve"/>
      <point x="107" y="427"/>
      <point x="112" y="427"/>
      <point x="128" y="427" type="curve"/>
      <point x="128" y="416"/>
      <point x="120" y="409"/>
      <point x="109" y="409" type="curve"/>
      <point x="98" y="409"/>
      <point x="91" y="416"/>
      <point x="91" y="427" type="curve"/>
      <point x="107" y="427"/>
      <point x="112" y="427"/>
    </contour>
    <contour>
      <point x="128" y="12" type="curve"/>
      <point x="128" y="23"/>
      <point x="120" y="30"/>
      <point x="109" y="30" type="curve"/>
      <point x="98" y="30"/>
      <point x="91" y="23"/>
      <point x="91" y="12" type="curve"/>
      <point x="107" y="12"/>
      <point x="112" y="12"/>
      <point x="128" y="12" type="curve"/>
      <point x="128" y="1"/>
      <point x="120" y="-6"/>
      <point x="109" y="-6" type="curve"/>
      <point x="98" y="-6"/>
      <point x="91" y="1"/>
      <point x="91" y="12" type="curve"/>
      <point x="107" y="12"/>
      <point x="112" y="12"/>
    </contour>
  </outline>
</glyph>
<glyph name="semicolon" format="1">
  <advance width="267"/>
  <unicode hex="003B"/>
  <outline>
    <contour>
      <point x="97" y="-74" type="line"/>
      <point x="128" y="-48"/>
      <point x="156" y="-14"/>
      <point x="156" y="40" type="curve"/>
      <point x="156" y="61"/>
      <point x="152" y="79"/>
      <point x="133" y="79" type="curve"/>
      <point x="120" y="79"/>
      <point x="113" y="73"/>
      <point x="113" y="61" type="curve"/>
      <point x="113" y="51"/>
      <point x="117" y="45"/>
      <point x="128" y="40" type="curve"/>
      <point x="128" y="14"/>
      <point x="115" y="-28"/>
      <point x="82" y="-55" type="curve"/>
    </contour>
    <contour>
      <point x="150" y="428" type="curve"/>
      <point x="150" y="439"/>
      <point x="142" y="446"/>
      <point x="130" y="446" type="curve"/>
      <point x="119" y="446"/>
      <point x="112" y="439"/>
      <point x="112" y="428" type="curve"/>
      <point x="128" y="428"/>
      <point x="134" y="428"/>
      <point x="150" y="428" type="curve"/>
      <point x="150" y="417"/>
      <point x="142" y="410"/>
      <point x="130" y="410" type="curve"/>
      <point x="119" y="410"/>
      <point x="112" y="417"/>
      <point x="112" y="428" type="curve"/>
      <point x="128" y="428"/>
      <point x="134" y="428"/>
    </contour>
  </outline>
</glyph>
<glyph name="less" format="1">
  <advance width="899"/>
  <unicode hex="003C"/>
  <outline>
    <contour>
      <point x="825" y="582" type="curve"/>
      <point x="564" y="492"/>
      <point x="304" y="402"/>
      <point x="43" y="312" type="curve"/>
      <point x="43" y="288"/>
      <point x="43" y="312"/>
      <point x="43" y="288" type="curve"/>
      <point x="304" y="378"/>
      <point x="564" y="468"/>
      <point x="825" y="558" type="curve"/>
      <point x="825" y="582"/>
      <point x="825" y="558"/>
    </contour>
    <contour>
      <point x="839" y="48" type="curve"/>
      <point x="573" y="136"/>
      <point x="308" y="224"/>
      <point x="43" y="312" type="curve"/>
      <point x="43" y="288"/>
      <point x="43" y="312"/>
      <point x="43" y="288" type="curve"/>
      <point x="308" y="200"/>
      <point x="573" y="112"/>
      <point x="839" y="24" type="curve"/>
      <point x="839" y="48"/>
      <point x="839" y="24"/>
    </contour>
  </outline>
</glyph>
<glyph name="greater" format="1">
  <advance width="898"/>
  <unicode hex="003E"/>
  <outline>
    <contour>
      <point x="72" y="24" type="curve"/>
      <point x="333" y="114"/>
      <point x="595" y="204"/>
      <point x="855" y="294" type="curve"/>
      <point x="855" y="318"/>
      <point x="855" y="294"/>
      <point x="855" y="318" type="curve"/>
      <point x="595" y="228"/>
      <point x="333" y="138"/>
      <point x="72" y="48" type="curve"/>
      <point x="72" y="24"/>
      <point x="72" y="48"/>
    </contour>
    <contour>
      <point x="60" y="558" type="curve"/>
      <point x="324" y="470"/>
      <point x="590" y="382"/>
      <point x="855" y="294" type="curve"/>
      <point x="855" y="318"/>
      <point x="855" y="294"/>
      <point x="855" y="318" type="curve"/>
      <point x="590" y="406"/>
      <point x="324" y="494"/>
      <point x="60" y="582" type="curve"/>
      <point x="60" y="558"/>
      <point x="60" y="582"/>
    </contour>
  </outline>
</glyph>
<glyph name="at" format="1">
  <advance width="990"/>
  <unicode hex="0040"/>
  <outline>
    <contour>
      <point x="717" y="-77" type="curve"/>
      <point x="643" y="-110"/>
      <point x="591" y="-114"/>
      <point x="511" y="-114" type="curve"/>
      <point x="260" y="-114"/>
      <point x="86" y="-14"/>
      <point x="86" y="216" type="curve"/>
      <point x="86" y="443"/>
      <point x="262" y="542"/>
      <point x="509" y="542" type="curve"/>
      <point x="741" y="542"/>
      <point x="902" y="438"/>
      <point x="902" y="222" type="curve"/>
      <point x="902" y="135"/>
      <point x="870" y="70"/>
      <point x="792" y="70" type="curve"/>
      <point x="712" y="70"/>
      <point x="677" y="134"/>
      <point x="677" y="221" type="curve"/>
      <point x="677" y="332"/>
      <point x="604" y="394"/>
      <point x="490" y="394" type="curve"/>
      <point x="369" y="394"/>
      <point x="290" y="336"/>
      <point x="290" y="222" type="curve"/>
      <point x="290" y="104"/>
      <point x="366" y="38"/>
      <point x="486" y="38" type="curve"/>
      <point x="593" y="38"/>
      <point x="652" y="104"/>
      <point x="672" y="211" type="curve"/>
      <point x="657" y="216"/>
      <point x="672" y="211"/>
      <point x="657" y="216" type="curve"/>
      <point x="630" y="121"/>
      <point x="584" y="60"/>
      <point x="490" y="60" type="curve"/>
      <point x="380" y="60"/>
      <point x="313" y="118"/>
      <point x="313" y="223" type="curve"/>
      <point x="313" y="323"/>
      <point x="384" y="372"/>
      <point x="488" y="372" type="curve"/>
      <point x="590" y="372"/>
      <point x="655" y="319"/>
      <point x="655" y="220" type="curve"/>
      <point x="655" y="121"/>
      <point x="697" y="50"/>
      <point x="790" y="50" type="curve"/>
      <point x="885" y="50"/>
      <point x="925" y="122"/>
      <point x="925" y="223" type="curve"/>
      <point x="925" y="455"/>
      <point x="757" y="565"/>
      <point x="511" y="565" type="curve"/>
      <point x="247" y="565"/>
      <point x="63" y="459"/>
      <point x="63" y="215" type="curve"/>
      <point x="63" y="-28"/>
      <point x="246" y="-136"/>
      <point x="509" y="-136" type="curve"/>
      <point x="594" y="-136"/>
      <point x="650" y="-129"/>
      <point x="728" y="-97" type="curve"/>
      <point x="717" y="-77"/>
      <point x="728" y="-97"/>
    </contour>
  </outline>
</glyph>
<glyph name="A" format="1">
  <advance width="1002"/>
  <unicode hex="0041"/>
  <outline>
    <contour>
      <point x="501" y="825" type="move" name="top"/>
    </contour>
    <contour>
      <point x="861" y="0" type="move" name="bottom"/>
    </contour>
    <contour>
      <point x="130" y="22" type="curve"/>
      <point x="-26" y="22"/>
      <point x="132" y="22"/>
      <point x="-24" y="22" type="curve"/>
      <point x="-24" y="0"/>
      <point x="-24" y="22"/>
      <point x="-24" y="0" type="curve"/>
      <point x="28" y="0"/>
      <point x="78" y="0"/>
      <point x="130" y="0" type="curve"/>
      <point x="130" y="22"/>
      <point x="130" y="0"/>
    </contour>
    <contour>
      <point x="130" y="0" type="curve"/>
      <point x="185" y="0"/>
      <point x="128" y="0"/>
      <point x="290" y="0" type="curve"/>
      <point x="290" y="22"/>
      <point x="290" y="0"/>
      <point x="290" y="22" type="curve"/>
      <point x="128" y="22"/>
      <point x="292" y="22"/>
      <point x="130" y="22" type="curve"/>
      <point x="130" y="0"/>
      <point x="130" y="22"/>
    </contour>
    <contour>
      <point x="833" y="0" type="curve"/>
      <point x="885" y="0"/>
      <point x="935" y="0"/>
      <point x="987" y="0" type="curve"/>
      <point x="987" y="22"/>
      <point x="987" y="0"/>
      <point x="987" y="22" type="curve"/>
      <point x="831" y="22"/>
      <point x="989" y="22"/>
      <point x="833" y="22" type="curve"/>
      <point x="833" y="0"/>
      <point x="833" y="22"/>
    </contour>
    <contour>
      <point x="833" y="22" type="curve"/>
      <point x="672" y="22"/>
      <point x="835" y="22"/>
      <point x="674" y="22" type="curve"/>
      <point x="674" y="0"/>
      <point x="674" y="22"/>
      <point x="674" y="0" type="curve"/>
      <point x="728" y="0"/>
      <point x="779" y="0"/>
      <point x="833" y="0" type="curve"/>
      <point x="833" y="22"/>
      <point x="833" y="0"/>
    </contour>
    <contour>
      <point x="718" y="277" type="curve"/>
      <point x="567" y="277"/>
      <point x="416" y="277"/>
      <point x="266" y="277" type="curve"/>
      <point x="256" y="254"/>
      <point x="266" y="277"/>
      <point x="256" y="254" type="curve"/>
      <point x="412" y="254"/>
      <point x="569" y="254"/>
      <point x="726" y="254" type="curve"/>
      <point x="718" y="277"/>
      <point x="726" y="254"/>
    </contour>
    <contour>
      <point x="861" y="0" type="curve"/>
      <point x="745" y="241"/>
      <point x="630" y="481"/>
      <point x="514" y="722" type="curve"/>
      <point x="492" y="722"/>
      <point x="514" y="722"/>
      <point x="492" y="722" type="curve"/>
      <point x="607" y="481"/>
      <point x="721" y="241"/>
      <point x="835" y="0" type="curve"/>
      <point x="861" y="0"/>
      <point x="835" y="0"/>
    </contour>
    <contour>
      <point x="128" y="0" type="curve"/>
      <point x="256" y="241"/>
      <point x="383" y="481"/>
      <point x="512" y="722" type="curve"/>
      <point x="490" y="722"/>
      <point x="512" y="722"/>
      <point x="490" y="722" type="curve"/>
      <point x="360" y="481"/>
      <point x="231" y="241"/>
      <point x="102" y="0" type="curve"/>
      <point x="128" y="0"/>
      <point x="102" y="0"/>
    </contour>
  </outline>
</glyph>
<glyph name="B" format="1">
  <advance width="795"/>
  <unicode hex="0042"/>
  <outline>
    <contour>
      <point x="206" y="722" type="curve"/>
      <point x="150" y="722"/>
      <point x="98" y="722"/>
      <point x="42" y="722" type="curve"/>
      <point x="42" y="700"/>
      <point x="42" y="722"/>
      <point x="42" y="700" type="curve"/>
      <point x="208" y="700"/>
      <point x="40" y="700"/>
      <point x="206" y="700" type="curve"/>
      <point x="206" y="722"/>
      <point x="206" y="700"/>
    </contour>
    <contour>
      <point x="204" y="22" type="curve"/>
      <point x="39" y="22"/>
      <point x="206" y="22"/>
      <point x="41" y="22" type="curve"/>
      <point x="41" y="0"/>
      <point x="41" y="22"/>
      <point x="41" y="0" type="curve"/>
      <point x="96" y="0"/>
      <point x="149" y="0"/>
      <point x="204" y="0" type="curve"/>
      <point x="204" y="22"/>
      <point x="204" y="0"/>
    </contour>
    <contour>
      <point x="192" y="700" type="curve"/>
      <point x="283" y="700"/>
      <point x="374" y="700"/>
      <point x="465" y="700" type="curve"/>
      <point x="568" y="700"/>
      <point x="646" y="655"/>
      <point x="646" y="555" type="curve"/>
      <point x="646" y="450"/>
      <point x="530" y="421"/>
      <point x="414" y="421" type="curve"/>
      <point x="339" y="421"/>
      <point x="266" y="421"/>
      <point x="192" y="421" type="curve"/>
      <point x="192" y="400"/>
      <point x="192" y="420"/>
      <point x="192" y="399" type="curve"/>
      <point x="262" y="399"/>
      <point x="331" y="399"/>
      <point x="402" y="399" type="curve"/>
      <point x="539" y="399"/>
      <point x="670" y="433"/>
      <point x="670" y="555" type="curve"/>
      <point x="670" y="668"/>
      <point x="586" y="722"/>
      <point x="465" y="722" type="curve"/>
      <point x="374" y="722"/>
      <point x="283" y="722"/>
      <point x="192" y="722" type="curve"/>
      <point x="192" y="701"/>
      <point x="192" y="721"/>
    </contour>
    <contour>
      <point x="214" y="0" type="curve"/>
      <point x="214" y="241"/>
      <point x="214" y="481"/>
      <point x="214" y="722" type="curve"/>
      <point x="189" y="722"/>
      <point x="214" y="722"/>
      <point x="189" y="722" type="curve"/>
      <point x="189" y="481"/>
      <point x="189" y="241"/>
      <point x="189" y="0" type="curve"/>
      <point x="214" y="0"/>
      <point x="189" y="0"/>
    </contour>
    <contour>
      <point x="192" y="399" type="curve"/>
      <point x="266" y="399"/>
      <point x="339" y="399"/>
      <point x="414" y="399" type="curve"/>
      <point x="573" y="399"/>
      <point x="706" y="351"/>
      <point x="706" y="204" type="curve"/>
      <point x="706" y="75"/>
      <point x="605" y="22"/>
      <point x="464" y="22" type="curve"/>
      <point x="372" y="22"/>
      <point x="283" y="22"/>
      <point x="192" y="22" type="curve"/>
      <point x="192" y="1"/>
      <point x="192" y="21"/>
      <point x="192" y="0" type="curve"/>
      <point x="283" y="0"/>
      <point x="372" y="0"/>
      <point x="464" y="0" type="curve"/>
      <point x="620" y="0"/>
      <point x="730" y="61"/>
      <point x="730" y="204" type="curve"/>
      <point x="730" y="368"/>
      <point x="581" y="421"/>
      <point x="402" y="421" type="curve"/>
      <point x="331" y="421"/>
      <point x="262" y="421"/>
      <point x="192" y="421" type="curve"/>
      <point x="192" y="400"/>
      <point x="192" y="420"/>
    </contour>
  </outline>
</glyph>
<glyph name="C" format="1">
  <advance width="840"/>
  <unicode hex="0043"/>
  <outline>
    <contour>
      <point x="475" y="825" type="move" name="top"/>
    </contour>
    <contour>
      <point x="448" y="9" type="move" name="bottom"/>
    </contour>
    <contour>
      <point x="746" y="655" type="curve"/>
      <point x="746" y="535"/>
      <point x="746" y="655"/>
      <point x="746" y="535" type="curve"/>
      <point x="768" y="535"/>
      <point x="746" y="535"/>
      <point x="768" y="535" type="curve"/>
      <point x="768" y="655"/>
      <point x="768" y="535"/>
      <point x="768" y="655" type="curve"/>
      <point x="746" y="655"/>
      <point x="768" y="655"/>
    </contour>
    <contour>
      <point x="768" y="655" type="curve"/>
      <point x="680" y="697"/>
      <point x="586" y="727"/>
      <point x="481" y="727" type="curve"/>
      <point x="230" y="727"/>
      <point x="70" y="590"/>
      <point x="70" y="344" type="curve"/>
      <point x="70" y="117"/>
      <point x="220" y="-5"/>
      <point x="454" y="-5" type="curve"/>
      <point x="590" y="-5"/>
      <point x="680" y="26"/>
      <point x="792" y="96" type="curve"/>
      <point x="777" y="113"/>
      <point x="792" y="96"/>
      <point x="777" y="113" type="curve"/>
      <point x="672" y="44"/>
      <point x="583" y="19"/>
      <point x="455" y="19" type="curve"/>
      <point x="236" y="19"/>
      <point x="94" y="134"/>
      <point x="94" y="345" type="curve"/>
      <point x="94" y="574"/>
      <point x="245" y="704"/>
      <point x="480" y="704" type="curve"/>
      <point x="580" y="704"/>
      <point x="672" y="679"/>
      <point x="755" y="638" type="curve"/>
      <point x="768" y="655"/>
      <point x="755" y="638"/>
    </contour>
  </outline>
</glyph>
<glyph name="G" format="1">
  <advance width="936"/>
  <unicode hex="0047"/>
  <outline>
    <contour>
      <point x="489" y="825" type="move" name="top"/>
    </contour>
    <contour>
      <point x="511" y="-4" type="move" name="bottom"/>
    </contour>
    <contour>
      <point x="819" y="642" type="curve"/>
      <point x="819" y="522"/>
      <point x="819" y="643"/>
      <point x="819" y="523" type="curve"/>
      <point x="841" y="523"/>
      <point x="819" y="523"/>
      <point x="841" y="523" type="curve"/>
      <point x="841" y="643"/>
      <point x="841" y="522"/>
      <point x="841" y="642" type="curve"/>
      <point x="819" y="642"/>
      <point x="841" y="642"/>
    </contour>
    <contour>
      <point x="854" y="319" type="curve"/>
      <point x="759" y="319"/>
      <point x="665" y="319"/>
      <point x="571" y="319" type="curve"/>
      <point x="571" y="297"/>
      <point x="571" y="319"/>
      <point x="571" y="297" type="curve"/>
      <point x="665" y="297"/>
      <point x="759" y="297"/>
      <point x="854" y="297" type="curve"/>
      <point x="854" y="319"/>
      <point x="854" y="297"/>
    </contour>
    <contour>
      <point x="862" y="77" type="curve"/>
      <point x="862" y="158"/>
      <point x="862" y="238"/>
      <point x="862" y="319" type="curve"/>
      <point x="840" y="319"/>
      <point x="862" y="319"/>
      <point x="840" y="319" type="curve"/>
      <point x="840" y="238"/>
      <point x="840" y="158"/>
      <point x="840" y="77" type="curve"/>
      <point x="862" y="77"/>
      <point x="840" y="77"/>
    </contour>
    <contour>
      <point x="841" y="642" type="curve"/>
      <point x="723" y="702"/>
      <point x="619" y="727"/>
      <point x="487" y="727" type="curve"/>
      <point x="235" y="727"/>
      <point x="68" y="607"/>
      <point x="68" y="365" type="curve"/>
      <point x="68" y="116"/>
      <point x="242" y="-5"/>
      <point x="501" y="-5" type="curve"/>
      <point x="643" y="-5"/>
      <point x="734" y="20"/>
      <point x="862" y="77" type="curve"/>
      <point x="850" y="93"/>
      <point x="862" y="77"/>
      <point x="850" y="93" type="curve"/>
      <point x="730" y="40"/>
      <point x="636" y="20"/>
      <point x="502" y="20" type="curve"/>
      <point x="257" y="20"/>
      <point x="92" y="133"/>
      <point x="92" y="367" type="curve"/>
      <point x="92" y="591"/>
      <point x="252" y="704"/>
      <point x="488" y="704" type="curve"/>
      <point x="615" y="704"/>
      <point x="715" y="680"/>
      <point x="829" y="624" type="curve"/>
      <point x="841" y="642"/>
      <point x="829" y="624"/>
    </contour>
  </outline>
</glyph>
<glyph name="K" format="1">
  <advance width="882"/>
  <unicode hex="004B"/>
  <outline>
    <contour>
      <point x="500" y="-6" type="move" name="bottom"/>
    </contour>
    <contour>
      <point x="683" y="722" type="curve"/>
      <point x="628" y="722"/>
      <point x="577" y="722"/>
      <point x="522" y="722" type="curve"/>
      <point x="522" y="700"/>
      <point x="522" y="722"/>
      <point x="522" y="700" type="curve"/>
      <point x="687" y="700"/>
      <point x="518" y="700"/>
      <point x="683" y="700" type="curve"/>
      <point x="683" y="722"/>
      <point x="683" y="700"/>
    </contour>
    <contour>
      <point x="717" y="0" type="curve"/>
      <point x="770" y="0"/>
      <point x="818" y="0"/>
      <point x="871" y="0" type="curve"/>
      <point x="871" y="22"/>
      <point x="871" y="0"/>
      <point x="871" y="22" type="curve"/>
      <point x="714" y="22"/>
      <point x="874" y="22"/>
      <point x="717" y="22" type="curve"/>
      <point x="717" y="0"/>
      <point x="717" y="22"/>
    </contour>
    <contour>
      <point x="683" y="700" type="curve"/>
      <point x="840" y="700"/>
      <point x="680" y="700"/>
      <point x="837" y="700" type="curve"/>
      <point x="837" y="722"/>
      <point x="837" y="700"/>
      <point x="837" y="722" type="curve"/>
      <point x="784" y="722"/>
      <point x="736" y="722"/>
      <point x="683" y="722" type="curve"/>
      <point x="683" y="700"/>
      <point x="683" y="722"/>
    </contour>
    <contour>
      <point x="205" y="722" type="curve"/>
      <point x="150" y="722"/>
      <point x="98" y="722"/>
      <point x="42" y="722" type="curve"/>
      <point x="42" y="700"/>
      <point x="42" y="722"/>
      <point x="42" y="700" type="curve"/>
      <point x="207" y="700"/>
      <point x="40" y="700"/>
      <point x="205" y="700" type="curve"/>
      <point x="205" y="722"/>
      <point x="205" y="700"/>
    </contour>
    <contour>
      <point x="205" y="700" type="curve"/>
      <point x="371" y="700"/>
      <point x="202" y="700"/>
      <point x="368" y="700" type="curve"/>
      <point x="368" y="722"/>
      <point x="368" y="700"/>
      <point x="368" y="722" type="curve"/>
      <point x="313" y="722"/>
      <point x="261" y="722"/>
      <point x="205" y="722" type="curve"/>
      <point x="205" y="700"/>
      <point x="205" y="722"/>
    </contour>
    <contour>
      <point x="205" y="0" type="curve"/>
      <point x="261" y="0"/>
      <point x="202" y="0"/>
      <point x="368" y="0" type="curve"/>
      <point x="368" y="22"/>
      <point x="368" y="0"/>
      <point x="368" y="22" type="curve"/>
      <point x="202" y="22"/>
      <point x="371" y="22"/>
      <point x="205" y="22" type="curve"/>
      <point x="205" y="0"/>
      <point x="205" y="22"/>
    </contour>
    <contour>
      <point x="205" y="22" type="curve"/>
      <point x="40" y="22"/>
      <point x="207" y="22"/>
      <point x="42" y="22" type="curve"/>
      <point x="42" y="0"/>
      <point x="42" y="22"/>
      <point x="42" y="0" type="curve"/>
      <point x="98" y="0"/>
      <point x="150" y="0"/>
      <point x="205" y="0" type="curve"/>
      <point x="205" y="22"/>
      <point x="205" y="0"/>
    </contour>
    <contour>
      <point x="686" y="722" type="curve"/>
      <point x="205" y="380" type="line"/>
      <point x="242" y="380"/>
      <point x="208" y="380"/>
      <point x="246" y="380" type="curve"/>
      <point x="727" y="722" type="line"/>
      <point x="689" y="722"/>
      <point x="724" y="722"/>
    </contour>
    <contour>
      <point x="218" y="0" type="curve"/>
      <point x="218" y="722" type="line"/>
      <point x="193" y="722"/>
      <point x="218" y="722"/>
      <point x="193" y="722" type="curve"/>
      <point x="193" y="481"/>
      <point x="193" y="241"/>
      <point x="193" y="0" type="curve"/>
      <point x="218" y="0"/>
      <point x="193" y="0"/>
    </contour>
    <contour>
      <point x="760" y="0" type="curve"/>
      <point x="246" y="380" type="line"/>
      <point x="208" y="380"/>
      <point x="242" y="380"/>
      <point x="205" y="380" type="curve"/>
      <point x="716" y="0" type="line"/>
      <point x="757" y="0"/>
      <point x="719" y="0"/>
    </contour>
  </outline>
</glyph>
<glyph name="S" format="1">
  <advance width="687"/>
  <unicode hex="0053"/>
  <outline>
    <contour>
      <point x="345" y="825" type="move" name="top"/>
    </contour>
    <contour>
      <point x="353" y="-6" type="move" name="bottom"/>
    </contour>
    <contour>
      <point x="560" y="663" type="curve"/>
      <point x="560" y="543"/>
      <point x="560" y="664"/>
      <point x="560" y="544" type="curve"/>
      <point x="582" y="544"/>
      <point x="560" y="544"/>
      <point x="582" y="544" type="curve"/>
      <point x="582" y="664"/>
      <point x="582" y="543"/>
      <point x="582" y="663" type="curve"/>
      <point x="560" y="663"/>
      <point x="582" y="663"/>
    </contour>
    <contour>
      <point x="96" y="58" type="curve"/>
      <point x="96" y="178"/>
      <point x="96" y="57"/>
      <point x="96" y="177" type="curve"/>
      <point x="74" y="177"/>
      <point x="96" y="177"/>
      <point x="74" y="177" type="curve"/>
      <point x="74" y="57"/>
      <point x="74" y="178"/>
      <point x="74" y="58" type="curve"/>
      <point x="96" y="58"/>
      <point x="74" y="58"/>
    </contour>
    <contour>
      <point x="74" y="58" type="curve"/>
      <point x="158" y="17"/>
      <point x="246" y="-5"/>
      <point x="340" y="-5" type="curve"/>
      <point x="496" y="-5"/>
      <point x="611" y="33"/>
      <point x="611" y="169" type="curve"/>
      <point x="611" y="301"/>
      <point x="489" y="333"/>
      <point x="360" y="383" type="curve"/>
      <point x="246" y="425"/>
      <point x="131" y="450"/>
      <point x="131" y="563" type="curve"/>
      <point x="131" y="664"/>
      <point x="228" y="706"/>
      <point x="343" y="706" type="curve"/>
      <point x="429" y="706"/>
      <point x="493" y="682"/>
      <point x="571" y="646" type="curve"/>
      <point x="581" y="662"/>
      <point x="572" y="647"/>
      <point x="582" y="663" type="curve"/>
      <point x="500" y="702"/>
      <point x="434" y="727"/>
      <point x="344" y="727" type="curve"/>
      <point x="214" y="727"/>
      <point x="107" y="677"/>
      <point x="107" y="562" type="curve"/>
      <point x="107" y="438"/>
      <point x="224" y="409"/>
      <point x="346" y="363" type="curve"/>
      <point x="468" y="318"/>
      <point x="587" y="287"/>
      <point x="587" y="169" type="curve"/>
      <point x="587" y="50"/>
      <point x="481" y="19"/>
      <point x="341" y="19" type="curve"/>
      <point x="251" y="19"/>
      <point x="167" y="41"/>
      <point x="87" y="78" type="curve"/>
      <point x="74" y="59"/>
      <point x="86" y="77"/>
    </contour>
  </outline>
</glyph>
<glyph name="V" format="1">
  <advance width="1022"/>
  <unicode hex="0056"/>
  <outline>
    <contour>
      <point x="840" y="722" type="curve"/>
      <point x="784" y="722"/>
      <point x="728" y="722"/>
      <point x="672" y="722" type="curve"/>
      <point x="672" y="700"/>
      <point x="672" y="722"/>
      <point x="672" y="700" type="curve"/>
      <point x="841" y="700"/>
      <point x="671" y="700"/>
      <point x="840" y="700" type="curve"/>
      <point x="840" y="722"/>
      <point x="840" y="700"/>
    </contour>
    <contour>
      <point x="144" y="722" type="curve"/>
      <point x="89" y="722"/>
      <point x="35" y="722"/>
      <point x="-20" y="722" type="curve"/>
      <point x="-20" y="700"/>
      <point x="-20" y="722"/>
      <point x="-20" y="700" type="curve"/>
      <point x="145" y="700"/>
      <point x="-21" y="700"/>
      <point x="144" y="700" type="curve"/>
      <point x="144" y="722"/>
      <point x="144" y="700"/>
    </contour>
    <contour>
      <point x="840" y="700" type="curve"/>
      <point x="1004" y="700"/>
      <point x="839" y="700"/>
      <point x="1004" y="700" type="curve"/>
      <point x="1004" y="722"/>
      <point x="1004" y="700"/>
      <point x="1004" y="722" type="curve"/>
      <point x="949" y="722"/>
      <point x="895" y="722"/>
      <point x="840" y="722" type="curve"/>
      <point x="840" y="700"/>
      <point x="840" y="722"/>
    </contour>
    <contour>
      <point x="144" y="700" type="curve"/>
      <point x="314" y="700"/>
      <point x="143" y="700"/>
      <point x="313" y="700" type="curve"/>
      <point x="313" y="722"/>
      <point x="313" y="700"/>
      <point x="313" y="722" type="curve"/>
      <point x="256" y="722"/>
      <point x="201" y="722"/>
      <point x="144" y="722" type="curve"/>
      <point x="144" y="700"/>
      <point x="144" y="722"/>
    </contour>
    <contour>
      <point x="842" y="722" type="curve"/>
      <point x="723" y="481"/>
      <point x="604" y="241"/>
      <point x="485" y="0" type="curve"/>
      <point x="512" y="0"/>
      <point x="485" y="0"/>
      <point x="512" y="0" type="curve"/>
      <point x="631" y="241"/>
      <point x="750" y="481"/>
      <point x="869" y="722" type="curve"/>
      <point x="842" y="722"/>
      <point x="869" y="722"/>
    </contour>
    <contour>
      <point x="115" y="722" type="curve"/>
      <point x="236" y="481"/>
      <point x="357" y="241"/>
      <point x="478" y="0" type="curve"/>
      <point x="505" y="0"/>
      <point x="479" y="0"/>
      <point x="506" y="0" type="curve"/>
      <point x="385" y="241"/>
      <point x="264" y="481"/>
      <point x="144" y="722" type="curve"/>
      <point x="116" y="722"/>
      <point x="143" y="722"/>
    </contour>
  </outline>
</glyph>
<glyph name="bracketright" format="1">
  <advance width="325"/>
  <unicode hex="005D"/>
  <outline>
    <contour>
      <point x="41" y="747" type="curve"/>
      <point x="107" y="747"/>
      <point x="171" y="747"/>
      <point x="237" y="747" type="curve"/>
      <point x="234" y="750"/>
      <point x="230" y="753"/>
      <point x="227" y="756" type="curve"/>
      <point x="223" y="759"/>
      <point x="219" y="762"/>
      <point x="216" y="765" type="curve"/>
      <point x="216" y="470"/>
      <point x="216" y="175"/>
      <point x="216" y="-120" type="curve"/>
      <point x="220" y="-117"/>
      <point x="224" y="-113"/>
      <point x="228" y="-109" type="curve"/>
      <point x="232" y="-107"/>
      <point x="235" y="-103"/>
      <point x="239" y="-100" type="curve"/>
      <point x="172" y="-100"/>
      <point x="107" y="-100"/>
      <point x="41" y="-100" type="curve"/>
      <point x="41" y="-124"/>
      <point x="41" y="-100"/>
      <point x="41" y="-124" type="curve"/>
      <point x="107" y="-124"/>
      <point x="172" y="-124"/>
      <point x="239" y="-124" type="curve"/>
      <point x="240" y="-124"/>
      <point x="239" y="-124"/>
      <point x="240" y="-124" type="curve"/>
      <point x="240" y="-120"/>
      <point x="240" y="-124"/>
      <point x="240" y="-120" type="curve"/>
      <point x="240" y="175"/>
      <point x="240" y="470"/>
      <point x="240" y="765" type="curve"/>
      <point x="240" y="771"/>
      <point x="240" y="765"/>
      <point x="240" y="771" type="curve"/>
      <point x="237" y="771"/>
      <point x="240" y="771"/>
      <point x="237" y="771" type="curve"/>
      <point x="171" y="771"/>
      <point x="107" y="771"/>
      <point x="41" y="771" type="curve"/>
      <point x="41" y="747"/>
      <point x="41" y="771"/>
    </contour>
  </outline>
</glyph>
<glyph name="asciicircum" format="1">
  <advance width="629"/>
  <unicode hex="005E"/>
  <outline>
    <contour>
      <point x="103" y="466" type="curve"/>
      <point x="177" y="581"/>
      <point x="252" y="695"/>
      <point x="326" y="810" type="curve"/>
      <point x="303" y="810"/>
      <point x="324" y="810"/>
      <point x="301" y="810" type="curve"/>
      <point x="227" y="695"/>
      <point x="152" y="581"/>
      <point x="78" y="466" type="curve"/>
      <point x="101" y="466"/>
      <point x="79" y="466"/>
    </contour>
    <contour>
      <point x="554" y="466" type="curve"/>
      <point x="480" y="577"/>
      <point x="401" y="699"/>
      <point x="328" y="810" type="curve"/>
      <point x="305" y="810"/>
      <point x="326" y="810"/>
      <point x="303" y="810" type="curve"/>
      <point x="376" y="699"/>
      <point x="456" y="577"/>
      <point x="529" y="466" type="curve"/>
      <point x="552" y="466"/>
      <point x="531" y="466"/>
    </contour>
  </outline>
</glyph>
<glyph name="h" format="1">
  <advance width="815"/>
  <unicode hex="0068"/>
  <outline>
    <contour>
      <point x="647" y="0" type="curve"/>
      <point x="702" y="0"/>
      <point x="756" y="0"/>
      <point x="811" y="0" type="curve"/>
      <point x="811" y="22"/>
      <point x="811" y="0"/>
      <point x="811" y="22" type="curve"/>
      <point x="646" y="22"/>
      <point x="811" y="22"/>
      <point x="647" y="22" type="curve"/>
      <point x="647" y="0"/>
      <point x="647" y="22"/>
    </contour>
    <contour>
      <point x="170" y="0" type="curve"/>
      <point x="221" y="0"/>
      <point x="170" y="0"/>
      <point x="320" y="0" type="curve"/>
      <point x="320" y="22"/>
      <point x="320" y="0"/>
      <point x="320" y="22" type="curve"/>
      <point x="170" y="22"/>
      <point x="321" y="22"/>
      <point x="170" y="22" type="curve"/>
      <point x="170" y="0"/>
      <point x="170" y="22"/>
    </contour>
    <contour>
      <point x="170" y="800" type="curve"/>
      <point x="116" y="800"/>
      <point x="61" y="800"/>
      <point x="7" y="800" type="curve"/>
      <point x="7" y="778"/>
      <point x="7" y="800"/>
      <point x="7" y="778" type="curve"/>
      <point x="171" y="778"/>
      <point x="6" y="778"/>
      <point x="170" y="778" type="curve"/>
      <point x="170" y="800"/>
      <point x="170" y="778"/>
    </contour>
    <contour>
      <point x="170" y="22" type="curve"/>
      <point x="6" y="22"/>
      <point x="171" y="22"/>
      <point x="7" y="22" type="curve"/>
      <point x="7" y="0"/>
      <point x="7" y="22"/>
      <point x="7" y="0" type="curve"/>
      <point x="61" y="0"/>
      <point x="116" y="0"/>
      <point x="170" y="0" type="curve"/>
      <point x="170" y="22"/>
      <point x="170" y="0"/>
    </contour>
    <contour>
      <point x="177" y="354" type="curve"/>
      <point x="224" y="455"/>
      <point x="330" y="516"/>
      <point x="441" y="516" type="curve"/>
      <point x="563" y="516"/>
      <point x="636" y="459"/>
      <point x="636" y="341" type="curve"/>
      <point x="636" y="228"/>
      <point x="636" y="114"/>
      <point x="636" y="0" type="curve"/>
      <point x="660" y="0"/>
      <point x="636" y="0"/>
      <point x="660" y="0" type="curve"/>
      <point x="660" y="115"/>
      <point x="660" y="229"/>
      <point x="660" y="344" type="curve"/>
      <point x="660" y="475"/>
      <point x="578" y="538"/>
      <point x="444" y="538" type="curve"/>
      <point x="323" y="538"/>
      <point x="208" y="478"/>
      <point x="165" y="366" type="curve"/>
      <point x="178" y="354"/>
      <point x="165" y="365"/>
    </contour>
    <contour>
      <point x="182" y="0" type="curve"/>
      <point x="182" y="267"/>
      <point x="182" y="533"/>
      <point x="182" y="800" type="curve"/>
      <point x="158" y="800"/>
      <point x="182" y="800"/>
      <point x="158" y="800" type="curve"/>
      <point x="158" y="533"/>
      <point x="158" y="267"/>
      <point x="158" y="0" type="curve"/>
      <point x="182" y="0"/>
      <point x="158" y="0"/>
    </contour>
  </outline>
</glyph>
<glyph name="k" format="1">
  <advance width="737"/>
  <unicode hex="006B"/>
  <outline>
    <contour>
      <point x="431" y="-5" type="move" name="bottom"/>
    </contour>
    <contour>
      <point x="170" y="22" type="curve"/>
      <point x="6" y="22"/>
      <point x="171" y="22"/>
      <point x="7" y="22" type="curve"/>
      <point x="7" y="0"/>
      <point x="7" y="22"/>
      <point x="7" y="0" type="curve"/>
      <point x="61" y="0"/>
      <point x="115" y="0"/>
      <point x="170" y="0" type="curve"/>
      <point x="170" y="22"/>
      <point x="170" y="0"/>
    </contour>
    <contour>
      <point x="558" y="0" type="curve"/>
      <point x="612" y="0"/>
      <point x="667" y="0"/>
      <point x="721" y="0" type="curve"/>
      <point x="721" y="22"/>
      <point x="721" y="0"/>
      <point x="721" y="22" type="curve"/>
      <point x="558" y="22"/>
      <point x="721" y="22"/>
      <point x="558" y="22" type="curve"/>
      <point x="558" y="0"/>
      <point x="558" y="22"/>
    </contour>
    <contour>
      <point x="525" y="511" type="curve"/>
      <point x="671" y="511"/>
      <point x="524" y="511"/>
      <point x="670" y="511" type="curve"/>
      <point x="670" y="533"/>
      <point x="670" y="511"/>
      <point x="670" y="533" type="curve"/>
      <point x="622" y="533"/>
      <point x="573" y="533"/>
      <point x="525" y="533" type="curve"/>
      <point x="525" y="511"/>
      <point x="525" y="533"/>
    </contour>
    <contour>
      <point x="170" y="0" type="curve"/>
      <point x="220" y="0"/>
      <point x="170" y="0"/>
      <point x="317" y="0" type="curve"/>
      <point x="317" y="22"/>
      <point x="317" y="0"/>
      <point x="317" y="22" type="curve"/>
      <point x="170" y="22"/>
      <point x="318" y="22"/>
      <point x="170" y="22" type="curve"/>
      <point x="170" y="0"/>
      <point x="170" y="22"/>
    </contour>
    <contour>
      <point x="525" y="533" type="curve"/>
      <point x="475" y="533"/>
      <point x="425" y="533"/>
      <point x="374" y="533" type="curve"/>
      <point x="374" y="511"/>
      <point x="374" y="533"/>
      <point x="374" y="511" type="curve"/>
      <point x="526" y="511"/>
      <point x="373" y="511"/>
      <point x="525" y="511" type="curve"/>
      <point x="525" y="533"/>
      <point x="525" y="511"/>
    </contour>
    <contour>
      <point x="173" y="800" type="curve"/>
      <point x="118" y="800"/>
      <point x="64" y="800"/>
      <point x="9" y="800" type="curve"/>
      <point x="9" y="778"/>
      <point x="9" y="800"/>
      <point x="9" y="778" type="curve"/>
      <point x="174" y="778"/>
      <point x="8" y="778"/>
      <point x="173" y="778" type="curve"/>
      <point x="173" y="800"/>
      <point x="173" y="778"/>
    </contour>
    <contour>
      <point x="183" y="0" type="curve"/>
      <point x="183" y="800" type="line"/>
      <point x="159" y="800"/>
      <point x="183" y="800"/>
      <point x="159" y="800" type="curve"/>
      <point x="159" y="533"/>
      <point x="159" y="267"/>
      <point x="159" y="0" type="curve"/>
      <point x="183" y="0"/>
      <point x="159" y="0"/>
    </contour>
    <contour>
      <point x="528" y="533" type="curve"/>
      <point x="172" y="275" type="line"/>
      <point x="214" y="275"/>
      <point x="172" y="275"/>
      <point x="214" y="275" type="curve"/>
      <point x="569" y="533" type="line"/>
      <point x="528" y="533"/>
      <point x="570" y="533"/>
    </contour>
    <contour>
      <point x="603" y="0" type="curve"/>
      <point x="214" y="275" type="line"/>
      <point x="172" y="275"/>
      <point x="214" y="275"/>
      <point x="172" y="275" type="curve"/>
      <point x="558" y="0" type="line"/>
      <point x="604" y="0"/>
      <point x="557" y="0"/>
    </contour>
  </outline>
</glyph>
<glyph name="x" format="1">
  <advance width="868"/>
  <unicode hex="0078"/>
  <outline>
    <contour>
      <point x="168" y="22" type="curve"/>
      <point x="4" y="22"/>
      <point x="169" y="22"/>
      <point x="5" y="22" type="curve"/>
      <point x="5" y="0"/>
      <point x="5" y="22"/>
      <point x="5" y="0" type="curve"/>
      <point x="59" y="0"/>
      <point x="113" y="0"/>
      <point x="168" y="0" type="curve"/>
      <point x="168" y="22"/>
      <point x="168" y="0"/>
    </contour>
    <contour>
      <point x="698" y="22" type="curve"/>
      <point x="535" y="22"/>
      <point x="699" y="22"/>
      <point x="536" y="22" type="curve"/>
      <point x="536" y="0"/>
      <point x="536" y="22"/>
      <point x="536" y="0" type="curve"/>
      <point x="590" y="0"/>
      <point x="643" y="0"/>
      <point x="698" y="0" type="curve"/>
      <point x="698" y="22"/>
      <point x="698" y="0"/>
    </contour>
    <contour>
      <point x="698" y="0" type="curve"/>
      <point x="752" y="0"/>
      <point x="807" y="0"/>
      <point x="861" y="0" type="curve"/>
      <point x="861" y="22"/>
      <point x="861" y="0"/>
      <point x="861" y="22" type="curve"/>
      <point x="697" y="22"/>
      <point x="862" y="22"/>
      <point x="698" y="22" type="curve"/>
      <point x="698" y="0"/>
      <point x="698" y="22"/>
    </contour>
    <contour>
      <point x="168" y="0" type="curve"/>
      <point x="222" y="0"/>
      <point x="167" y="0"/>
      <point x="330" y="0" type="curve"/>
      <point x="330" y="22"/>
      <point x="330" y="0"/>
      <point x="330" y="22" type="curve"/>
      <point x="167" y="22"/>
      <point x="331" y="22"/>
      <point x="168" y="22" type="curve"/>
      <point x="168" y="0"/>
      <point x="168" y="22"/>
    </contour>
    <contour>
      <point x="677" y="511" type="curve"/>
      <point x="841" y="511"/>
      <point x="676" y="511"/>
      <point x="840" y="511" type="curve"/>
      <point x="840" y="533"/>
      <point x="840" y="511"/>
      <point x="840" y="533" type="curve"/>
      <point x="786" y="533"/>
      <point x="732" y="533"/>
      <point x="677" y="533" type="curve"/>
      <point x="677" y="511"/>
      <point x="677" y="533"/>
    </contour>
    <contour>
      <point x="194" y="533" type="curve"/>
      <point x="139" y="533"/>
      <point x="85" y="533"/>
      <point x="31" y="533" type="curve"/>
      <point x="31" y="511"/>
      <point x="31" y="533"/>
      <point x="31" y="511" type="curve"/>
      <point x="195" y="511"/>
      <point x="30" y="511"/>
      <point x="194" y="511" type="curve"/>
      <point x="194" y="533"/>
      <point x="194" y="511"/>
    </contour>
    <contour>
      <point x="194" y="511" type="curve"/>
      <point x="357" y="511"/>
      <point x="192" y="511"/>
      <point x="354" y="511" type="curve"/>
      <point x="354" y="533"/>
      <point x="354" y="511"/>
      <point x="354" y="533" type="curve"/>
      <point x="299" y="533"/>
      <point x="248" y="533"/>
      <point x="194" y="533" type="curve"/>
      <point x="194" y="511"/>
      <point x="194" y="533"/>
    </contour>
    <contour>
      <point x="677" y="533" type="curve"/>
      <point x="623" y="533"/>
      <point x="570" y="533"/>
      <point x="516" y="533" type="curve"/>
      <point x="516" y="511"/>
      <point x="516" y="533"/>
      <point x="516" y="511" type="curve"/>
      <point x="679" y="511"/>
      <point x="514" y="511"/>
      <point x="677" y="511" type="curve"/>
      <point x="677" y="533"/>
      <point x="677" y="511"/>
    </contour>
    <contour>
      <point x="730" y="0" type="curve"/>
      <point x="551" y="178"/>
      <point x="373" y="355"/>
      <point x="194" y="533" type="curve"/>
      <point x="164" y="533"/>
      <point x="194" y="533"/>
      <point x="164" y="533" type="curve"/>
      <point x="342" y="355"/>
      <point x="520" y="178"/>
      <point x="697" y="0" type="curve"/>
      <point x="730" y="0"/>
      <point x="697" y="0"/>
    </contour>
    <contour>
      <point x="679" y="533" type="curve"/>
      <point x="499" y="355"/>
      <point x="318" y="178"/>
      <point x="137" y="0" type="curve"/>
      <point x="170" y="0"/>
      <point x="137" y="0"/>
      <point x="170" y="0" type="curve"/>
      <point x="349" y="178"/>
      <point x="529" y="355"/>
      <point x="709" y="533" type="curve"/>
      <point x="679" y="533"/>
      <point x="709" y="533"/>
    </contour>
  </outline>
</glyph>
<glyph name="braceright" format="1">
  <advance width="387"/>
  <unicode hex="007D"/>
  <outline>
    <contour>
      <point x="49" y="-124" type="curve"/>
      <point x="146" y="-124"/>
      <point x="208" y="-69"/>
      <point x="208" y="27" type="curve"/>
      <point x="208" y="86"/>
      <point x="208" y="146"/>
      <point x="208" y="205" type="curve"/>
      <point x="208" y="284"/>
      <point x="265" y="327"/>
      <point x="346" y="327" type="curve"/>
      <point x="346" y="349"/>
      <point x="346" y="327"/>
      <point x="346" y="349" type="curve"/>
      <point x="251" y="349"/>
      <point x="187" y="295"/>
      <point x="187" y="203" type="curve"/>
      <point x="187" y="144"/>
      <point x="187" y="85"/>
      <point x="187" y="26" type="curve"/>
      <point x="187" y="-56"/>
      <point x="133" y="-103"/>
      <point x="49" y="-103" type="curve"/>
      <point x="49" y="-124"/>
      <point x="49" y="-103"/>
    </contour>
    <contour>
      <point x="49" y="778" type="curve"/>
      <point x="133" y="778"/>
      <point x="186" y="732"/>
      <point x="186" y="650" type="curve"/>
      <point x="186" y="591"/>
      <point x="186" y="532"/>
      <point x="186" y="473" type="curve"/>
      <point x="186" y="379"/>
      <point x="251" y="327"/>
      <point x="346" y="327" type="curve"/>
      <point x="346" y="349"/>
      <point x="346" y="327"/>
      <point x="346" y="349" type="curve"/>
      <point x="264" y="349"/>
      <point x="208" y="391"/>
      <point x="208" y="470" type="curve"/>
      <point x="208" y="530"/>
      <point x="208" y="590"/>
      <point x="208" y="650" type="curve"/>
      <point x="208" y="745"/>
      <point x="145" y="799"/>
      <point x="49" y="799" type="curve"/>
      <point x="49" y="778"/>
      <point x="49" y="799"/>
    </contour>
  </outline>
</glyph>
<glyph name="exclamdown" format="1">
  <advance width="226"/>
  <unicode hex="00A1"/>
  <outline>
    <contour>
      <point x="100" y="316" type="line"/>
      <point x="96" y="-177" type="line"/>
      <point x="128" y="-177" type="line"/>
      <point x="124" y="316" type="line"/>
    </contour>
    <contour>
      <point x="93" y="533" type="curve"/>
      <point x="93" y="522"/>
      <point x="101" y="515"/>
      <point x="112" y="515" type="curve"/>
      <point x="123" y="515"/>
      <point x="130" y="522"/>
      <point x="130" y="533" type="curve"/>
      <point x="114" y="533"/>
      <point x="109" y="533"/>
      <point x="93" y="533" type="curve"/>
      <point x="93" y="544"/>
      <point x="101" y="551"/>
      <point x="112" y="551" type="curve"/>
      <point x="123" y="551"/>
      <point x="130" y="544"/>
      <point x="130" y="533" type="curve"/>
      <point x="114" y="533"/>
      <point x="109" y="533"/>
    </contour>
  </outline>
</glyph>
<glyph name="cent" format="1">
  <advance width="766"/>
  <unicode hex="00A2"/>
  <outline>
    <contour>
      <point x="409" y="-53" type="curve"/>
      <point x="409" y="-13"/>
      <point x="409" y="27"/>
      <point x="409" y="67" type="curve"/>
      <point x="386" y="67"/>
      <point x="409" y="67"/>
      <point x="386" y="67" type="curve"/>
      <point x="386" y="27"/>
      <point x="386" y="-13"/>
      <point x="386" y="-53" type="curve"/>
      <point x="409" y="-53"/>
      <point x="386" y="-53"/>
    </contour>
    <contour>
      <point x="412" y="778" type="curve"/>
      <point x="412" y="742"/>
      <point x="412" y="706"/>
      <point x="412" y="670" type="curve"/>
      <point x="435" y="670"/>
      <point x="412" y="670"/>
      <point x="435" y="670" type="curve"/>
      <point x="435" y="706"/>
      <point x="435" y="742"/>
      <point x="435" y="778" type="curve"/>
      <point x="412" y="778"/>
      <point x="435" y="778"/>
    </contour>
    <contour>
      <point x="702" y="608" type="curve"/>
      <point x="610" y="660"/>
      <point x="535" y="679"/>
      <point x="429" y="679" type="curve"/>
      <point x="214" y="679"/>
      <point x="63" y="571"/>
      <point x="63" y="366" type="curve"/>
      <point x="63" y="171"/>
      <point x="194" y="54"/>
      <point x="395" y="54" type="curve"/>
      <point x="514" y="54"/>
      <point x="598" y="83"/>
      <point x="700" y="146" type="curve"/>
      <point x="684" y="163"/>
      <point x="700" y="146"/>
      <point x="684" y="163" type="curve"/>
      <point x="590" y="101"/>
      <point x="510" y="76"/>
      <point x="397" y="76" type="curve"/>
      <point x="209" y="76"/>
      <point x="86" y="184"/>
      <point x="86" y="367" type="curve"/>
      <point x="86" y="558"/>
      <point x="227" y="657"/>
      <point x="427" y="657" type="curve"/>
      <point x="529" y="657"/>
      <point x="601" y="640"/>
      <point x="689" y="590" type="curve"/>
      <point x="702" y="608"/>
      <point x="689" y="590"/>
    </contour>
    <contour>
      <point x="680" y="608" type="curve"/>
      <point x="680" y="488"/>
      <point x="680" y="608"/>
      <point x="680" y="488" type="curve"/>
      <point x="702" y="488"/>
      <point x="680" y="488"/>
      <point x="702" y="488" type="curve"/>
      <point x="702" y="608"/>
      <point x="702" y="488"/>
      <point x="702" y="608" type="curve"/>
      <point x="680" y="608"/>
      <point x="702" y="608"/>
    </contour>
  </outline>
</glyph>
<glyph name="sterling" format="1">
  <advance width="637"/>
  <unicode hex="00A3"/>
  <outline>
    <contour>
      <point x="566" y="22" type="curve"/>
      <point x="392" y="22"/>
      <point x="220" y="22"/>
      <point x="48" y="22" type="curve"/>
      <point x="48" y="1"/>
      <point x="48" y="22"/>
      <point x="48" y="1" type="curve"/>
      <point x="220" y="1"/>
      <point x="392" y="1"/>
      <point x="566" y="1" type="curve"/>
      <point x="566" y="22"/>
      <point x="566" y="1"/>
    </contour>
    <contour>
      <point x="505" y="388" type="curve"/>
      <point x="368" y="388"/>
      <point x="230" y="388"/>
      <point x="93" y="388" type="curve"/>
      <point x="93" y="367"/>
      <point x="93" y="388"/>
      <point x="93" y="367" type="curve"/>
      <point x="230" y="367"/>
      <point x="368" y="367"/>
      <point x="505" y="367" type="curve"/>
      <point x="505" y="388"/>
      <point x="505" y="367"/>
    </contour>
    <contour>
      <point x="577" y="674" type="curve"/>
      <point x="519" y="707"/>
      <point x="473" y="722"/>
      <point x="406" y="722" type="curve"/>
      <point x="241" y="722"/>
      <point x="167" y="566"/>
      <point x="217" y="375" type="curve"/>
      <point x="266" y="185"/>
      <point x="205" y="22"/>
      <point x="48" y="22" type="curve"/>
      <point x="48" y="1"/>
      <point x="48" y="22"/>
      <point x="48" y="1" type="curve"/>
      <point x="228" y="1"/>
      <point x="292" y="175"/>
      <point x="240" y="379" type="curve"/>
      <point x="195" y="554"/>
      <point x="265" y="702"/>
      <point x="405" y="702" type="curve"/>
      <point x="468" y="702"/>
      <point x="511" y="690"/>
      <point x="565" y="657" type="curve"/>
      <point x="577" y="674"/>
      <point x="565" y="657"/>
    </contour>
  </outline>
</glyph>
<glyph name="dieresis" format="1">
  <advance width="407"/>
  <unicode hex="00A8"/>
  <outline>
    <contour>
      <point x="153" y="651" type="move" name="_top"/>
    </contour>
    <contour>
      <point x="93" y="669" type="curve"/>
      <point x="93" y="680"/>
      <point x="86" y="687"/>
      <point x="74" y="687" type="curve"/>
      <point x="63" y="687"/>
      <point x="56" y="680"/>
      <point x="56" y="669" type="curve"/>
      <point x="72" y="669"/>
      <point x="77" y="669"/>
      <point x="93" y="669" type="curve"/>
      <point x="93" y="658"/>
      <point x="86" y="651"/>
      <point x="74" y="651" type="curve"/>
      <point x="63" y="651"/>
      <point x="56" y="658"/>
      <point x="56" y="669" type="curve"/>
      <point x="72" y="669"/>
      <point x="77" y="669"/>
    </contour>
    <contour>
      <point x="248" y="669" type="curve"/>
      <point x="248" y="680"/>
      <point x="240" y="687"/>
      <point x="228" y="687" type="curve"/>
      <point x="217" y="687"/>
      <point x="210" y="680"/>
      <point x="210" y="669" type="curve"/>
      <point x="226" y="669"/>
      <point x="232" y="669"/>
      <point x="248" y="669" type="curve"/>
      <point x="248" y="658"/>
      <point x="240" y="651"/>
      <point x="228" y="651" type="curve"/>
      <point x="217" y="651"/>
      <point x="210" y="658"/>
      <point x="210" y="669" type="curve"/>
      <point x="226" y="669"/>
      <point x="232" y="669"/>
    </contour>
  </outline>
</glyph>
<glyph name="copyright" format="1">
  <advance width="935"/>
  <unicode hex="00A9"/>
  <outline>
    <contour>
      <point x="91" y="319" type="curve"/>
      <point x="91" y="518"/>
      <point x="259" y="625"/>
      <point x="472" y="625" type="curve"/>
      <point x="680" y="625"/>
      <point x="844" y="515"/>
      <point x="844" y="318" type="curve"/>
      <point x="844" y="126"/>
      <point x="684" y="17"/>
      <point x="480" y="17" type="curve"/>
      <point x="265" y="17"/>
      <point x="91" y="119"/>
      <point x="91" y="319" type="curve"/>
      <point x="68" y="319"/>
      <point x="91" y="319"/>
      <point x="68" y="319" type="curve"/>
      <point x="68" y="108"/>
      <point x="250" y="-4"/>
      <point x="479" y="-4" type="curve"/>
      <point x="698" y="-4"/>
      <point x="867" y="113"/>
      <point x="867" y="319" type="curve"/>
      <point x="867" y="528"/>
      <point x="694" y="645"/>
      <point x="472" y="645" type="curve"/>
      <point x="247" y="645"/>
      <point x="68" y="531"/>
      <point x="68" y="319" type="curve"/>
      <point x="91" y="319"/>
      <point x="68" y="319"/>
    </contour>
    <contour>
      <point x="600" y="452" type="curve"/>
      <point x="600" y="429"/>
      <point x="600" y="405"/>
      <point x="600" y="381" type="curve"/>
      <point x="621" y="381"/>
      <point x="600" y="381"/>
      <point x="621" y="381" type="curve"/>
      <point x="621" y="409"/>
      <point x="621" y="436"/>
      <point x="621" y="464" type="curve"/>
      <point x="600" y="452"/>
      <point x="621" y="464"/>
    </contour>
    <contour>
      <point x="622" y="464" type="curve"/>
      <point x="573" y="488"/>
      <point x="534" y="496"/>
      <point x="480" y="496" type="curve"/>
      <point x="358" y="496"/>
      <point x="272" y="434"/>
      <point x="272" y="319" type="curve"/>
      <point x="272" y="209"/>
      <point x="350" y="146"/>
      <point x="464" y="146" type="curve"/>
      <point x="532" y="146"/>
      <point x="581" y="156"/>
      <point x="639" y="193" type="curve"/>
      <point x="624" y="209"/>
      <point x="639" y="193"/>
      <point x="624" y="209" type="curve"/>
      <point x="572" y="176"/>
      <point x="527" y="166"/>
      <point x="465" y="166" type="curve"/>
      <point x="364" y="166"/>
      <point x="296" y="222"/>
      <point x="296" y="320" type="curve"/>
      <point x="296" y="421"/>
      <point x="370" y="475"/>
      <point x="479" y="475" type="curve"/>
      <point x="529" y="475"/>
      <point x="561" y="468"/>
      <point x="601" y="453" type="curve"/>
      <point x="622" y="464"/>
      <point x="601" y="453"/>
    </contour>
  </outline>
</glyph>
<glyph name="logicalnot" format="1">
  <advance width="813"/>
  <unicode hex="00AC"/>
  <outline>
    <contour>
      <point x="115" y="297" type="curve"/>
      <point x="721" y="297" type="line"/>
      <point x="721" y="321"/>
      <point x="721" y="297"/>
      <point x="721" y="321" type="curve"/>
      <point x="115" y="321" type="line"/>
      <point x="115" y="297"/>
      <point x="115" y="321"/>
    </contour>
    <contour>
      <point x="721" y="153" type="curve"/>
      <point x="721" y="321" type="line"/>
      <point x="697" y="321"/>
      <point x="721" y="321"/>
      <point x="697" y="321" type="curve"/>
      <point x="697" y="153" type="line"/>
      <point x="721" y="153"/>
      <point x="697" y="153"/>
    </contour>
  </outline>
</glyph>
<glyph name="plusminus" format="1">
  <advance width="763"/>
  <unicode hex="00B1"/>
  <outline>
    <contour>
      <point x="77" y="18" type="line"/>
      <point x="687" y="18" type="line"/>
      <point x="687" y="42" type="line"/>
      <point x="77" y="42" type="line"/>
    </contour>
    <contour>
      <point x="77" y="297" type="curve"/>
      <point x="687" y="297" type="line"/>
      <point x="687" y="321"/>
      <point x="687" y="297"/>
      <point x="687" y="321" type="curve"/>
      <point x="77" y="321" type="line"/>
      <point x="77" y="297"/>
      <point x="77" y="321"/>
    </contour>
    <contour>
      <point x="389" y="18" type="curve"/>
      <point x="389" y="588" type="line"/>
      <point x="365" y="588"/>
      <point x="389" y="588"/>
      <point x="365" y="588" type="curve"/>
      <point x="365" y="18" type="line"/>
      <point x="389" y="18"/>
      <point x="365" y="18"/>
    </contour>
  </outline>
</glyph>
<glyph name="twosuperior" format="1">
  <advance width="577"/>
  <unicode hex="00B2"/>
  <outline>
    <contour>
      <point x="311" y="708" type="move" name="_top"/>
    </contour>
    <contour>
      <point x="275" y="294" type="move" name="_bottom"/>
    </contour>
    <contour>
      <point x="485" y="295" type="curve"/>
      <point x="485" y="329"/>
      <point x="485" y="360"/>
      <point x="485" y="394" type="curve"/>
      <point x="464" y="394"/>
      <point x="485" y="394"/>
      <point x="464" y="394" type="curve"/>
      <point x="464" y="367"/>
      <point x="464" y="343"/>
      <point x="464" y="316" type="curve"/>
      <point x="485" y="295"/>
      <point x="464" y="316"/>
    </contour>
    <contour>
      <point x="84" y="295" type="curve"/>
      <point x="224" y="295"/>
      <point x="354" y="295"/>
      <point x="485" y="295" type="curve"/>
      <point x="464" y="316"/>
      <point x="485" y="295"/>
      <point x="464" y="316" type="curve"/>
      <point x="338" y="316"/>
      <point x="211" y="316"/>
      <point x="84" y="316" type="curve"/>
      <point x="84" y="296"/>
      <point x="84" y="316"/>
    </contour>
    <contour>
      <point x="139" y="613" type="curve"/>
      <point x="179" y="664"/>
      <point x="227" y="688"/>
      <point x="297" y="688" type="curve"/>
      <point x="376" y="688"/>
      <point x="437" y="661"/>
      <point x="437" y="590" type="curve"/>
      <point x="437" y="529"/>
      <point x="387" y="506"/>
      <point x="336" y="470" type="curve"/>
      <point x="251" y="419"/>
      <point x="167" y="367"/>
      <point x="84" y="316" type="curve"/>
      <point x="94" y="296"/>
      <point x="84" y="316"/>
      <point x="94" y="296" type="curve"/>
      <point x="179" y="348"/>
      <point x="265" y="401"/>
      <point x="351" y="453" type="curve"/>
      <point x="407" y="494"/>
      <point x="459" y="522"/>
      <point x="459" y="591" type="curve"/>
      <point x="459" y="674"/>
      <point x="389" y="709"/>
      <point x="298" y="709" type="curve"/>
      <point x="220" y="709"/>
      <point x="162" y="686"/>
      <point x="121" y="625" type="curve"/>
      <point x="139" y="613"/>
      <point x="121" y="625"/>
    </contour>
  </outline>
</glyph>
<glyph name="paragraph" format="1">
  <advance width="816"/>
  <unicode hex="00B6"/>
  <outline>
    <contour>
      <point x="525" y="700" type="curve"/>
      <point x="718" y="700"/>
      <point x="525" y="700"/>
      <point x="718" y="700" type="curve"/>
      <point x="718" y="722"/>
      <point x="718" y="700"/>
      <point x="718" y="722" type="curve"/>
      <point x="654" y="722"/>
      <point x="589" y="722"/>
      <point x="525" y="722" type="curve"/>
      <point x="525" y="700"/>
      <point x="525" y="722"/>
    </contour>
    <contour>
      <point x="525" y="0" type="curve"/>
      <point x="589" y="0"/>
      <point x="654" y="0"/>
      <point x="718" y="0" type="curve"/>
      <point x="718" y="22"/>
      <point x="718" y="0"/>
      <point x="718" y="22" type="curve"/>
      <point x="525" y="22"/>
      <point x="718" y="22"/>
      <point x="525" y="22" type="curve"/>
      <point x="525" y="0"/>
      <point x="525" y="22"/>
    </contour>
    <contour>
      <point x="525" y="22" type="curve"/>
      <point x="336" y="22"/>
      <point x="525" y="22"/>
      <point x="336" y="22" type="curve"/>
      <point x="336" y="0"/>
      <point x="336" y="22"/>
      <point x="336" y="0" type="curve"/>
      <point x="525" y="0"/>
      <point x="462" y="0"/>
      <point x="525" y="0" type="curve"/>
      <point x="525" y="22"/>
      <point x="525" y="0"/>
    </contour>
    <contour>
      <point x="519" y="346" type="curve"/>
      <point x="451" y="318"/>
      <point x="398" y="302"/>
      <point x="324" y="302" type="curve"/>
      <point x="183" y="302"/>
      <point x="73" y="363"/>
      <point x="73" y="493" type="curve"/>
      <point x="73" y="639"/>
      <point x="200" y="700"/>
      <point x="361" y="700" type="curve"/>
      <point x="414" y="700"/>
      <point x="468" y="700"/>
      <point x="521" y="700" type="curve"/>
      <point x="521" y="722"/>
      <point x="521" y="700"/>
      <point x="521" y="722" type="curve"/>
      <point x="467" y="722"/>
      <point x="412" y="722"/>
      <point x="358" y="722" type="curve"/>
      <point x="185" y="722"/>
      <point x="48" y="651"/>
      <point x="48" y="494" type="curve"/>
      <point x="48" y="349"/>
      <point x="169" y="283"/>
      <point x="326" y="280" type="curve"/>
      <point x="399" y="280"/>
      <point x="460" y="299"/>
      <point x="527" y="326" type="curve"/>
      <point x="519" y="346"/>
      <point x="527" y="326"/>
    </contour>
    <contour>
      <point x="539" y="0" type="curve"/>
      <point x="539" y="241"/>
      <point x="539" y="481"/>
      <point x="539" y="722" type="curve"/>
      <point x="514" y="722"/>
      <point x="539" y="722"/>
      <point x="514" y="722" type="curve"/>
      <point x="514" y="481"/>
      <point x="514" y="241"/>
      <point x="514" y="0" type="curve"/>
      <point x="539" y="0"/>
      <point x="514" y="0"/>
    </contour>
    <contour>
      <point x="729" y="0" type="curve"/>
      <point x="729" y="241"/>
      <point x="729" y="481"/>
      <point x="729" y="722" type="curve"/>
      <point x="704" y="722"/>
      <point x="729" y="722"/>
      <point x="704" y="722" type="curve"/>
      <point x="704" y="481"/>
      <point x="704" y="241"/>
      <point x="704" y="0" type="curve"/>
      <point x="729" y="0"/>
      <point x="704" y="0"/>
    </contour>
  </outline>
</glyph>
<glyph name="onequarter" format="1">
  <advance width="1236"/>
  <unicode hex="00BC"/>
  <outline>
    <contour>
      <point x="394" y="-93" type="line"/>
      <point x="942" y="757" type="line"/>
      <point x="915" y="757" type="line"/>
      <point x="367" y="-93" type="line"/>
    </contour>
    <contour>
      <point x="215" y="353" type="curve"/>
      <point x="258" y="353"/>
      <point x="298" y="353"/>
      <point x="341" y="353" type="curve"/>
      <point x="341" y="374"/>
      <point x="341" y="353"/>
      <point x="341" y="374" type="curve"/>
      <point x="305" y="374"/>
      <point x="273" y="374"/>
      <point x="238" y="374" type="curve"/>
      <point x="215" y="353"/>
      <point x="238" y="374"/>
    </contour>
    <contour>
      <point x="239" y="374" type="curve"/>
      <point x="194" y="374"/>
      <point x="152" y="374"/>
      <point x="107" y="374" type="curve"/>
      <point x="107" y="353"/>
      <point x="107" y="374"/>
      <point x="107" y="353" type="curve"/>
      <point x="144" y="353"/>
      <point x="179" y="353"/>
      <point x="216" y="353" type="curve"/>
      <point x="239" y="374"/>
      <point x="216" y="353"/>
    </contour>
    <contour>
      <point x="58" y="633" type="line"/>
      <point x="239" y="750" type="line"/>
      <point x="216" y="760" type="line"/>
      <point x="47" y="651" type="line"/>
    </contour>
    <contour>
      <point x="239" y="374" type="curve"/>
      <point x="239" y="760" type="line"/>
      <point x="216" y="760" type="line"/>
      <point x="216" y="353" type="line"/>
      <point x="239" y="374"/>
      <point x="216" y="353"/>
    </contour>
    <contour>
      <point x="1212" y="33" type="line"/>
      <point x="757" y="33" type="line"/>
      <point x="757" y="13" type="line"/>
      <point x="1212" y="13" type="line"/>
    </contour>
    <contour>
      <point x="771" y="15" type="line"/>
      <point x="1082" y="319" type="line"/>
      <point x="1059" y="328" type="line"/>
      <point x="757" y="33" type="line"/>
    </contour>
    <contour>
      <point x="1082" y="-106" type="line"/>
      <point x="1082" y="328" type="line"/>
      <point x="1059" y="328" type="line"/>
      <point x="1059" y="-106" type="line"/>
    </contour>
    <contour>
      <point x="1070" y="-85" type="line"/>
      <point x="956" y="-85" type="line"/>
      <point x="956" y="-106" type="line"/>
      <point x="1070" y="-106" type="line"/>
    </contour>
    <contour>
      <point x="1070" y="-106" type="line"/>
      <point x="1176" y="-106" type="line"/>
      <point x="1176" y="-85" type="line"/>
      <point x="1070" y="-85" type="line"/>
    </contour>
  </outline>
</glyph>
<glyph name="threequarters" format="1">
  <advance width="1226"/>
  <unicode hex="00BE"/>
  <outline>
    <contour>
      <point x="383" y="-93" type="line"/>
      <point x="931" y="757" type="line"/>
      <point x="904" y="757" type="line"/>
      <point x="356" y="-93" type="line"/>
    </contour>
    <contour>
      <point x="74" y="692" type="curve"/>
      <point x="112" y="721"/>
      <point x="155" y="738"/>
      <point x="203" y="738" type="curve"/>
      <point x="282" y="738"/>
      <point x="347" y="722"/>
      <point x="347" y="652" type="curve"/>
      <point x="347" y="567"/>
      <point x="245" y="569"/>
      <point x="146" y="563" type="curve"/>
      <point x="146" y="545"/>
      <point x="146" y="563"/>
      <point x="146" y="545" type="curve"/>
      <point x="263" y="546"/>
      <point x="370" y="554"/>
      <point x="370" y="654" type="curve"/>
      <point x="370" y="735"/>
      <point x="297" y="758"/>
      <point x="206" y="758" type="curve"/>
      <point x="151" y="758"/>
      <point x="99" y="740"/>
      <point x="59" y="706" type="curve"/>
      <point x="74" y="692"/>
      <point x="59" y="706"/>
    </contour>
    <contour>
      <point x="51" y="373" type="curve"/>
      <point x="97" y="350"/>
      <point x="143" y="340"/>
      <point x="194" y="340" type="curve"/>
      <point x="303" y="337"/>
      <point x="392" y="359"/>
      <point x="390" y="452" type="curve"/>
      <point x="390" y="562"/>
      <point x="271" y="554"/>
      <point x="146" y="556" type="curve"/>
      <point x="146" y="541"/>
      <point x="146" y="556"/>
      <point x="146" y="541" type="curve"/>
      <point x="261" y="536"/>
      <point x="367" y="542"/>
      <point x="367" y="451" type="curve"/>
      <point x="366" y="372"/>
      <point x="290" y="358"/>
      <point x="196" y="360" type="curve"/>
      <point x="149" y="360"/>
      <point x="105" y="369"/>
      <point x="63" y="388" type="curve"/>
      <point x="51" y="373"/>
      <point x="63" y="388"/>
    </contour>
    <contour>
      <point x="1201" y="33" type="line"/>
      <point x="746" y="33" type="line"/>
      <point x="746" y="13" type="line"/>
      <point x="1201" y="13" type="line"/>
    </contour>
    <contour>
      <point x="760" y="15" type="line"/>
      <point x="1071" y="319" type="line"/>
      <point x="1048" y="328" type="line"/>
      <point x="746" y="33" type="line"/>
    </contour>
    <contour>
      <point x="1071" y="-106" type="line"/>
      <point x="1071" y="328" type="line"/>
      <point x="1048" y="328" type="line"/>
      <point x="1048" y="-106" type="line"/>
    </contour>
    <contour>
      <point x="1059" y="-85" type="line"/>
      <point x="946" y="-85" type="line"/>
      <point x="946" y="-106" type="line"/>
      <point x="1059" y="-106" type="line"/>
    </contour>
    <contour>
      <point x="1059" y="-106" type="line"/>
      <point x="1165" y="-106" type="line"/>
      <point x="1165" y="-85" type="line"/>
      <point x="1059" y="-85" type="line"/>
    </contour>
  </outline>
</glyph>
<glyph name="questiondown" format="1">
  <advance width="564"/>
  <unicode hex="00BF"/>
  <outline>
    <contour>
      <point x="341" y="374" type="curve"/>
      <point x="341" y="411"/>
      <point x="341" y="449"/>
      <point x="341" y="486" type="curve"/>
      <point x="316" y="486"/>
      <point x="341" y="486"/>
      <point x="316" y="486" type="curve"/>
      <point x="316" y="449"/>
      <point x="316" y="411"/>
      <point x="316" y="374" type="curve"/>
      <point x="341" y="374"/>
      <point x="316" y="374"/>
    </contour>
    <contour>
      <point x="483" y="79" type="line"/>
      <point x="442" y="47"/>
      <point x="381" y="20"/>
      <point x="312" y="20" type="curve"/>
      <point x="188" y="20"/>
      <point x="91" y="73"/>
      <point x="91" y="189" type="curve"/>
      <point x="91" y="317"/>
      <point x="200" y="374"/>
      <point x="341" y="374" type="curve"/>
      <point x="341" y="384"/>
      <point x="341" y="388"/>
      <point x="341" y="397" type="curve"/>
      <point x="187" y="397"/>
      <point x="68" y="330"/>
      <point x="68" y="189" type="curve"/>
      <point x="68" y="60"/>
      <point x="173" y="-2"/>
      <point x="310" y="-2" type="curve"/>
      <point x="386" y="-2"/>
      <point x="450" y="25"/>
      <point x="498" y="62" type="curve"/>
    </contour>
    <contour>
      <point x="314" y="697" type="curve"/>
      <point x="314" y="688"/>
      <point x="319" y="683"/>
      <point x="328" y="683" type="curve"/>
      <point x="338" y="683"/>
      <point x="343" y="689"/>
      <point x="343" y="697" type="curve"/>
      <point x="314" y="697"/>
      <point x="343" y="697"/>
      <point x="314" y="697" type="curve"/>
      <point x="314" y="706"/>
      <point x="319" y="710"/>
      <point x="328" y="710" type="curve"/>
      <point x="338" y="710"/>
      <point x="343" y="705"/>
      <point x="343" y="697" type="curve"/>
      <point x="314" y="697"/>
      <point x="343" y="697"/>
    </contour>
  </outline>
</glyph>
<glyph name="Ccedilla" format="1">
  <advance width="841"/>
  <unicode hex="00C7"/>
  <outline>
    <contour>
      <point x="746" y="655" type="curve"/>
      <point x="746" y="535"/>
      <point x="746" y="655"/>
      <point x="746" y="535" type="curve"/>
      <point x="768" y="535"/>
      <point x="746" y="535"/>
      <point x="768" y="535" type="curve"/>
      <point x="768" y="655"/>
      <point x="768" y="535"/>
      <point x="768" y="655" type="curve"/>
      <point x="746" y="655"/>
      <point x="768" y="655"/>
    </contour>
    <contour>
      <point x="768" y="655" type="curve"/>
      <point x="680" y="697"/>
      <point x="586" y="727"/>
      <point x="481" y="727" type="curve"/>
      <point x="230" y="727"/>
      <point x="70" y="590"/>
      <point x="70" y="344" type="curve"/>
      <point x="70" y="117"/>
      <point x="220" y="-5"/>
      <point x="454" y="-5" type="curve"/>
      <point x="590" y="-5"/>
      <point x="680" y="26"/>
      <point x="792" y="96" type="curve"/>
      <point x="777" y="113"/>
      <point x="792" y="96"/>
      <point x="777" y="113" type="curve"/>
      <point x="672" y="44"/>
      <point x="583" y="19"/>
      <point x="455" y="19" type="curve"/>
      <point x="236" y="19"/>
      <point x="94" y="134"/>
      <point x="94" y="345" type="curve"/>
      <point x="94" y="574"/>
      <point x="245" y="704"/>
      <point x="480" y="704" type="curve"/>
      <point x="580" y="704"/>
      <point x="672" y="679"/>
      <point x="755" y="638" type="curve"/>
      <point x="768" y="655"/>
      <point x="755" y="638"/>
    </contour>
    <contour>
      <point x="432" y="23" type="curve"/>
      <point x="413" y="-4"/>
      <point x="394" y="-31"/>
      <point x="375" y="-57" type="curve"/>
      <point x="391" y="-75"/>
      <point x="375" y="-57"/>
      <point x="391" y="-75" type="curve"/>
      <point x="410" y="-47"/>
      <point x="430" y="-19"/>
      <point x="449" y="9" type="curve"/>
      <point x="432" y="23"/>
      <point x="449" y="9"/>
    </contour>
    <contour>
      <point x="391" y="-75" type="curve"/>
      <point x="412" y="-65"/>
      <point x="429" y="-62"/>
      <point x="453" y="-62" type="curve"/>
      <point x="494" y="-62"/>
      <point x="523" y="-80"/>
      <point x="523" y="-119" type="curve"/>
      <point x="523" y="-162"/>
      <point x="484" y="-174"/>
      <point x="436" y="-174" type="curve"/>
      <point x="401" y="-174"/>
      <point x="376" y="-172"/>
      <point x="344" y="-157" type="curve"/>
      <point x="335" y="-174"/>
      <point x="344" y="-157"/>
      <point x="335" y="-174" type="curve"/>
      <point x="369" y="-189"/>
      <point x="397" y="-196"/>
      <point x="435" y="-196" type="curve"/>
      <point x="497" y="-196"/>
      <point x="547" y="-176"/>
      <point x="547" y="-119" type="curve"/>
      <point x="547" y="-68"/>
      <point x="508" y="-41"/>
      <point x="455" y="-41" type="curve"/>
      <point x="425" y="-41"/>
      <point x="404" y="-47"/>
      <point x="376" y="-58" type="curve"/>
      <point x="391" y="-75"/>
      <point x="376" y="-58"/>
    </contour>
  </outline>
</glyph>
<glyph name="Iacute" format="1">
  <advance width="417"/>
  <unicode hex="00CD"/>
  <outline>
    <contour>
      <point x="205" y="722" type="curve"/>
      <point x="149" y="722"/>
      <point x="97" y="722"/>
      <point x="42" y="722" type="curve"/>
      <point x="42" y="700"/>
      <point x="42" y="722"/>
      <point x="42" y="700" type="curve"/>
      <point x="207" y="700"/>
      <point x="40" y="700"/>
      <point x="205" y="700" type="curve"/>
      <point x="205" y="722"/>
      <point x="205" y="700"/>
    </contour>
    <contour>
      <point x="205" y="700" type="curve"/>
      <point x="371" y="700"/>
      <point x="203" y="700"/>
      <point x="369" y="700" type="curve"/>
      <point x="369" y="722"/>
      <point x="369" y="700"/>
      <point x="369" y="722" type="curve"/>
      <point x="313" y="722"/>
      <point x="260" y="722"/>
      <point x="205" y="722" type="curve"/>
      <point x="205" y="700"/>
      <point x="205" y="722"/>
    </contour>
    <contour>
      <point x="205" y="0" type="curve"/>
      <point x="260" y="0"/>
      <point x="313" y="0"/>
      <point x="369" y="0" type="curve"/>
      <point x="369" y="22"/>
      <point x="369" y="0"/>
      <point x="369" y="22" type="curve"/>
      <point x="203" y="22"/>
      <point x="371" y="22"/>
      <point x="205" y="22" type="curve"/>
      <point x="205" y="0"/>
      <point x="205" y="22"/>
    </contour>
    <contour>
      <point x="205" y="22" type="curve"/>
      <point x="40" y="22"/>
      <point x="207" y="22"/>
      <point x="42" y="22" type="curve"/>
      <point x="42" y="0"/>
      <point x="42" y="22"/>
      <point x="42" y="0" type="curve"/>
      <point x="97" y="0"/>
      <point x="149" y="0"/>
      <point x="205" y="0" type="curve"/>
      <point x="205" y="22"/>
      <point x="205" y="0"/>
    </contour>
    <contour>
      <point x="215" y="0" type="curve"/>
      <point x="215" y="241"/>
      <point x="215" y="481"/>
      <point x="215" y="722" type="curve"/>
      <point x="191" y="722"/>
      <point x="215" y="722"/>
      <point x="191" y="722" type="curve"/>
      <point x="191" y="481"/>
      <point x="191" y="241"/>
      <point x="191" y="0" type="curve"/>
      <point x="215" y="0"/>
      <point x="191" y="0"/>
    </contour>
    <contour>
      <point x="219" y="825" type="line"/>
      <point x="404" y="991" type="line"/>
      <point x="365" y="991" type="line"/>
      <point x="190" y="825" type="line"/>
    </contour>
  </outline>
</glyph>
<glyph name="Ntilde" format="1">
  <advance width="1088"/>
  <unicode hex="00D1"/>
  <outline>
    <contour>
      <point x="207" y="722" type="curve"/>
      <point x="152" y="722"/>
      <point x="99" y="722"/>
      <point x="44" y="722" type="curve"/>
      <point x="44" y="700"/>
      <point x="44" y="722"/>
      <point x="44" y="700" type="curve"/>
      <point x="209" y="700"/>
      <point x="42" y="700"/>
      <point x="207" y="700" type="curve"/>
      <point x="207" y="722"/>
      <point x="207" y="700"/>
    </contour>
    <contour>
      <point x="901" y="700" type="curve"/>
      <point x="1066" y="700"/>
      <point x="899" y="700"/>
      <point x="1064" y="700" type="curve"/>
      <point x="1064" y="722"/>
      <point x="1064" y="700"/>
      <point x="1064" y="722" type="curve"/>
      <point x="1009" y="722"/>
      <point x="956" y="722"/>
      <point x="901" y="722" type="curve"/>
      <point x="901" y="700"/>
      <point x="901" y="722"/>
    </contour>
    <contour>
      <point x="901" y="722" type="curve"/>
      <point x="846" y="722"/>
      <point x="792" y="722"/>
      <point x="738" y="722" type="curve"/>
      <point x="738" y="700"/>
      <point x="738" y="722"/>
      <point x="738" y="700" type="curve"/>
      <point x="903" y="700"/>
      <point x="736" y="700"/>
      <point x="901" y="700" type="curve"/>
      <point x="901" y="722"/>
      <point x="901" y="700"/>
    </contour>
    <contour>
      <point x="206" y="22" type="curve"/>
      <point x="41" y="22"/>
      <point x="208" y="22"/>
      <point x="43" y="22" type="curve"/>
      <point x="42" y="0"/>
      <point x="43" y="22"/>
      <point x="42" y="0" type="curve"/>
      <point x="98" y="0"/>
      <point x="150" y="0"/>
      <point x="206" y="0" type="curve"/>
      <point x="206" y="22"/>
      <point x="206" y="0"/>
    </contour>
    <contour>
      <point x="206" y="0" type="curve"/>
      <point x="261" y="0"/>
      <point x="204" y="0"/>
      <point x="369" y="0" type="curve"/>
      <point x="369" y="22"/>
      <point x="369" y="0"/>
      <point x="369" y="22" type="curve"/>
      <point x="204" y="22"/>
      <point x="371" y="22"/>
      <point x="206" y="22" type="curve"/>
      <point x="206" y="0"/>
      <point x="206" y="22"/>
    </contour>
    <contour>
      <point x="911" y="0" type="curve"/>
      <point x="682" y="241"/>
      <point x="452" y="481"/>
      <point x="224" y="722" type="curve"/>
      <point x="194" y="722"/>
      <point x="220" y="722"/>
      <point x="190" y="722" type="curve"/>
      <point x="420" y="481"/>
      <point x="649" y="241"/>
      <point x="879" y="0" type="curve"/>
      <point x="908" y="0"/>
      <point x="882" y="0"/>
    </contour>
    <contour>
      <point x="887" y="722" type="curve"/>
      <point x="887" y="481"/>
      <point x="887" y="241"/>
      <point x="887" y="0" type="curve"/>
      <point x="912" y="0"/>
      <point x="887" y="0"/>
      <point x="912" y="0" type="curve"/>
      <point x="912" y="241"/>
      <point x="912" y="481"/>
      <point x="912" y="722" type="curve"/>
      <point x="887" y="722"/>
      <point x="912" y="722"/>
    </contour>
    <contour>
      <point x="218" y="0" type="curve"/>
      <point x="218" y="241"/>
      <point x="218" y="481"/>
      <point x="218" y="722" type="curve"/>
      <point x="193" y="722"/>
      <point x="218" y="722"/>
      <point x="193" y="722" type="curve"/>
      <point x="193" y="481"/>
      <point x="193" y="241"/>
      <point x="193" y="0" type="curve"/>
      <point x="218" y="0"/>
      <point x="193" y="0"/>
    </contour>
    <contour>
      <point x="766" y="948" type="curve"/>
      <point x="748" y="892"/>
      <point x="725" y="845"/>
      <point x="669" y="845" type="curve"/>
      <point x="621" y="845"/>
      <point x="589" y="862"/>
      <point x="553" y="894" type="curve"/>
      <point x="515" y="928"/>
      <point x="485" y="949"/>
      <point x="435" y="949" type="curve"/>
      <point x="363" y="949"/>
      <point x="325" y="902"/>
      <point x="307" y="830" type="curve"/>
      <point x="326" y="824"/>
      <point x="307" y="830"/>
      <point x="326" y="824" type="curve"/>
      <point x="343" y="886"/>
      <point x="374" y="928"/>
      <point x="435" y="928" type="curve"/>
      <point x="478" y="928"/>
      <point x="504" y="910"/>
      <point x="536" y="880" type="curve"/>
      <point x="577" y="845"/>
      <point x="613" y="824"/>
      <point x="667" y="824" type="curve"/>
      <point x="735" y="824"/>
      <point x="764" y="877"/>
      <point x="786" y="944" type="curve"/>
      <point x="766" y="948"/>
      <point x="786" y="944"/>
    </contour>
  </outline>
</glyph>
<glyph name="Uacute" format="1">
  <advance width="1023"/>
  <unicode hex="00DA"/>
  <outline>
    <contour>
      <point x="833" y="700" type="curve"/>
      <point x="997" y="700"/>
      <point x="832" y="700"/>
      <point x="996" y="700" type="curve"/>
      <point x="996" y="722"/>
      <point x="996" y="700"/>
      <point x="996" y="722" type="curve"/>
      <point x="942" y="722"/>
      <point x="887" y="722"/>
      <point x="833" y="722" type="curve"/>
      <point x="833" y="700"/>
      <point x="833" y="722"/>
    </contour>
    <contour>
      <point x="833" y="722" type="curve"/>
      <point x="777" y="722"/>
      <point x="724" y="722"/>
      <point x="669" y="722" type="curve"/>
      <point x="669" y="700"/>
      <point x="669" y="722"/>
      <point x="669" y="700" type="curve"/>
      <point x="834" y="700"/>
      <point x="669" y="700"/>
      <point x="833" y="700" type="curve"/>
      <point x="833" y="722"/>
      <point x="833" y="700"/>
    </contour>
    <contour>
      <point x="190" y="722" type="curve"/>
      <point x="135" y="722"/>
      <point x="81" y="722"/>
      <point x="27" y="722" type="curve"/>
      <point x="27" y="700"/>
      <point x="27" y="722"/>
      <point x="27" y="700" type="curve"/>
      <point x="191" y="700"/>
      <point x="26" y="700"/>
      <point x="190" y="700" type="curve"/>
      <point x="190" y="722"/>
      <point x="190" y="700"/>
    </contour>
    <contour>
      <point x="190" y="700" type="curve"/>
      <point x="354" y="700"/>
      <point x="189" y="700"/>
      <point x="354" y="700" type="curve"/>
      <point x="354" y="722"/>
      <point x="354" y="700"/>
      <point x="354" y="722" type="curve"/>
      <point x="299" y="722"/>
      <point x="245" y="722"/>
      <point x="190" y="722" type="curve"/>
      <point x="190" y="700"/>
      <point x="190" y="722"/>
    </contour>
    <contour>
      <point x="175" y="721" type="curve"/>
      <point x="175" y="543"/>
      <point x="175" y="449"/>
      <point x="175" y="271" type="curve"/>
      <point x="175" y="72"/>
      <point x="300" y="-5"/>
      <point x="513" y="-5" type="curve"/>
      <point x="722" y="-5"/>
      <point x="845" y="69"/>
      <point x="845" y="263" type="curve"/>
      <point x="845" y="444"/>
      <point x="845" y="540"/>
      <point x="845" y="721" type="curve"/>
      <point x="834" y="721"/>
      <point x="832" y="721"/>
      <point x="822" y="721" type="curve"/>
      <point x="822" y="538"/>
      <point x="822" y="442"/>
      <point x="822" y="259" type="curve"/>
      <point x="822" y="87"/>
      <point x="706" y="19"/>
      <point x="515" y="19" type="curve"/>
      <point x="315" y="19"/>
      <point x="198" y="89"/>
      <point x="198" y="275" type="curve"/>
      <point x="198" y="451"/>
      <point x="198" y="545"/>
      <point x="198" y="721" type="curve"/>
      <point x="188" y="721"/>
      <point x="186" y="721"/>
    </contour>
    <contour>
      <point x="532" y="825" type="line"/>
      <point x="718" y="991" type="line"/>
      <point x="679" y="991" type="line"/>
      <point x="503" y="825" type="line"/>
    </contour>
  </outline>
</glyph>
<glyph name="Thorn" format="1">
  <advance width="730"/>
  <unicode hex="00DE"/>
  <outline>
    <contour>
      <point x="196" y="722" type="curve"/>
      <point x="145" y="722"/>
      <point x="94" y="722"/>
      <point x="43" y="722" type="curve"/>
      <point x="43" y="700"/>
      <point x="43" y="722"/>
      <point x="43" y="700" type="curve"/>
      <point x="196" y="700"/>
      <point x="43" y="700"/>
      <point x="196" y="700" type="curve"/>
      <point x="196" y="722"/>
      <point x="196" y="700"/>
    </contour>
    <contour>
      <point x="196" y="22" type="curve"/>
      <point x="43" y="22"/>
      <point x="196" y="22"/>
      <point x="43" y="22" type="curve"/>
      <point x="43" y="0"/>
      <point x="43" y="22"/>
      <point x="43" y="0" type="curve"/>
      <point x="94" y="0"/>
      <point x="145" y="0"/>
      <point x="196" y="0" type="curve"/>
      <point x="196" y="22"/>
      <point x="196" y="0"/>
    </contour>
    <contour>
      <point x="196" y="0" type="curve"/>
      <point x="247" y="0"/>
      <point x="196" y="0"/>
      <point x="349" y="0" type="curve"/>
      <point x="349" y="22"/>
      <point x="349" y="0"/>
      <point x="349" y="22" type="curve"/>
      <point x="196" y="22"/>
      <point x="349" y="22"/>
      <point x="196" y="22" type="curve"/>
      <point x="196" y="0"/>
      <point x="196" y="22"/>
    </contour>
    <contour>
      <point x="194" y="223" type="curve"/>
      <point x="261" y="196"/>
      <point x="322" y="177"/>
      <point x="395" y="177" type="curve"/>
      <point x="553" y="180"/>
      <point x="674" y="246"/>
      <point x="674" y="391" type="curve"/>
      <point x="674" y="548"/>
      <point x="537" y="619"/>
      <point x="364" y="619" type="curve"/>
      <point x="309" y="619"/>
      <point x="254" y="619"/>
      <point x="200" y="619" type="curve"/>
      <point x="200" y="597"/>
      <point x="200" y="619"/>
      <point x="200" y="597" type="curve"/>
      <point x="253" y="597"/>
      <point x="307" y="597"/>
      <point x="361" y="597" type="curve"/>
      <point x="522" y="597"/>
      <point x="649" y="535"/>
      <point x="649" y="390" type="curve"/>
      <point x="649" y="260"/>
      <point x="539" y="199"/>
      <point x="398" y="199" type="curve"/>
      <point x="323" y="199"/>
      <point x="270" y="215"/>
      <point x="202" y="243" type="curve"/>
      <point x="194" y="223"/>
      <point x="202" y="243"/>
    </contour>
    <contour>
      <point x="207" y="0" type="curve"/>
      <point x="207" y="241"/>
      <point x="207" y="481"/>
      <point x="207" y="722" type="curve"/>
      <point x="182" y="722"/>
      <point x="207" y="722"/>
      <point x="182" y="722" type="curve"/>
      <point x="182" y="481"/>
      <point x="182" y="241"/>
      <point x="182" y="0" type="curve"/>
      <point x="207" y="0"/>
      <point x="182" y="0"/>
    </contour>
    <contour>
      <point x="196" y="700" type="curve"/>
      <point x="247" y="700"/>
      <point x="196" y="700"/>
      <point x="349" y="700" type="curve"/>
      <point x="349" y="722"/>
      <point x="349" y="700"/>
      <point x="349" y="722" type="curve"/>
      <point x="196" y="722"/>
      <point x="349" y="722"/>
      <point x="196" y="722" type="curve"/>
      <point x="196" y="700"/>
      <point x="196" y="722"/>
    </contour>
  </outline>
</glyph>
<glyph name="germandbls" format="1">
  <advance width="727"/>
  <unicode hex="00DF"/>
  <outline>
    <contour>
      <point x="170" y="22" type="curve"/>
      <point x="6" y="22"/>
      <point x="171" y="22"/>
      <point x="7" y="22" type="curve"/>
      <point x="7" y="0"/>
      <point x="7" y="22"/>
      <point x="7" y="0" type="curve"/>
      <point x="62" y="0"/>
      <point x="116" y="0"/>
      <point x="170" y="0" type="curve"/>
      <point x="170" y="22"/>
      <point x="170" y="0"/>
    </contour>
    <contour>
      <point x="170" y="0" type="curve"/>
      <point x="226" y="0"/>
      <point x="277" y="0"/>
      <point x="333" y="0" type="curve"/>
      <point x="333" y="22"/>
      <point x="333" y="0"/>
      <point x="333" y="22" type="curve"/>
      <point x="168" y="22"/>
      <point x="335" y="22"/>
      <point x="170" y="22" type="curve"/>
      <point x="170" y="0"/>
      <point x="170" y="22"/>
    </contour>
    <contour>
      <point x="181" y="0" type="curve"/>
      <point x="181" y="207"/>
      <point x="181" y="412"/>
      <point x="181" y="619" type="curve"/>
      <point x="158" y="619"/>
      <point x="181" y="619"/>
      <point x="158" y="619" type="curve"/>
      <point x="158" y="412"/>
      <point x="158" y="207"/>
      <point x="158" y="0" type="curve"/>
      <point x="181" y="0"/>
      <point x="158" y="0"/>
    </contour>
    <contour>
      <point x="181" y="619" type="curve"/>
      <point x="181" y="729"/>
      <point x="269" y="783"/>
      <point x="387" y="783" type="curve"/>
      <point x="511" y="783"/>
      <point x="609" y="739"/>
      <point x="609" y="627" type="curve"/>
      <point x="609" y="518"/>
      <point x="501" y="471"/>
      <point x="368" y="471" type="curve"/>
      <point x="368" y="454"/>
      <point x="368" y="471"/>
      <point x="368" y="454" type="curve"/>
      <point x="514" y="454"/>
      <point x="631" y="498"/>
      <point x="631" y="628" type="curve"/>
      <point x="631" y="753"/>
      <point x="526" y="804"/>
      <point x="389" y="804" type="curve"/>
      <point x="256" y="804"/>
      <point x="158" y="743"/>
      <point x="158" y="619" type="curve"/>
      <point x="181" y="619"/>
      <point x="158" y="619"/>
    </contour>
    <contour>
      <point x="491" y="87" type="curve"/>
      <point x="594" y="106"/>
      <point x="673" y="158"/>
      <point x="673" y="273" type="curve"/>
      <point x="673" y="418"/>
      <point x="546" y="471"/>
      <point x="368" y="471" type="curve"/>
      <point x="368" y="454"/>
      <point x="368" y="471"/>
      <point x="368" y="454" type="curve"/>
      <point x="509" y="454"/>
      <point x="651" y="413"/>
      <point x="651" y="272" type="curve"/>
      <point x="651" y="172"/>
      <point x="571" y="128"/>
      <point x="484" y="108" type="curve"/>
      <point x="491" y="87"/>
      <point x="484" y="108"/>
    </contour>
  </outline>
</glyph>
<glyph name="aacute" format="1">
  <advance width="675"/>
  <unicode hex="00E1"/>
  <outline>
    <contour>
      <point x="77" y="464" type="curve"/>
      <point x="77" y="344"/>
      <point x="77" y="465"/>
      <point x="77" y="345" type="curve"/>
      <point x="99" y="345"/>
      <point x="77" y="345"/>
      <point x="99" y="345" type="curve"/>
      <point x="99" y="465"/>
      <point x="99" y="344"/>
      <point x="99" y="464" type="curve"/>
      <point x="77" y="464"/>
      <point x="99" y="464"/>
    </contour>
    <contour>
      <point x="533" y="0" type="curve"/>
      <point x="533" y="130"/>
      <point x="533" y="260"/>
      <point x="533" y="390" type="curve"/>
      <point x="533" y="510"/>
      <point x="448" y="538"/>
      <point x="321" y="538" type="curve"/>
      <point x="217" y="538"/>
      <point x="139" y="507"/>
      <point x="77" y="464" type="curve"/>
      <point x="86" y="446"/>
      <point x="77" y="464"/>
      <point x="86" y="446" type="curve"/>
      <point x="146" y="484"/>
      <point x="219" y="516"/>
      <point x="318" y="516" type="curve"/>
      <point x="433" y="516"/>
      <point x="508" y="493"/>
      <point x="508" y="383" type="curve"/>
      <point x="508" y="255"/>
      <point x="508" y="128"/>
      <point x="508" y="0" type="curve"/>
      <point x="533" y="0"/>
      <point x="508" y="0"/>
    </contour>
    <contour>
      <point x="523" y="0" type="curve"/>
      <point x="573" y="0"/>
      <point x="623" y="0"/>
      <point x="674" y="0" type="curve"/>
      <point x="674" y="22"/>
      <point x="674" y="0"/>
      <point x="674" y="22" type="curve"/>
      <point x="522" y="22"/>
      <point x="675" y="22"/>
      <point x="523" y="22" type="curve"/>
      <point x="523" y="0"/>
      <point x="523" y="22"/>
    </contour>
    <contour>
      <point x="519" y="320" type="curve"/>
      <point x="420" y="309"/>
      <point x="361" y="304"/>
      <point x="261" y="293" type="curve"/>
      <point x="150" y="281"/>
      <point x="67" y="251"/>
      <point x="67" y="140" type="curve"/>
      <point x="67" y="41"/>
      <point x="140" y="-5"/>
      <point x="255" y="-5" type="curve"/>
      <point x="381" y="-5"/>
      <point x="445" y="56"/>
      <point x="526" y="149" type="curve"/>
      <point x="512" y="163"/>
      <point x="528" y="151"/>
      <point x="514" y="165" type="curve"/>
      <point x="441" y="84"/>
      <point x="376" y="17"/>
      <point x="260" y="17" type="curve"/>
      <point x="156" y="17"/>
      <point x="91" y="55"/>
      <point x="91" y="142" type="curve"/>
      <point x="91" y="239"/>
      <point x="164" y="263"/>
      <point x="260" y="273" type="curve"/>
      <point x="361" y="284"/>
      <point x="420" y="290"/>
      <point x="520" y="301" type="curve"/>
      <point x="519" y="320"/>
      <point x="520" y="301"/>
    </contour>
    <contour>
      <point x="337" y="671" type="line"/>
      <point x="523" y="837" type="line"/>
      <point x="484" y="837" type="line"/>
      <point x="308" y="671" type="line"/>
    </contour>
  </outline>
</glyph>
<glyph name="ccedilla" format="1">
  <advance width="643"/>
  <unicode hex="00E7"/>
  <outline>
    <contour>
      <point x="550" y="473" type="curve"/>
      <point x="550" y="353"/>
      <point x="550" y="474"/>
      <point x="550" y="354" type="curve"/>
      <point x="572" y="354"/>
      <point x="550" y="354"/>
      <point x="572" y="354" type="curve"/>
      <point x="572" y="474"/>
      <point x="572" y="353"/>
      <point x="572" y="473" type="curve"/>
      <point x="550" y="473"/>
      <point x="572" y="473"/>
    </contour>
    <contour>
      <point x="572" y="473" type="curve"/>
      <point x="513" y="511"/>
      <point x="440" y="538"/>
      <point x="366" y="538" type="curve"/>
      <point x="184" y="538"/>
      <point x="67" y="447"/>
      <point x="67" y="267" type="curve"/>
      <point x="67" y="87"/>
      <point x="181" y="-5"/>
      <point x="364" y="-5" type="curve"/>
      <point x="446" y="-5"/>
      <point x="527" y="26"/>
      <point x="586" y="83" type="curve"/>
      <point x="569" y="98"/>
      <point x="586" y="83"/>
      <point x="569" y="98" type="curve"/>
      <point x="513" y="45"/>
      <point x="440" y="17"/>
      <point x="364" y="17" type="curve"/>
      <point x="199" y="17"/>
      <point x="91" y="100"/>
      <point x="91" y="267" type="curve"/>
      <point x="91" y="434"/>
      <point x="199" y="516"/>
      <point x="364" y="516" type="curve"/>
      <point x="433" y="516"/>
      <point x="501" y="493"/>
      <point x="558" y="458" type="curve"/>
      <point x="572" y="473"/>
      <point x="558" y="458"/>
    </contour>
    <contour>
      <point x="357" y="12" type="curve"/>
      <point x="338" y="-15"/>
      <point x="319" y="-41"/>
      <point x="300" y="-68" type="curve"/>
      <point x="316" y="-85"/>
      <point x="300" y="-68"/>
      <point x="316" y="-85" type="curve"/>
      <point x="335" y="-57"/>
      <point x="355" y="-30"/>
      <point x="374" y="-2" type="curve"/>
      <point x="357" y="12"/>
      <point x="374" y="-2"/>
    </contour>
    <contour>
      <point x="316" y="-86" type="curve"/>
      <point x="337" y="-75"/>
      <point x="354" y="-73"/>
      <point x="377" y="-73" type="curve"/>
      <point x="419" y="-73"/>
      <point x="448" y="-91"/>
      <point x="448" y="-130" type="curve"/>
      <point x="448" y="-173"/>
      <point x="409" y="-185"/>
      <point x="360" y="-185" type="curve"/>
      <point x="326" y="-185"/>
      <point x="300" y="-183"/>
      <point x="269" y="-168" type="curve"/>
      <point x="260" y="-185"/>
      <point x="269" y="-168"/>
      <point x="260" y="-185" type="curve"/>
      <point x="294" y="-200"/>
      <point x="322" y="-206"/>
      <point x="359" y="-206" type="curve"/>
      <point x="422" y="-206"/>
      <point x="471" y="-187"/>
      <point x="471" y="-130" type="curve"/>
      <point x="471" y="-79"/>
      <point x="433" y="-52"/>
      <point x="379" y="-52" type="curve"/>
      <point x="350" y="-52"/>
      <point x="329" y="-58"/>
      <point x="301" y="-69" type="curve"/>
      <point x="316" y="-86"/>
      <point x="301" y="-69"/>
    </contour>
  </outline>
</glyph>
<glyph name="otilde" format="1">
  <advance width="711"/>
  <unicode hex="00F5"/>
  <outline>
    <contour>
      <point x="91" y="268" type="curve"/>
      <point x="91" y="428"/>
      <point x="192" y="517"/>
      <point x="351" y="517" type="curve"/>
      <point x="516" y="517"/>
      <point x="620" y="427"/>
      <point x="620" y="266" type="curve"/>
      <point x="620" y="107"/>
      <point x="517" y="17"/>
      <point x="356" y="17" type="curve"/>
      <point x="192" y="17"/>
      <point x="91" y="109"/>
      <point x="91" y="268" type="curve"/>
      <point x="67" y="268"/>
      <point x="91" y="268"/>
      <point x="67" y="268" type="curve"/>
      <point x="67" y="95"/>
      <point x="178" y="-5"/>
      <point x="355" y="-5" type="curve"/>
      <point x="533" y="-5"/>
      <point x="645" y="93"/>
      <point x="645" y="266" type="curve"/>
      <point x="645" y="440"/>
      <point x="531" y="538"/>
      <point x="352" y="538" type="curve"/>
      <point x="177" y="538"/>
      <point x="67" y="439"/>
      <point x="67" y="268" type="curve"/>
      <point x="91" y="268"/>
      <point x="67" y="268"/>
    </contour>
    <contour>
      <point x="568" y="794" type="curve"/>
      <point x="550" y="738"/>
      <point x="527" y="691"/>
      <point x="471" y="691" type="curve"/>
      <point x="423" y="691"/>
      <point x="391" y="708"/>
      <point x="355" y="740" type="curve"/>
      <point x="318" y="774"/>
      <point x="287" y="795"/>
      <point x="237" y="795" type="curve"/>
      <point x="166" y="795"/>
      <point x="127" y="748"/>
      <point x="109" y="676" type="curve"/>
      <point x="128" y="670"/>
      <point x="109" y="676"/>
      <point x="128" y="670" type="curve"/>
      <point x="145" y="732"/>
      <point x="176" y="774"/>
      <point x="237" y="774" type="curve"/>
      <point x="280" y="774"/>
      <point x="306" y="756"/>
      <point x="338" y="726" type="curve"/>
      <point x="379" y="691"/>
      <point x="415" y="670"/>
      <point x="469" y="670" type="curve"/>
      <point x="537" y="670"/>
      <point x="566" y="723"/>
      <point x="588" y="790" type="curve"/>
      <point x="568" y="794"/>
      <point x="588" y="790"/>
    </contour>
  </outline>
</glyph>
<glyph name="divide" format="1">
  <advance width="795"/>
  <unicode hex="00F7"/>
  <outline>
    <contour>
      <point x="92" y="297" type="line"/>
      <point x="702" y="297" type="line"/>
      <point x="702" y="321" type="line"/>
      <point x="92" y="321" type="line"/>
    </contour>
    <contour>
      <point x="414" y="511" type="curve"/>
      <point x="414" y="522"/>
      <point x="406" y="529"/>
      <point x="395" y="529" type="curve"/>
      <point x="384" y="529"/>
      <point x="377" y="522"/>
      <point x="377" y="511" type="curve"/>
      <point x="393" y="511"/>
      <point x="398" y="511"/>
      <point x="414" y="511" type="curve"/>
      <point x="414" y="500"/>
      <point x="406" y="493"/>
      <point x="395" y="493" type="curve"/>
      <point x="384" y="493"/>
      <point x="377" y="500"/>
      <point x="377" y="511" type="curve"/>
      <point x="393" y="511"/>
      <point x="398" y="511"/>
    </contour>
    <contour>
      <point x="414" y="96" type="curve"/>
      <point x="414" y="107"/>
      <point x="406" y="114"/>
      <point x="395" y="114" type="curve"/>
      <point x="384" y="114"/>
      <point x="377" y="107"/>
      <point x="377" y="96" type="curve"/>
      <point x="393" y="96"/>
      <point x="398" y="96"/>
      <point x="414" y="96" type="curve"/>
      <point x="414" y="85"/>
      <point x="406" y="78"/>
      <point x="395" y="78" type="curve"/>
      <point x="384" y="78"/>
      <point x="377" y="85"/>
      <point x="377" y="96" type="curve"/>
      <point x="393" y="96"/>
      <point x="398" y="96"/>
    </contour>
  </outline>
</glyph>
<glyph name="yacute" format="1">
  <advance width="943"/>
  <unicode hex="00FD"/>
  <outline>
    <contour>
      <point x="280" y="-278" type="curve"/>
      <point x="120" y="-278"/>
      <point x="281" y="-278"/>
      <point x="121" y="-278" type="curve"/>
      <point x="121" y="-300"/>
      <point x="121" y="-278"/>
      <point x="121" y="-300" type="curve"/>
      <point x="175" y="-300"/>
      <point x="227" y="-300"/>
      <point x="280" y="-300" type="curve"/>
      <point x="280" y="-278"/>
      <point x="280" y="-300"/>
    </contour>
    <contour>
      <point x="168" y="533" type="curve"/>
      <point x="114" y="533"/>
      <point x="60" y="533"/>
      <point x="5" y="533" type="curve"/>
      <point x="5" y="511"/>
      <point x="5" y="533"/>
      <point x="5" y="511" type="curve"/>
      <point x="169" y="511"/>
      <point x="4" y="511"/>
      <point x="168" y="511" type="curve"/>
      <point x="168" y="533"/>
      <point x="168" y="511"/>
    </contour>
    <contour>
      <point x="168" y="511" type="curve"/>
      <point x="332" y="511"/>
      <point x="167" y="511"/>
      <point x="331" y="511" type="curve"/>
      <point x="331" y="533"/>
      <point x="331" y="511"/>
      <point x="331" y="533" type="curve"/>
      <point x="277" y="533"/>
      <point x="223" y="533"/>
      <point x="168" y="533" type="curve"/>
      <point x="168" y="511"/>
      <point x="168" y="533"/>
    </contour>
    <contour>
      <point x="773" y="533" type="curve"/>
      <point x="719" y="533"/>
      <point x="665" y="533"/>
      <point x="612" y="533" type="curve"/>
      <point x="612" y="511"/>
      <point x="612" y="533"/>
      <point x="612" y="511" type="curve"/>
      <point x="774" y="511"/>
      <point x="611" y="511"/>
      <point x="773" y="511" type="curve"/>
      <point x="773" y="533"/>
      <point x="773" y="511"/>
    </contour>
    <contour>
      <point x="773" y="511" type="curve"/>
      <point x="937" y="511"/>
      <point x="772" y="511"/>
      <point x="936" y="511" type="curve"/>
      <point x="936" y="533"/>
      <point x="936" y="511"/>
      <point x="936" y="533" type="curve"/>
      <point x="882" y="533"/>
      <point x="827" y="533"/>
      <point x="773" y="533" type="curve"/>
      <point x="773" y="511"/>
      <point x="773" y="533"/>
    </contour>
    <contour>
      <point x="470" y="9" type="curve"/>
      <point x="375" y="166"/>
      <point x="262" y="376"/>
      <point x="166" y="533" type="curve"/>
      <point x="139" y="533"/>
      <point x="166" y="533"/>
      <point x="139" y="533" type="curve"/>
      <point x="237" y="375"/>
      <point x="349" y="161"/>
      <point x="447" y="4" type="curve"/>
      <point x="470" y="4"/>
      <point x="447" y="9"/>
    </contour>
    <contour>
      <point x="282" y="-300" type="curve"/>
      <point x="446" y="-50"/>
      <point x="637" y="283"/>
      <point x="802" y="533" type="curve"/>
      <point x="775" y="533"/>
      <point x="802" y="533"/>
      <point x="775" y="533" type="curve"/>
      <point x="610" y="283"/>
      <point x="419" y="-50"/>
      <point x="255" y="-300" type="curve"/>
      <point x="282" y="-300"/>
      <point x="255" y="-300"/>
    </contour>
    <contour>
      <point x="474" y="670" type="line"/>
      <point x="660" y="836" type="line"/>
      <point x="621" y="836" type="line"/>
      <point x="445" y="670" type="line"/>
    </contour>
  </outline>
</glyph>
<glyph name="cacute" format="1">
  <advance width="643"/>
  <unicode hex="0107"/>
  <outline>
    <contour>
      <point x="550" y="473" type="curve"/>
      <point x="550" y="353"/>
      <point x="550" y="474"/>
      <point x="550" y="354" type="curve"/>
      <point x="572" y="354"/>
      <point x="550" y="354"/>
      <point x="572" y="354" type="curve"/>
      <point x="572" y="474"/>
      <point x="572" y="353"/>
      <point x="572" y="473" type="curve"/>
      <point x="550" y="473"/>
      <point x="572" y="473"/>
    </contour>
    <contour>
      <point x="572" y="473" type="curve"/>
      <point x="513" y="511"/>
      <point x="440" y="538"/>
      <point x="366" y="538" type="curve"/>
      <point x="184" y="538"/>
      <point x="67" y="447"/>
      <point x="67" y="267" type="curve"/>
      <point x="67" y="87"/>
      <point x="181" y="-5"/>
      <point x="364" y="-5" type="curve"/>
      <point x="446" y="-5"/>
      <point x="527" y="26"/>
      <point x="586" y="83" type="curve"/>
      <point x="569" y="98"/>
      <point x="586" y="83"/>
      <point x="569" y="98" type="curve"/>
      <point x="513" y="45"/>
      <point x="440" y="17"/>
      <point x="364" y="17" type="curve"/>
      <point x="199" y="17"/>
      <point x="91" y="100"/>
      <point x="91" y="267" type="curve"/>
      <point x="91" y="434"/>
      <point x="199" y="516"/>
      <point x="364" y="516" type="curve"/>
      <point x="433" y="516"/>
      <point x="501" y="493"/>
      <point x="558" y="458" type="curve"/>
      <point x="572" y="473"/>
      <point x="558" y="458"/>
    </contour>
    <contour>
      <point x="375" y="671" type="line"/>
      <point x="561" y="837" type="line"/>
      <point x="522" y="837" type="line"/>
      <point x="346" y="671" type="line"/>
    </contour>
  </outline>
</glyph>
<glyph name="Ccaron" format="1">
  <advance width="841"/>
  <unicode hex="010C"/>
  <outline>
    <contour>
      <point x="746" y="655" type="curve"/>
      <point x="746" y="535"/>
      <point x="746" y="655"/>
      <point x="746" y="535" type="curve"/>
      <point x="768" y="535"/>
      <point x="746" y="535"/>
      <point x="768" y="535" type="curve"/>
      <point x="768" y="655"/>
      <point x="768" y="535"/>
      <point x="768" y="655" type="curve"/>
      <point x="746" y="655"/>
      <point x="768" y="655"/>
    </contour>
    <contour>
      <point x="768" y="655" type="curve"/>
      <point x="680" y="697"/>
      <point x="586" y="727"/>
      <point x="481" y="727" type="curve"/>
      <point x="230" y="727"/>
      <point x="70" y="590"/>
      <point x="70" y="344" type="curve"/>
      <point x="70" y="117"/>
      <point x="220" y="-5"/>
      <point x="454" y="-5" type="curve"/>
      <point x="590" y="-5"/>
      <point x="680" y="26"/>
      <point x="792" y="96" type="curve"/>
      <point x="777" y="113"/>
      <point x="792" y="96"/>
      <point x="777" y="113" type="curve"/>
      <point x="672" y="44"/>
      <point x="583" y="19"/>
      <point x="455" y="19" type="curve"/>
      <point x="236" y="19"/>
      <point x="94" y="134"/>
      <point x="94" y="345" type="curve"/>
      <point x="94" y="574"/>
      <point x="245" y="704"/>
      <point x="480" y="704" type="curve"/>
      <point x="580" y="704"/>
      <point x="672" y="679"/>
      <point x="755" y="638" type="curve"/>
      <point x="768" y="655"/>
      <point x="755" y="638"/>
    </contour>
    <contour>
      <point x="644" y="991" type="line"/>
      <point x="459" y="825" type="line"/>
      <point x="498" y="825" type="line"/>
      <point x="674" y="991" type="line"/>
    </contour>
    <contour>
      <point x="275" y="991" type="line"/>
      <point x="450" y="825" type="line"/>
      <point x="490" y="825" type="line"/>
      <point x="304" y="991" type="line"/>
    </contour>
  </outline>
</glyph>
<glyph name="dcaron" format="1">
  <advance width="784"/>
  <unicode hex="010F"/>
  <outline>
    <contour>
      <point x="622" y="800" type="curve"/>
      <point x="567" y="800"/>
      <point x="514" y="800"/>
      <point x="459" y="800" type="curve"/>
      <point x="459" y="778"/>
      <point x="459" y="800"/>
      <point x="459" y="778" type="curve"/>
      <point x="624" y="778"/>
      <point x="457" y="778"/>
      <point x="622" y="778" type="curve"/>
      <point x="622" y="800"/>
      <point x="622" y="778"/>
    </contour>
    <contour>
      <point x="624" y="0" type="curve"/>
      <point x="679" y="0"/>
      <point x="732" y="0"/>
      <point x="787" y="0" type="curve"/>
      <point x="787" y="22"/>
      <point x="787" y="0"/>
      <point x="787" y="22" type="curve"/>
      <point x="622" y="22"/>
      <point x="789" y="22"/>
      <point x="624" y="22" type="curve"/>
      <point x="624" y="0"/>
      <point x="624" y="22"/>
    </contour>
    <contour>
      <point x="630" y="447" type="curve"/>
      <point x="558" y="509"/>
      <point x="476" y="538"/>
      <point x="375" y="538" type="curve"/>
      <point x="194" y="538"/>
      <point x="64" y="438"/>
      <point x="64" y="264" type="curve"/>
      <point x="64" y="91"/>
      <point x="197" y="-5"/>
      <point x="378" y="-5" type="curve"/>
      <point x="486" y="-5"/>
      <point x="561" y="34"/>
      <point x="630" y="120" type="curve"/>
      <point x="616" y="135"/>
      <point x="630" y="120"/>
      <point x="616" y="135" type="curve"/>
      <point x="548" y="55"/>
      <point x="478" y="17"/>
      <point x="377" y="17" type="curve"/>
      <point x="211" y="17"/>
      <point x="89" y="105"/>
      <point x="89" y="265" type="curve"/>
      <point x="89" y="426"/>
      <point x="210" y="516"/>
      <point x="376" y="516" type="curve"/>
      <point x="470" y="516"/>
      <point x="551" y="490"/>
      <point x="616" y="431" type="curve"/>
      <point x="630" y="447"/>
      <point x="616" y="431"/>
    </contour>
    <contour>
      <point x="636" y="0" type="curve"/>
      <point x="636" y="267"/>
      <point x="636" y="533"/>
      <point x="636" y="800" type="curve"/>
      <point x="610" y="800"/>
      <point x="636" y="800"/>
      <point x="610" y="800" type="curve"/>
      <point x="610" y="533"/>
      <point x="610" y="267"/>
      <point x="610" y="0" type="curve"/>
      <point x="636" y="0"/>
      <point x="610" y="0"/>
    </contour>
    <contour>
      <point x="757" y="649" type="line"/>
      <point x="788" y="675"/>
      <point x="816" y="709"/>
      <point x="816" y="763" type="curve"/>
      <point x="816" y="784"/>
      <point x="812" y="802"/>
      <point x="793" y="802" type="curve"/>
      <point x="780" y="802"/>
      <point x="773" y="796"/>
      <point x="773" y="784" type="curve"/>
      <point x="773" y="774"/>
      <point x="777" y="768"/>
      <point x="788" y="763" type="curve"/>
      <point x="788" y="737"/>
      <point x="775" y="695"/>
      <point x="742" y="668" type="curve"/>
    </contour>
  </outline>
</glyph>
<glyph name="Dcroat" format="1">
  <advance width="930"/>
  <unicode hex="0110"/>
  <outline>
    <contour>
      <point x="206" y="22" type="curve"/>
      <point x="41" y="22"/>
      <point x="208" y="22"/>
      <point x="43" y="22" type="curve"/>
      <point x="43" y="0"/>
      <point x="43" y="22"/>
      <point x="43" y="0" type="curve"/>
      <point x="98" y="0"/>
      <point x="151" y="0"/>
      <point x="206" y="0" type="curve"/>
      <point x="206" y="22"/>
      <point x="206" y="0"/>
    </contour>
    <contour>
      <point x="206" y="722" type="curve"/>
      <point x="151" y="722"/>
      <point x="98" y="722"/>
      <point x="43" y="722" type="curve"/>
      <point x="43" y="700"/>
      <point x="43" y="722"/>
      <point x="43" y="700" type="curve"/>
      <point x="208" y="700"/>
      <point x="41" y="700"/>
      <point x="206" y="700" type="curve"/>
      <point x="206" y="722"/>
      <point x="206" y="700"/>
    </contour>
    <contour>
      <point x="191" y="722" type="curve"/>
      <point x="191" y="481"/>
      <point x="191" y="241"/>
      <point x="191" y="0" type="curve"/>
      <point x="216" y="0"/>
      <point x="191" y="0"/>
      <point x="216" y="0" type="curve"/>
      <point x="216" y="241"/>
      <point x="216" y="481"/>
      <point x="216" y="722" type="curve"/>
      <point x="191" y="722"/>
      <point x="216" y="722"/>
    </contour>
    <contour>
      <point x="206" y="0" type="curve"/>
      <point x="292" y="0"/>
      <point x="375" y="0"/>
      <point x="461" y="0" type="curve"/>
      <point x="713" y="0"/>
      <point x="864" y="111"/>
      <point x="864" y="351" type="curve"/>
      <point x="864" y="604"/>
      <point x="708" y="722"/>
      <point x="445" y="722" type="curve"/>
      <point x="364" y="722"/>
      <point x="286" y="722"/>
      <point x="206" y="722" type="curve"/>
      <point x="206" y="701"/>
      <point x="206" y="721"/>
      <point x="206" y="700" type="curve"/>
      <point x="286" y="700"/>
      <point x="364" y="700"/>
      <point x="443" y="700" type="curve"/>
      <point x="692" y="700"/>
      <point x="841" y="589"/>
      <point x="841" y="351" type="curve"/>
      <point x="841" y="126"/>
      <point x="700" y="22"/>
      <point x="464" y="22" type="curve"/>
      <point x="377" y="22"/>
      <point x="293" y="22"/>
      <point x="206" y="22" type="curve"/>
      <point x="206" y="1"/>
      <point x="206" y="21"/>
    </contour>
    <contour>
      <point x="109" y="347" type="curve"/>
      <point x="234" y="347"/>
      <point x="359" y="347"/>
      <point x="483" y="347" type="curve"/>
      <point x="483" y="371"/>
      <point x="483" y="347"/>
      <point x="483" y="371" type="curve"/>
      <point x="359" y="371"/>
      <point x="234" y="371"/>
      <point x="109" y="371" type="curve"/>
      <point x="109" y="347"/>
      <point x="109" y="371"/>
    </contour>
  </outline>
</glyph>
<glyph name="dcroat" format="1">
  <advance width="794"/>
  <unicode hex="0111"/>
  <outline>
    <contour>
      <point x="622" y="800" type="curve"/>
      <point x="567" y="800"/>
      <point x="514" y="800"/>
      <point x="459" y="800" type="curve"/>
      <point x="459" y="778"/>
      <point x="459" y="800"/>
      <point x="459" y="778" type="curve"/>
      <point x="624" y="778"/>
      <point x="457" y="778"/>
      <point x="622" y="778" type="curve"/>
      <point x="622" y="800"/>
      <point x="622" y="778"/>
    </contour>
    <contour>
      <point x="624" y="0" type="curve"/>
      <point x="679" y="0"/>
      <point x="732" y="0"/>
      <point x="787" y="0" type="curve"/>
      <point x="787" y="22"/>
      <point x="787" y="0"/>
      <point x="787" y="22" type="curve"/>
      <point x="622" y="22"/>
      <point x="789" y="22"/>
      <point x="624" y="22" type="curve"/>
      <point x="624" y="0"/>
      <point x="624" y="22"/>
    </contour>
    <contour>
      <point x="630" y="447" type="curve"/>
      <point x="558" y="509"/>
      <point x="476" y="538"/>
      <point x="375" y="538" type="curve"/>
      <point x="194" y="538"/>
      <point x="64" y="438"/>
      <point x="64" y="264" type="curve"/>
      <point x="64" y="91"/>
      <point x="197" y="-5"/>
      <point x="378" y="-5" type="curve"/>
      <point x="486" y="-5"/>
      <point x="561" y="34"/>
      <point x="630" y="120" type="curve"/>
      <point x="616" y="135"/>
      <point x="630" y="120"/>
      <point x="616" y="135" type="curve"/>
      <point x="548" y="55"/>
      <point x="478" y="17"/>
      <point x="377" y="17" type="curve"/>
      <point x="211" y="17"/>
      <point x="89" y="105"/>
      <point x="89" y="265" type="curve"/>
      <point x="89" y="426"/>
      <point x="210" y="516"/>
      <point x="376" y="516" type="curve"/>
      <point x="470" y="516"/>
      <point x="551" y="490"/>
      <point x="616" y="431" type="curve"/>
      <point x="630" y="447"/>
      <point x="616" y="431"/>
    </contour>
    <contour>
      <point x="636" y="0" type="curve"/>
      <point x="636" y="267"/>
      <point x="636" y="533"/>
      <point x="636" y="800" type="curve"/>
      <point x="610" y="800"/>
      <point x="636" y="800"/>
      <point x="610" y="800" type="curve"/>
      <point x="610" y="533"/>
      <point x="610" y="267"/>
      <point x="610" y="0" type="curve"/>
      <point x="636" y="0"/>
      <point x="610" y="0"/>
    </contour>
    <contour>
      <point x="375" y="656" type="curve"/>
      <point x="504" y="656"/>
      <point x="633" y="656"/>
      <point x="763" y="656" type="curve"/>
      <point x="763" y="680"/>
      <point x="763" y="656"/>
      <point x="763" y="680" type="curve"/>
      <point x="633" y="680"/>
      <point x="504" y="680"/>
      <point x="375" y="680" type="curve"/>
      <point x="375" y="656"/>
      <point x="375" y="680"/>
    </contour>
  </outline>
</glyph>
<glyph name="Emacron" format="1">
  <advance width="805"/>
  <unicode hex="0112"/>
  <outline>
    <contour>
      <point x="754" y="11" type="curve"/>
      <point x="754" y="131"/>
      <point x="754" y="10"/>
      <point x="754" y="130" type="curve"/>
      <point x="733" y="130"/>
      <point x="754" y="130"/>
      <point x="733" y="130" type="curve"/>
      <point x="733" y="10"/>
      <point x="733" y="131"/>
      <point x="733" y="11" type="curve"/>
      <point x="754" y="11"/>
      <point x="733" y="11"/>
    </contour>
    <contour>
      <point x="690" y="711" type="curve"/>
      <point x="690" y="591"/>
      <point x="690" y="712"/>
      <point x="690" y="592" type="curve"/>
      <point x="712" y="592"/>
      <point x="690" y="592"/>
      <point x="712" y="592" type="curve"/>
      <point x="712" y="712"/>
      <point x="712" y="591"/>
      <point x="712" y="711" type="curve"/>
      <point x="690" y="711"/>
      <point x="712" y="711"/>
    </contour>
    <contour>
      <point x="205" y="22" type="curve"/>
      <point x="40" y="22"/>
      <point x="207" y="22"/>
      <point x="42" y="22" type="curve"/>
      <point x="42" y="0"/>
      <point x="42" y="22"/>
      <point x="42" y="0" type="curve"/>
      <point x="97" y="0"/>
      <point x="149" y="0"/>
      <point x="205" y="0" type="curve"/>
      <point x="205" y="22"/>
      <point x="205" y="0"/>
    </contour>
    <contour>
      <point x="205" y="722" type="curve"/>
      <point x="149" y="722"/>
      <point x="97" y="722"/>
      <point x="42" y="722" type="curve"/>
      <point x="42" y="700"/>
      <point x="42" y="722"/>
      <point x="42" y="700" type="curve"/>
      <point x="207" y="700"/>
      <point x="40" y="700"/>
      <point x="205" y="700" type="curve"/>
      <point x="205" y="722"/>
      <point x="205" y="700"/>
    </contour>
    <contour>
      <point x="209" y="363" type="curve"/>
      <point x="349" y="363"/>
      <point x="490" y="363"/>
      <point x="631" y="363" type="curve"/>
      <point x="631" y="385"/>
      <point x="631" y="363"/>
      <point x="631" y="385" type="curve"/>
      <point x="490" y="385"/>
      <point x="349" y="385"/>
      <point x="209" y="385" type="curve"/>
      <point x="209" y="363"/>
      <point x="209" y="385"/>
    </contour>
    <contour>
      <point x="189" y="700" type="curve"/>
      <point x="363" y="700"/>
      <point x="537" y="700"/>
      <point x="712" y="700" type="curve"/>
      <point x="712" y="722"/>
      <point x="712" y="700"/>
      <point x="712" y="722" type="curve"/>
      <point x="537" y="722"/>
      <point x="363" y="722"/>
      <point x="189" y="722" type="curve"/>
      <point x="189" y="700"/>
      <point x="189" y="722"/>
    </contour>
    <contour>
      <point x="215" y="0" type="curve"/>
      <point x="215" y="722" type="line"/>
      <point x="191" y="722"/>
      <point x="215" y="722"/>
      <point x="191" y="722" type="curve"/>
      <point x="191" y="481"/>
      <point x="191" y="241"/>
      <point x="191" y="0" type="curve"/>
      <point x="215" y="0"/>
      <point x="191" y="0"/>
    </contour>
    <contour>
      <point x="189" y="0" type="curve"/>
      <point x="378" y="0"/>
      <point x="566" y="0"/>
      <point x="754" y="0" type="curve"/>
      <point x="754" y="22"/>
      <point x="754" y="0"/>
      <point x="754" y="22" type="curve"/>
      <point x="566" y="22"/>
      <point x="378" y="22"/>
      <point x="189" y="22" type="curve"/>
      <point x="189" y="0"/>
      <point x="189" y="22"/>
    </contour>
    <contour>
      <point x="563" y="846" type="curve"/>
      <point x="466" y="846"/>
      <point x="370" y="846"/>
      <point x="274" y="846" type="curve"/>
      <point x="274" y="825"/>
      <point x="274" y="846"/>
      <point x="274" y="825" type="curve"/>
      <point x="370" y="825"/>
      <point x="466" y="825"/>
      <point x="563" y="825" type="curve"/>
      <point x="563" y="846"/>
      <point x="563" y="825"/>
    </contour>
  </outline>
</glyph>
<glyph name="Eogonek" format="1">
  <advance width="825"/>
  <unicode hex="0118"/>
  <outline>
    <contour>
      <point x="754" y="11" type="curve"/>
      <point x="754" y="131"/>
      <point x="754" y="10"/>
      <point x="754" y="130" type="curve"/>
      <point x="733" y="130"/>
      <point x="754" y="130"/>
      <point x="733" y="130" type="curve"/>
      <point x="733" y="10"/>
      <point x="733" y="131"/>
      <point x="733" y="11" type="curve"/>
      <point x="754" y="11"/>
      <point x="733" y="11"/>
    </contour>
    <contour>
      <point x="690" y="711" type="curve"/>
      <point x="690" y="591"/>
      <point x="690" y="712"/>
      <point x="690" y="592" type="curve"/>
      <point x="712" y="592"/>
      <point x="690" y="592"/>
      <point x="712" y="592" type="curve"/>
      <point x="712" y="712"/>
      <point x="712" y="591"/>
      <point x="712" y="711" type="curve"/>
      <point x="690" y="711"/>
      <point x="712" y="711"/>
    </contour>
    <contour>
      <point x="205" y="22" type="curve"/>
      <point x="40" y="22"/>
      <point x="207" y="22"/>
      <point x="42" y="22" type="curve"/>
      <point x="42" y="0"/>
      <point x="42" y="22"/>
      <point x="42" y="0" type="curve"/>
      <point x="97" y="0"/>
      <point x="149" y="0"/>
      <point x="205" y="0" type="curve"/>
      <point x="205" y="22"/>
      <point x="205" y="0"/>
    </contour>
    <contour>
      <point x="205" y="722" type="curve"/>
      <point x="149" y="722"/>
      <point x="97" y="722"/>
      <point x="42" y="722" type="curve"/>
      <point x="42" y="700"/>
      <point x="42" y="722"/>
      <point x="42" y="700" type="curve"/>
      <point x="207" y="700"/>
      <point x="40" y="700"/>
      <point x="205" y="700" type="curve"/>
      <point x="205" y="722"/>
      <point x="205" y="700"/>
    </contour>
    <contour>
      <point x="209" y="363" type="curve"/>
      <point x="349" y="363"/>
      <point x="490" y="363"/>
      <point x="631" y="363" type="curve"/>
      <point x="631" y="385"/>
      <point x="631" y="363"/>
      <point x="631" y="385" type="curve"/>
      <point x="490" y="385"/>
      <point x="349" y="385"/>
      <point x="209" y="385" type="curve"/>
      <point x="209" y="363"/>
      <point x="209" y="385"/>
    </contour>
    <contour>
      <point x="189" y="700" type="curve"/>
      <point x="363" y="700"/>
      <point x="537" y="700"/>
      <point x="712" y="700" type="curve"/>
      <point x="712" y="722"/>
      <point x="712" y="700"/>
      <point x="712" y="722" type="curve"/>
      <point x="537" y="722"/>
      <point x="363" y="722"/>
      <point x="189" y="722" type="curve"/>
      <point x="189" y="700"/>
      <point x="189" y="722"/>
    </contour>
    <contour>
      <point x="215" y="0" type="curve"/>
      <point x="215" y="722" type="line"/>
      <point x="191" y="722"/>
      <point x="215" y="722"/>
      <point x="191" y="722" type="curve"/>
      <point x="191" y="481"/>
      <point x="191" y="241"/>
      <point x="191" y="0" type="curve"/>
      <point x="215" y="0"/>
      <point x="191" y="0"/>
    </contour>
    <contour>
      <point x="189" y="0" type="curve"/>
      <point x="378" y="0"/>
      <point x="566" y="0"/>
      <point x="754" y="0" type="curve"/>
      <point x="754" y="22"/>
      <point x="754" y="0"/>
      <point x="754" y="22" type="curve"/>
      <point x="566" y="22"/>
      <point x="378" y="22"/>
      <point x="189" y="22" type="curve"/>
      <point x="189" y="0"/>
      <point x="189" y="22"/>
    </contour>
    <contour>
      <point x="735" y="20" type="curve"/>
      <point x="664" y="-6"/>
      <point x="599" y="-22"/>
      <point x="599" y="-94" type="curve"/>
      <point x="599" y="-155"/>
      <point x="644" y="-189"/>
      <point x="709" y="-189" type="curve"/>
      <point x="748" y="-189"/>
      <point x="773" y="-177"/>
      <point x="807" y="-160" type="curve"/>
      <point x="798" y="-145"/>
      <point x="806" y="-159"/>
      <point x="797" y="-145" type="curve"/>
      <point x="767" y="-159"/>
      <point x="744" y="-168"/>
      <point x="711" y="-168" type="curve"/>
      <point x="658" y="-168"/>
      <point x="621" y="-143"/>
      <point x="621" y="-94" type="curve"/>
      <point x="621" y="-30"/>
      <point x="682" y="-19"/>
      <point x="744" y="6" type="curve"/>
      <point x="735" y="19"/>
      <point x="743" y="7"/>
    </contour>
  </outline>
</glyph>
<glyph name="ecaron" format="1">
  <advance width="655"/>
  <unicode hex="011B"/>
  <outline>
    <contour>
      <point x="84" y="273" type="curve"/>
      <point x="251" y="273"/>
      <point x="419" y="273"/>
      <point x="586" y="273" type="curve"/>
      <point x="587" y="273"/>
      <point x="586" y="273"/>
      <point x="587" y="273" type="curve"/>
      <point x="587" y="276"/>
      <point x="587" y="273"/>
      <point x="587" y="276" type="curve"/>
      <point x="587" y="285"/>
      <point x="587" y="294"/>
      <point x="587" y="303" type="curve"/>
      <point x="587" y="458"/>
      <point x="491" y="538"/>
      <point x="336" y="538" type="curve"/>
      <point x="170" y="538"/>
      <point x="71" y="448"/>
      <point x="71" y="281" type="curve"/>
      <point x="71" y="95"/>
      <point x="182" y="-5"/>
      <point x="367" y="-5" type="curve"/>
      <point x="455" y="-5"/>
      <point x="513" y="18"/>
      <point x="585" y="74" type="curve"/>
      <point x="570" y="90"/>
      <point x="585" y="74"/>
      <point x="570" y="90" type="curve"/>
      <point x="503" y="39"/>
      <point x="449" y="17"/>
      <point x="367" y="17" type="curve"/>
      <point x="198" y="17"/>
      <point x="95" y="110"/>
      <point x="95" y="281" type="curve"/>
      <point x="95" y="433"/>
      <point x="184" y="516"/>
      <point x="334" y="516" type="curve"/>
      <point x="475" y="516"/>
      <point x="564" y="445"/>
      <point x="564" y="305" type="curve"/>
      <point x="564" y="295"/>
      <point x="564" y="286"/>
      <point x="564" y="276" type="curve"/>
      <point x="568" y="279"/>
      <point x="572" y="282"/>
      <point x="575" y="285" type="curve"/>
      <point x="579" y="288"/>
      <point x="582" y="292"/>
      <point x="586" y="295" type="curve"/>
      <point x="419" y="295"/>
      <point x="251" y="295"/>
      <point x="84" y="295" type="curve"/>
      <point x="84" y="273"/>
      <point x="84" y="295"/>
    </contour>
    <contour>
      <point x="505" y="837" type="line"/>
      <point x="319" y="671" type="line"/>
      <point x="359" y="671" type="line"/>
      <point x="534" y="837" type="line"/>
    </contour>
    <contour>
      <point x="135" y="837" type="line"/>
      <point x="311" y="671" type="line"/>
      <point x="350" y="671" type="line"/>
      <point x="165" y="837" type="line"/>
    </contour>
  </outline>
</glyph>
<glyph name="Imacron" format="1">
  <advance width="409"/>
  <unicode hex="012A"/>
  <outline>
    <contour>
      <point x="205" y="722" type="curve"/>
      <point x="149" y="722"/>
      <point x="97" y="722"/>
      <point x="42" y="722" type="curve"/>
      <point x="42" y="700"/>
      <point x="42" y="722"/>
      <point x="42" y="700" type="curve"/>
      <point x="207" y="700"/>
      <point x="40" y="700"/>
      <point x="205" y="700" type="curve"/>
      <point x="205" y="722"/>
      <point x="205" y="700"/>
    </contour>
    <contour>
      <point x="205" y="700" type="curve"/>
      <point x="371" y="700"/>
      <point x="203" y="700"/>
      <point x="369" y="700" type="curve"/>
      <point x="369" y="722"/>
      <point x="369" y="700"/>
      <point x="369" y="722" type="curve"/>
      <point x="313" y="722"/>
      <point x="260" y="722"/>
      <point x="205" y="722" type="curve"/>
      <point x="205" y="700"/>
      <point x="205" y="722"/>
    </contour>
    <contour>
      <point x="205" y="0" type="curve"/>
      <point x="260" y="0"/>
      <point x="313" y="0"/>
      <point x="369" y="0" type="curve"/>
      <point x="369" y="22"/>
      <point x="369" y="0"/>
      <point x="369" y="22" type="curve"/>
      <point x="203" y="22"/>
      <point x="371" y="22"/>
      <point x="205" y="22" type="curve"/>
      <point x="205" y="0"/>
      <point x="205" y="22"/>
    </contour>
    <contour>
      <point x="205" y="22" type="curve"/>
      <point x="40" y="22"/>
      <point x="207" y="22"/>
      <point x="42" y="22" type="curve"/>
      <point x="42" y="0"/>
      <point x="42" y="22"/>
      <point x="42" y="0" type="curve"/>
      <point x="97" y="0"/>
      <point x="149" y="0"/>
      <point x="205" y="0" type="curve"/>
      <point x="205" y="22"/>
      <point x="205" y="0"/>
    </contour>
    <contour>
      <point x="215" y="0" type="curve"/>
      <point x="215" y="241"/>
      <point x="215" y="481"/>
      <point x="215" y="722" type="curve"/>
      <point x="191" y="722"/>
      <point x="215" y="722"/>
      <point x="191" y="722" type="curve"/>
      <point x="191" y="481"/>
      <point x="191" y="241"/>
      <point x="191" y="0" type="curve"/>
      <point x="215" y="0"/>
      <point x="191" y="0"/>
    </contour>
    <contour>
      <point x="344" y="846" type="curve"/>
      <point x="247" y="846"/>
      <point x="151" y="846"/>
      <point x="55" y="846" type="curve"/>
      <point x="55" y="825"/>
      <point x="55" y="846"/>
      <point x="55" y="825" type="curve"/>
      <point x="151" y="825"/>
      <point x="247" y="825"/>
      <point x="344" y="825" type="curve"/>
      <point x="344" y="846"/>
      <point x="344" y="825"/>
    </contour>
  </outline>
</glyph>
<glyph name="dotlessi" format="1">
  <advance width="359"/>
  <unicode hex="0131"/>
  <outline>
    <contour>
      <point x="197" y="671" type="move" name="top"/>
    </contour>
    <contour>
      <point x="199" y="22" type="curve"/>
      <point x="35" y="22"/>
      <point x="200" y="22"/>
      <point x="36" y="22" type="curve"/>
      <point x="36" y="0"/>
      <point x="36" y="22"/>
      <point x="36" y="0" type="curve"/>
      <point x="91" y="0"/>
      <point x="145" y="0"/>
      <point x="199" y="0" type="curve"/>
      <point x="199" y="22"/>
      <point x="199" y="0"/>
    </contour>
    <contour>
      <point x="199" y="0" type="curve"/>
      <point x="250" y="0"/>
      <point x="299" y="0"/>
      <point x="350" y="0" type="curve"/>
      <point x="350" y="22"/>
      <point x="350" y="0"/>
      <point x="350" y="22" type="curve"/>
      <point x="198" y="22"/>
      <point x="351" y="22"/>
      <point x="199" y="22" type="curve"/>
      <point x="199" y="0"/>
      <point x="199" y="22"/>
    </contour>
    <contour>
      <point x="199" y="533" type="curve"/>
      <point x="145" y="533"/>
      <point x="91" y="533"/>
      <point x="36" y="533" type="curve"/>
      <point x="36" y="511"/>
      <point x="36" y="533"/>
      <point x="36" y="511" type="curve"/>
      <point x="200" y="511"/>
      <point x="35" y="511"/>
      <point x="199" y="511" type="curve"/>
      <point x="199" y="533"/>
      <point x="199" y="511"/>
    </contour>
    <contour>
      <point x="213" y="0" type="curve"/>
      <point x="213" y="178"/>
      <point x="213" y="355"/>
      <point x="213" y="533" type="curve"/>
      <point x="187" y="533"/>
      <point x="213" y="533"/>
      <point x="187" y="533" type="curve"/>
      <point x="187" y="355"/>
      <point x="187" y="178"/>
      <point x="187" y="0" type="curve"/>
      <point x="213" y="0"/>
      <point x="187" y="0"/>
    </contour>
  </outline>
</glyph>
<glyph name="Ncaron" format="1">
  <advance width="1088"/>
  <unicode hex="0147"/>
  <outline>
    <contour>
      <point x="207" y="722" type="curve"/>
      <point x="152" y="722"/>
      <point x="99" y="722"/>
      <point x="44" y="722" type="curve"/>
      <point x="44" y="700"/>
      <point x="44" y="722"/>
      <point x="44" y="700" type="curve"/>
      <point x="209" y="700"/>
      <point x="42" y="700"/>
      <point x="207" y="700" type="curve"/>
      <point x="207" y="722"/>
      <point x="207" y="700"/>
    </contour>
    <contour>
      <point x="901" y="700" type="curve"/>
      <point x="1066" y="700"/>
      <point x="899" y="700"/>
      <point x="1064" y="700" type="curve"/>
      <point x="1064" y="722"/>
      <point x="1064" y="700"/>
      <point x="1064" y="722" type="curve"/>
      <point x="1009" y="722"/>
      <point x="956" y="722"/>
      <point x="901" y="722" type="curve"/>
      <point x="901" y="700"/>
      <point x="901" y="722"/>
    </contour>
    <contour>
      <point x="901" y="722" type="curve"/>
      <point x="846" y="722"/>
      <point x="792" y="722"/>
      <point x="738" y="722" type="curve"/>
      <point x="738" y="700"/>
      <point x="738" y="722"/>
      <point x="738" y="700" type="curve"/>
      <point x="903" y="700"/>
      <point x="736" y="700"/>
      <point x="901" y="700" type="curve"/>
      <point x="901" y="722"/>
      <point x="901" y="700"/>
    </contour>
    <contour>
      <point x="206" y="22" type="curve"/>
      <point x="41" y="22"/>
      <point x="208" y="22"/>
      <point x="43" y="22" type="curve"/>
      <point x="42" y="0"/>
      <point x="43" y="22"/>
      <point x="42" y="0" type="curve"/>
      <point x="98" y="0"/>
      <point x="150" y="0"/>
      <point x="206" y="0" type="curve"/>
      <point x="206" y="22"/>
      <point x="206" y="0"/>
    </contour>
    <contour>
      <point x="206" y="0" type="curve"/>
      <point x="261" y="0"/>
      <point x="204" y="0"/>
      <point x="369" y="0" type="curve"/>
      <point x="369" y="22"/>
      <point x="369" y="0"/>
      <point x="369" y="22" type="curve"/>
      <point x="204" y="22"/>
      <point x="371" y="22"/>
      <point x="206" y="22" type="curve"/>
      <point x="206" y="0"/>
      <point x="206" y="22"/>
    </contour>
    <contour>
      <point x="911" y="0" type="curve"/>
      <point x="682" y="241"/>
      <point x="452" y="481"/>
      <point x="224" y="722" type="curve"/>
      <point x="194" y="722"/>
      <point x="220" y="722"/>
      <point x="190" y="722" type="curve"/>
      <point x="420" y="481"/>
      <point x="649" y="241"/>
      <point x="879" y="0" type="curve"/>
      <point x="908" y="0"/>
      <point x="882" y="0"/>
    </contour>
    <contour>
      <point x="887" y="722" type="curve"/>
      <point x="887" y="481"/>
      <point x="887" y="241"/>
      <point x="887" y="0" type="curve"/>
      <point x="912" y="0"/>
      <point x="887" y="0"/>
      <point x="912" y="0" type="curve"/>
      <point x="912" y="241"/>
      <point x="912" y="481"/>
      <point x="912" y="722" type="curve"/>
      <point x="887" y="722"/>
      <point x="912" y="722"/>
    </contour>
    <contour>
      <point x="218" y="0" type="curve"/>
      <point x="218" y="241"/>
      <point x="218" y="481"/>
      <point x="218" y="722" type="curve"/>
      <point x="193" y="722"/>
      <point x="218" y="722"/>
      <point x="193" y="722" type="curve"/>
      <point x="193" y="481"/>
      <point x="193" y="241"/>
      <point x="193" y="0" type="curve"/>
      <point x="218" y="0"/>
      <point x="193" y="0"/>
    </contour>
    <contour>
      <point x="718" y="991" type="line"/>
      <point x="533" y="825" type="line"/>
      <point x="572" y="825" type="line"/>
      <point x="747" y="991" type="line"/>
    </contour>
    <contour>
      <point x="349" y="991" type="line"/>
      <point x="524" y="825" type="line"/>
      <point x="563" y="825" type="line"/>
      <point x="378" y="991" type="line"/>
    </contour>
  </outline>
</glyph>
<glyph name="Ohungarumlaut" format="1">
  <advance width="908"/>
  <unicode hex="0150"/>
  <outline>
    <contour>
      <point x="94" y="360" type="curve"/>
      <point x="94" y="573"/>
      <point x="235" y="705"/>
      <point x="452" y="705" type="curve"/>
      <point x="669" y="705"/>
      <point x="812" y="575"/>
      <point x="812" y="363" type="curve"/>
      <point x="812" y="151"/>
      <point x="671" y="18"/>
      <point x="455" y="18" type="curve"/>
      <point x="237" y="18"/>
      <point x="94" y="147"/>
      <point x="94" y="360" type="curve"/>
      <point x="70" y="360"/>
      <point x="94" y="360"/>
      <point x="70" y="360" type="curve"/>
      <point x="70" y="132"/>
      <point x="223" y="-5"/>
      <point x="454" y="-5" type="curve"/>
      <point x="685" y="-5"/>
      <point x="837" y="134"/>
      <point x="837" y="363" type="curve"/>
      <point x="837" y="590"/>
      <point x="684" y="727"/>
      <point x="453" y="727" type="curve"/>
      <point x="221" y="727"/>
      <point x="70" y="588"/>
      <point x="70" y="360" type="curve"/>
      <point x="94" y="360"/>
      <point x="70" y="360"/>
    </contour>
    <contour>
      <point x="339" y="851" type="line"/>
      <point x="524" y="1017" type="line"/>
      <point x="485" y="1017" type="line"/>
      <point x="309" y="851" type="line"/>
    </contour>
    <contour>
      <point x="510" y="851" type="line"/>
      <point x="695" y="1017" type="line"/>
      <point x="656" y="1017" type="line"/>
      <point x="481" y="851" type="line"/>
    </contour>
  </outline>
</glyph>
<glyph name="Rcaron" format="1">
  <advance width="920"/>
  <unicode hex="0158"/>
  <outline>
    <contour>
      <point x="739" y="0" type="curve"/>
      <point x="793" y="0"/>
      <point x="845" y="0"/>
      <point x="899" y="0" type="curve"/>
      <point x="899" y="22"/>
      <point x="899" y="0"/>
      <point x="899" y="22" type="curve"/>
      <point x="736" y="22"/>
      <point x="902" y="22"/>
      <point x="739" y="22" type="curve"/>
      <point x="739" y="0"/>
      <point x="739" y="22"/>
    </contour>
    <contour>
      <point x="204" y="722" type="curve"/>
      <point x="149" y="722"/>
      <point x="96" y="722"/>
      <point x="41" y="722" type="curve"/>
      <point x="41" y="700"/>
      <point x="41" y="722"/>
      <point x="41" y="700" type="curve"/>
      <point x="206" y="700"/>
      <point x="39" y="700"/>
      <point x="204" y="700" type="curve"/>
      <point x="204" y="722"/>
      <point x="204" y="700"/>
    </contour>
    <contour>
      <point x="204" y="22" type="curve"/>
      <point x="39" y="22"/>
      <point x="206" y="22"/>
      <point x="41" y="22" type="curve"/>
      <point x="41" y="0"/>
      <point x="41" y="22"/>
      <point x="41" y="0" type="curve"/>
      <point x="96" y="0"/>
      <point x="149" y="0"/>
      <point x="204" y="0" type="curve"/>
      <point x="204" y="22"/>
      <point x="204" y="0"/>
    </contour>
    <contour>
      <point x="204" y="0" type="curve"/>
      <point x="260" y="0"/>
      <point x="202" y="0"/>
      <point x="368" y="0" type="curve"/>
      <point x="368" y="22"/>
      <point x="368" y="0"/>
      <point x="368" y="22" type="curve"/>
      <point x="202" y="22"/>
      <point x="370" y="22"/>
      <point x="204" y="22" type="curve"/>
      <point x="204" y="0"/>
      <point x="204" y="22"/>
    </contour>
    <contour>
      <point x="455" y="354" type="curve"/>
      <point x="461" y="342"/>
      <point x="732" y="12"/>
      <point x="738" y="0" type="curve"/>
      <point x="768" y="0"/>
      <point x="740" y="0"/>
      <point x="770" y="0" type="curve"/>
      <point x="764" y="12"/>
      <point x="491" y="342"/>
      <point x="485" y="354" type="curve"/>
      <point x="456" y="354"/>
      <point x="484" y="354"/>
    </contour>
    <contour>
      <point x="218" y="0" type="curve"/>
      <point x="218" y="241"/>
      <point x="218" y="481"/>
      <point x="218" y="722" type="curve"/>
      <point x="193" y="722"/>
      <point x="218" y="722"/>
      <point x="193" y="722" type="curve"/>
      <point x="193" y="481"/>
      <point x="193" y="241"/>
      <point x="193" y="0" type="curve"/>
      <point x="218" y="0"/>
      <point x="193" y="0"/>
    </contour>
    <contour>
      <point x="208" y="340" type="curve"/>
      <point x="281" y="340"/>
      <point x="354" y="340"/>
      <point x="427" y="340" type="curve"/>
      <point x="588" y="340"/>
      <point x="705" y="392"/>
      <point x="705" y="537" type="curve"/>
      <point x="705" y="676"/>
      <point x="590" y="722"/>
      <point x="436" y="722" type="curve"/>
      <point x="359" y="722"/>
      <point x="284" y="722"/>
      <point x="208" y="722" type="curve"/>
      <point x="208" y="700"/>
      <point x="208" y="722"/>
      <point x="208" y="700" type="curve"/>
      <point x="283" y="700"/>
      <point x="356" y="700"/>
      <point x="432" y="700" type="curve"/>
      <point x="574" y="700"/>
      <point x="680" y="661"/>
      <point x="680" y="535" type="curve"/>
      <point x="680" y="406"/>
      <point x="573" y="362"/>
      <point x="430" y="362" type="curve"/>
      <point x="357" y="362"/>
      <point x="282" y="362"/>
      <point x="208" y="362" type="curve"/>
      <point x="208" y="340"/>
      <point x="208" y="362"/>
    </contour>
    <contour>
      <point x="559" y="991" type="line"/>
      <point x="373" y="825" type="line"/>
      <point x="412" y="825" type="line"/>
      <point x="588" y="991" type="line"/>
    </contour>
    <contour>
      <point x="189" y="991" type="line"/>
      <point x="365" y="825" type="line"/>
      <point x="404" y="825" type="line"/>
      <point x="219" y="991" type="line"/>
    </contour>
  </outline>
</glyph>
<glyph name="Tcommaaccent" format="1">
  <advance width="897"/>
  <unicode hex="0162"/>
  <outline>
    <contour>
      <point x="51" y="710" type="curve"/>
      <point x="51" y="590"/>
      <point x="51" y="711"/>
      <point x="51" y="591" type="curve"/>
      <point x="73" y="591"/>
      <point x="51" y="591"/>
      <point x="73" y="591" type="curve"/>
      <point x="73" y="711"/>
      <point x="73" y="590"/>
      <point x="73" y="710" type="curve"/>
      <point x="51" y="710"/>
      <point x="73" y="710"/>
    </contour>
    <contour>
      <point x="825" y="710" type="curve"/>
      <point x="825" y="590"/>
      <point x="825" y="711"/>
      <point x="825" y="591" type="curve"/>
      <point x="847" y="591"/>
      <point x="825" y="591"/>
      <point x="847" y="591" type="curve"/>
      <point x="847" y="711"/>
      <point x="847" y="590"/>
      <point x="847" y="710" type="curve"/>
      <point x="825" y="710"/>
      <point x="847" y="710"/>
    </contour>
    <contour>
      <point x="448" y="0" type="curve"/>
      <point x="503" y="0"/>
      <point x="557" y="0"/>
      <point x="611" y="0" type="curve"/>
      <point x="611" y="22"/>
      <point x="611" y="0"/>
      <point x="611" y="22" type="curve"/>
      <point x="447" y="22"/>
      <point x="612" y="22"/>
      <point x="448" y="22" type="curve"/>
      <point x="448" y="0"/>
      <point x="448" y="22"/>
    </contour>
    <contour>
      <point x="448" y="22" type="curve"/>
      <point x="283" y="22"/>
      <point x="449" y="22"/>
      <point x="284" y="22" type="curve"/>
      <point x="284" y="0"/>
      <point x="284" y="22"/>
      <point x="284" y="0" type="curve"/>
      <point x="340" y="0"/>
      <point x="393" y="0"/>
      <point x="448" y="0" type="curve"/>
      <point x="448" y="22"/>
      <point x="448" y="0"/>
    </contour>
    <contour>
      <point x="462" y="0" type="curve"/>
      <point x="462" y="237"/>
      <point x="462" y="473"/>
      <point x="462" y="710" type="curve"/>
      <point x="438" y="710"/>
      <point x="462" y="710"/>
      <point x="438" y="710" type="curve"/>
      <point x="438" y="473"/>
      <point x="438" y="237"/>
      <point x="438" y="0" type="curve"/>
      <point x="462" y="0"/>
      <point x="438" y="0"/>
    </contour>
    <contour>
      <point x="51" y="698" type="curve"/>
      <point x="316" y="698"/>
      <point x="582" y="698"/>
      <point x="847" y="698" type="curve"/>
      <point x="847" y="722"/>
      <point x="847" y="698"/>
      <point x="847" y="722" type="curve"/>
      <point x="582" y="722"/>
      <point x="316" y="722"/>
      <point x="51" y="722" type="curve"/>
      <point x="51" y="698"/>
      <point x="51" y="722"/>
    </contour>
    <contour>
      <point x="374" y="-243" type="line"/>
      <point x="405" y="-217"/>
      <point x="433" y="-183"/>
      <point x="433" y="-128" type="curve"/>
      <point x="433" y="-107"/>
      <point x="429" y="-90"/>
      <point x="410" y="-90" type="curve"/>
      <point x="397" y="-90"/>
      <point x="390" y="-96"/>
      <point x="390" y="-108" type="curve"/>
      <point x="390" y="-118"/>
      <point x="394" y="-124"/>
      <point x="405" y="-129" type="curve"/>
      <point x="405" y="-154"/>
      <point x="393" y="-196"/>
      <point x="359" y="-224" type="curve"/>
    </contour>
  </outline>
</glyph>
<glyph name="Tcaron" format="1">
  <advance width="897"/>
  <unicode hex="0164"/>
  <outline>
    <contour>
      <point x="51" y="710" type="curve"/>
      <point x="51" y="590"/>
      <point x="51" y="711"/>
      <point x="51" y="591" type="curve"/>
      <point x="73" y="591"/>
      <point x="51" y="591"/>
      <point x="73" y="591" type="curve"/>
      <point x="73" y="711"/>
      <point x="73" y="590"/>
      <point x="73" y="710" type="curve"/>
      <point x="51" y="710"/>
      <point x="73" y="710"/>
    </contour>
    <contour>
      <point x="825" y="710" type="curve"/>
      <point x="825" y="590"/>
      <point x="825" y="711"/>
      <point x="825" y="591" type="curve"/>
      <point x="847" y="591"/>
      <point x="825" y="591"/>
      <point x="847" y="591" type="curve"/>
      <point x="847" y="711"/>
      <point x="847" y="590"/>
      <point x="847" y="710" type="curve"/>
      <point x="825" y="710"/>
      <point x="847" y="710"/>
    </contour>
    <contour>
      <point x="448" y="0" type="curve"/>
      <point x="503" y="0"/>
      <point x="557" y="0"/>
      <point x="611" y="0" type="curve"/>
      <point x="611" y="22"/>
      <point x="611" y="0"/>
      <point x="611" y="22" type="curve"/>
      <point x="447" y="22"/>
      <point x="612" y="22"/>
      <point x="448" y="22" type="curve"/>
      <point x="448" y="0"/>
      <point x="448" y="22"/>
    </contour>
    <contour>
      <point x="448" y="22" type="curve"/>
      <point x="283" y="22"/>
      <point x="449" y="22"/>
      <point x="284" y="22" type="curve"/>
      <point x="284" y="0"/>
      <point x="284" y="22"/>
      <point x="284" y="0" type="curve"/>
      <point x="340" y="0"/>
      <point x="393" y="0"/>
      <point x="448" y="0" type="curve"/>
      <point x="448" y="22"/>
      <point x="448" y="0"/>
    </contour>
    <contour>
      <point x="462" y="0" type="curve"/>
      <point x="462" y="237"/>
      <point x="462" y="473"/>
      <point x="462" y="710" type="curve"/>
      <point x="438" y="710"/>
      <point x="462" y="710"/>
      <point x="438" y="710" type="curve"/>
      <point x="438" y="473"/>
      <point x="438" y="237"/>
      <point x="438" y="0" type="curve"/>
      <point x="462" y="0"/>
      <point x="438" y="0"/>
    </contour>
    <contour>
      <point x="51" y="698" type="curve"/>
      <point x="316" y="698"/>
      <point x="582" y="698"/>
      <point x="847" y="698" type="curve"/>
      <point x="847" y="722"/>
      <point x="847" y="698"/>
      <point x="847" y="722" type="curve"/>
      <point x="582" y="722"/>
      <point x="316" y="722"/>
      <point x="51" y="722" type="curve"/>
      <point x="51" y="698"/>
      <point x="51" y="722"/>
    </contour>
    <contour>
      <point x="616" y="991" type="line"/>
      <point x="431" y="825" type="line"/>
      <point x="470" y="825" type="line"/>
      <point x="645" y="991" type="line"/>
    </contour>
    <contour>
      <point x="247" y="991" type="line"/>
      <point x="422" y="825" type="line"/>
      <point x="461" y="825" type="line"/>
      <point x="276" y="991" type="line"/>
    </contour>
  </outline>
</glyph>
<glyph name="Uring" format="1">
  <advance width="1023"/>
  <unicode hex="016E"/>
  <outline>
    <contour>
      <point x="833" y="700" type="curve"/>
      <point x="997" y="700"/>
      <point x="832" y="700"/>
      <point x="996" y="700" type="curve"/>
      <point x="996" y="722"/>
      <point x="996" y="700"/>
      <point x="996" y="722" type="curve"/>
      <point x="942" y="722"/>
      <point x="887" y="722"/>
      <point x="833" y="722" type="curve"/>
      <point x="833" y="700"/>
      <point x="833" y="722"/>
    </contour>
    <contour>
      <point x="833" y="722" type="curve"/>
      <point x="777" y="722"/>
      <point x="724" y="722"/>
      <point x="669" y="722" type="curve"/>
      <point x="669" y="700"/>
      <point x="669" y="722"/>
      <point x="669" y="700" type="curve"/>
      <point x="834" y="700"/>
      <point x="669" y="700"/>
      <point x="833" y="700" type="curve"/>
      <point x="833" y="722"/>
      <point x="833" y="700"/>
    </contour>
    <contour>
      <point x="190" y="722" type="curve"/>
      <point x="135" y="722"/>
      <point x="81" y="722"/>
      <point x="27" y="722" type="curve"/>
      <point x="27" y="700"/>
      <point x="27" y="722"/>
      <point x="27" y="700" type="curve"/>
      <point x="191" y="700"/>
      <point x="26" y="700"/>
      <point x="190" y="700" type="curve"/>
      <point x="190" y="722"/>
      <point x="190" y="700"/>
    </contour>
    <contour>
      <point x="190" y="700" type="curve"/>
      <point x="354" y="700"/>
      <point x="189" y="700"/>
      <point x="354" y="700" type="curve"/>
      <point x="354" y="722"/>
      <point x="354" y="700"/>
      <point x="354" y="722" type="curve"/>
      <point x="299" y="722"/>
      <point x="245" y="722"/>
      <point x="190" y="722" type="curve"/>
      <point x="190" y="700"/>
      <point x="190" y="722"/>
    </contour>
    <contour>
      <point x="175" y="721" type="curve"/>
      <point x="175" y="543"/>
      <point x="175" y="449"/>
      <point x="175" y="271" type="curve"/>
      <point x="175" y="72"/>
      <point x="300" y="-5"/>
      <point x="513" y="-5" type="curve"/>
      <point x="722" y="-5"/>
      <point x="845" y="69"/>
      <point x="845" y="263" type="curve"/>
      <point x="845" y="444"/>
      <point x="845" y="540"/>
      <point x="845" y="721" type="curve"/>
      <point x="834" y="721"/>
      <point x="832" y="721"/>
      <point x="822" y="721" type="curve"/>
      <point x="822" y="538"/>
      <point x="822" y="442"/>
      <point x="822" y="259" type="curve"/>
      <point x="822" y="87"/>
      <point x="706" y="19"/>
      <point x="515" y="19" type="curve"/>
      <point x="315" y="19"/>
      <point x="198" y="89"/>
      <point x="198" y="275" type="curve"/>
      <point x="198" y="451"/>
      <point x="198" y="545"/>
      <point x="198" y="721" type="curve"/>
      <point x="188" y="721"/>
      <point x="186" y="721"/>
    </contour>
    <contour>
      <point x="375" y="940" type="curve"/>
      <point x="375" y="863"/>
      <point x="435" y="824"/>
      <point x="518" y="824" type="curve"/>
      <point x="602" y="824"/>
      <point x="664" y="861"/>
      <point x="664" y="940" type="curve"/>
      <point x="664" y="1020"/>
      <point x="601" y="1057"/>
      <point x="515" y="1057" type="curve"/>
      <point x="433" y="1057"/>
      <point x="375" y="1018"/>
      <point x="375" y="940" type="curve"/>
      <point x="397" y="940"/>
      <point x="375" y="940"/>
      <point x="397" y="940" type="curve"/>
      <point x="397" y="1004"/>
      <point x="446" y="1036"/>
      <point x="515" y="1036" type="curve"/>
      <point x="588" y="1036"/>
      <point x="641" y="1007"/>
      <point x="641" y="940" type="curve"/>
      <point x="641" y="875"/>
      <point x="589" y="845"/>
      <point x="518" y="845" type="curve"/>
      <point x="448" y="845"/>
      <point x="397" y="875"/>
      <point x="397" y="940" type="curve"/>
      <point x="375" y="940"/>
      <point x="397" y="940"/>
    </contour>
  </outline>
</glyph>
<glyph name="florin" format="1">
  <advance width="548"/>
  <unicode hex="0192"/>
  <outline>
    <contour>
      <point x="494" y="546" type="curve"/>
      <point x="383" y="546"/>
      <point x="271" y="546"/>
      <point x="161" y="546" type="curve"/>
      <point x="161" y="526"/>
      <point x="161" y="546"/>
      <point x="161" y="526" type="curve"/>
      <point x="271" y="526"/>
      <point x="383" y="526"/>
      <point x="494" y="526" type="curve"/>
      <point x="494" y="546"/>
      <point x="494" y="526"/>
    </contour>
    <contour>
      <point x="542" y="828" type="curve"/>
      <point x="446" y="843"/>
      <point x="374" y="802"/>
      <point x="351" y="709" type="curve"/>
      <point x="297" y="493"/>
      <point x="243" y="277"/>
      <point x="190" y="61" type="curve"/>
      <point x="169" y="-20"/>
      <point x="107" y="-58"/>
      <point x="22" y="-44" type="curve"/>
      <point x="17" y="-65"/>
      <point x="22" y="-44"/>
      <point x="17" y="-65" type="curve"/>
      <point x="115" y="-79"/>
      <point x="188" y="-38"/>
      <point x="213" y="58" type="curve"/>
      <point x="267" y="275"/>
      <point x="320" y="491"/>
      <point x="375" y="708" type="curve"/>
      <point x="394" y="788"/>
      <point x="455" y="819"/>
      <point x="538" y="807" type="curve"/>
      <point x="542" y="828"/>
      <point x="538" y="807"/>
    </contour>
  </outline>
</glyph>
<glyph name="circumflex" format="1">
  <advance width="641"/>
  <unicode hex="02C6"/>
  <outline>
    <contour>
      <point x="204" y="591" type="move" name="_top"/>
    </contour>
    <contour>
      <point x="33" y="591" type="line"/>
      <point x="219" y="757" type="line"/>
      <point x="180" y="757" type="line"/>
      <point x="4" y="591" type="line"/>
    </contour>
    <contour>
      <point x="405" y="591" type="line"/>
      <point x="229" y="757" type="line"/>
      <point x="190" y="757" type="line"/>
      <point x="375" y="591" type="line"/>
    </contour>
  </outline>
</glyph>
<glyph name="caron" format="1">
  <advance width="515"/>
  <unicode hex="02C7"/>
  <outline>
    <contour>
      <point x="205" y="591" type="move" name="_top"/>
    </contour>
    <contour>
      <point x="374" y="757" type="line"/>
      <point x="189" y="591" type="line"/>
      <point x="228" y="591" type="line"/>
      <point x="404" y="757" type="line"/>
    </contour>
    <contour>
      <point x="5" y="757" type="line"/>
      <point x="181" y="591" type="line"/>
      <point x="220" y="591" type="line"/>
      <point x="34" y="757" type="line"/>
    </contour>
  </outline>
</glyph>
<glyph name="pi" format="1">
  <advance width="652"/>
  <unicode hex="03C0"/>
  <outline>
    <contour>
      <point x="19" y="565" type="curve"/>
      <point x="630" y="565" type="line"/>
      <point x="630" y="589"/>
      <point x="630" y="565"/>
      <point x="630" y="589" type="curve"/>
      <point x="19" y="589" type="line"/>
      <point x="19" y="565"/>
      <point x="19" y="589"/>
    </contour>
    <contour>
      <point x="187" y="18" type="curve"/>
      <point x="187" y="588" type="line"/>
      <point x="163" y="588"/>
      <point x="187" y="588"/>
      <point x="163" y="588" type="curve"/>
      <point x="163" y="18" type="line"/>
      <point x="187" y="18"/>
      <point x="163" y="18"/>
    </contour>
    <contour>
      <point x="494" y="18" type="curve"/>
      <point x="494" y="588" type="line"/>
      <point x="470" y="588"/>
      <point x="494" y="588"/>
      <point x="470" y="588" type="curve"/>
      <point x="470" y="18" type="line"/>
      <point x="494" y="18"/>
      <point x="470" y="18"/>
    </contour>
  </outline>
</glyph>
<glyph name="dvAnusvara" format="1">
  <advance width="0"/>
  <unicode hex="0902"/>
  <outline>
    <contour>
      <point x="-138" y="740" type="move" name="_abvm.e"/>
    </contour>
    <contour>
      <point x="-138" y="893" type="curve"/>
      <point x="-138" y="902"/>
      <point x="-144" y="908"/>
      <point x="-153" y="908" type="curve"/>
      <point x="-163" y="908"/>
      <point x="-169" y="901"/>
      <point x="-169" y="893" type="curve"/>
      <point x="-138" y="893"/>
      <point x="-169" y="893"/>
      <point x="-138" y="893" type="curve"/>
      <point x="-138" y="883"/>
      <point x="-144" y="878"/>
      <point x="-153" y="878" type="curve"/>
      <point x="-163" y="878"/>
      <point x="-169" y="884"/>
      <point x="-169" y="893" type="curve"/>
      <point x="-138" y="893"/>
      <point x="-169" y="893"/>
    </contour>
  </outline>
</glyph>
<glyph name="dvAA" format="1">
  <advance width="1281"/>
  <unicode hex="0906"/>
  <outline>
    <contour>
      <point x="781" y="490" type="line"/>
      <point x="736" y="404"/>
      <point x="680" y="386"/>
      <point x="604" y="383" type="curve" smooth="yes"/>
      <point x="528" y="382"/>
      <point x="436" y="407"/>
      <point x="354" y="425" type="curve"/>
      <point x="347" y="406" type="line"/>
      <point x="430" y="386"/>
      <point x="520" y="360"/>
      <point x="605" y="362" type="curve" smooth="yes"/>
      <point x="679" y="365"/>
      <point x="752" y="379"/>
      <point x="798" y="477" type="curve"/>
    </contour>
    <contour>
      <point x="789" y="0" type="curve"/>
      <point x="828" y="0"/>
      <point x="866" y="0"/>
      <point x="905" y="0" type="curve"/>
      <point x="905" y="21"/>
      <point x="905" y="0"/>
      <point x="905" y="21" type="curve"/>
      <point x="787" y="21"/>
      <point x="907" y="21"/>
      <point x="789" y="21" type="curve"/>
      <point x="789" y="0"/>
      <point x="789" y="21"/>
    </contour>
    <contour>
      <point x="789" y="21" type="curve"/>
      <point x="609" y="21"/>
      <point x="791" y="21"/>
      <point x="611" y="21" type="curve"/>
      <point x="611" y="0"/>
      <point x="611" y="21"/>
      <point x="611" y="0" type="curve"/>
      <point x="671" y="0"/>
      <point x="729" y="0"/>
      <point x="789" y="0" type="curve"/>
      <point x="789" y="21"/>
      <point x="789" y="0"/>
    </contour>
    <contour>
      <point x="800" y="0" type="curve"/>
      <point x="800" y="240"/>
      <point x="800" y="481"/>
      <point x="800" y="722" type="curve"/>
      <point x="777" y="722"/>
      <point x="800" y="722"/>
      <point x="777" y="722" type="curve"/>
      <point x="777" y="481"/>
      <point x="777" y="240"/>
      <point x="777" y="0" type="curve"/>
      <point x="800" y="0"/>
      <point x="777" y="0"/>
    </contour>
    <contour>
      <point x="777" y="699" type="curve"/>
      <point x="894" y="699"/>
      <point x="1008" y="699"/>
      <point x="1126" y="699" type="curve"/>
      <point x="1126" y="722"/>
      <point x="1126" y="699"/>
      <point x="1126" y="722" type="curve"/>
      <point x="1008" y="722"/>
      <point x="894" y="722"/>
      <point x="777" y="722" type="curve"/>
      <point x="777" y="699"/>
      <point x="777" y="722"/>
    </contour>
    <contour>
      <point x="115" y="641" type="curve"/>
      <point x="175" y="676"/>
      <point x="242" y="705"/>
      <point x="322" y="705" type="curve"/>
      <point x="434" y="705"/>
      <point x="526" y="665"/>
      <point x="525" y="567" type="curve"/>
      <point x="523" y="452"/>
      <point x="407" y="424"/>
      <point x="276" y="424" type="curve"/>
      <point x="276" y="415"/>
      <point x="276" y="413"/>
      <point x="276" y="405" type="curve"/>
      <point x="421" y="405"/>
      <point x="548" y="442"/>
      <point x="548" y="570" type="curve"/>
      <point x="548" y="680"/>
      <point x="448" y="726"/>
      <point x="325" y="726" type="curve"/>
      <point x="239" y="726"/>
      <point x="166" y="697"/>
      <point x="101" y="658" type="curve"/>
      <point x="107" y="651"/>
      <point x="109" y="648"/>
    </contour>
    <contour>
      <point x="85" y="156" type="curve"/>
      <point x="157" y="91"/>
      <point x="236" y="66"/>
      <point x="336" y="66" type="curve"/>
      <point x="467" y="62"/>
      <point x="567" y="128"/>
      <point x="564" y="250" type="curve"/>
      <point x="561" y="384"/>
      <point x="427" y="419"/>
      <point x="276" y="419" type="curve"/>
      <point x="276" y="412"/>
      <point x="276" y="409"/>
      <point x="276" y="402" type="curve"/>
      <point x="415" y="402"/>
      <point x="538" y="371"/>
      <point x="541" y="248" type="curve"/>
      <point x="544" y="141"/>
      <point x="454" y="84"/>
      <point x="338" y="87" type="curve"/>
      <point x="245" y="87"/>
      <point x="171" y="110"/>
      <point x="101" y="169" type="curve"/>
      <point x="94" y="163"/>
      <point x="92" y="162"/>
    </contour>
    <contour>
      <point x="1101" y="0" type="curve"/>
      <point x="1156" y="0"/>
      <point x="1210" y="0"/>
      <point x="1265" y="0" type="curve"/>
      <point x="1265" y="21"/>
      <point x="1265" y="0"/>
      <point x="1265" y="21" type="curve"/>
      <point x="1099" y="21"/>
      <point x="1267" y="21"/>
      <point x="1101" y="21" type="curve"/>
      <point x="1101" y="0"/>
      <point x="1101" y="21"/>
    </contour>
    <contour>
      <point x="1101" y="21" type="curve"/>
      <point x="969" y="21"/>
      <point x="1102" y="21"/>
      <point x="971" y="21" type="curve"/>
      <point x="971" y="0"/>
      <point x="971" y="21"/>
      <point x="971" y="0" type="curve"/>
      <point x="1014" y="0"/>
      <point x="1057" y="0"/>
      <point x="1101" y="0" type="curve"/>
      <point x="1101" y="21"/>
      <point x="1101" y="0"/>
    </contour>
    <contour>
      <point x="1112" y="0" type="curve"/>
      <point x="1112" y="240"/>
      <point x="1112" y="481"/>
      <point x="1112" y="722" type="curve"/>
      <point x="1089" y="722"/>
      <point x="1112" y="722"/>
      <point x="1089" y="722" type="curve"/>
      <point x="1089" y="481"/>
      <point x="1089" y="240"/>
      <point x="1089" y="0" type="curve"/>
      <point x="1112" y="0"/>
      <point x="1089" y="0"/>
    </contour>
    <contour>
      <point x="1089" y="699" type="curve"/>
      <point x="1160" y="699"/>
      <point x="1230" y="699"/>
      <point x="1301" y="699" type="curve"/>
      <point x="1301" y="722"/>
      <point x="1301" y="699"/>
      <point x="1301" y="722" type="curve"/>
      <point x="1230" y="722"/>
      <point x="1160" y="722"/>
      <point x="1089" y="722" type="curve"/>
      <point x="1089" y="699"/>
      <point x="1089" y="722"/>
    </contour>
  </outline>
</glyph>
<glyph name="dvE" format="1">
  <advance width="762"/>
  <unicode hex="090F"/>
  <outline>
    <contour>
      <point x="449" y="253" type="curve"/>
      <point x="561" y="308"/>
      <point x="632" y="384"/>
      <point x="632" y="507" type="curve"/>
      <point x="632" y="575"/>
      <point x="632" y="642"/>
      <point x="632" y="710" type="curve"/>
      <point x="609" y="710"/>
      <point x="632" y="710"/>
      <point x="609" y="710" type="curve"/>
      <point x="609" y="641"/>
      <point x="609" y="573"/>
      <point x="609" y="504" type="curve"/>
      <point x="609" y="390"/>
      <point x="539" y="322"/>
      <point x="436" y="271" type="curve"/>
      <point x="447" y="255"/>
      <point x="437" y="269"/>
    </contour>
    <contour>
      <point x="541" y="10" type="curve"/>
      <point x="317" y="58"/>
      <point x="163" y="168"/>
      <point x="163" y="366" type="curve"/>
      <point x="163" y="481"/>
      <point x="163" y="595"/>
      <point x="163" y="710" type="curve"/>
      <point x="140" y="710"/>
      <point x="163" y="710"/>
      <point x="140" y="710" type="curve"/>
      <point x="140" y="594"/>
      <point x="140" y="478"/>
      <point x="140" y="362" type="curve"/>
      <point x="140" y="155"/>
      <point x="305" y="34"/>
      <point x="534" y="-11" type="curve"/>
      <point x="540" y="8"/>
      <point x="535" y="-9"/>
    </contour>
    <component base="dvTopbar" xScale="1.1870366922" xOffset="-2"/>
  </outline>
</glyph>
<glyph name="dvTTHA" format="1">
  <advance width="807"/>
  <unicode hex="0920"/>
  <outline>
    <contour>
      <point x="535" y="-5" type="move" name="blwm.virama"/>
    </contour>
    <contour>
      <point x="424" y="721" type="move" name="abvm.e"/>
    </contour>
    <contour>
      <point x="555" y="-90" type="move" name="blwm.u"/>
    </contour>
    <contour>
      <point x="669" y="300" type="curve"/>
      <point x="669" y="167"/>
      <point x="563" y="88"/>
      <point x="423" y="88" type="curve"/>
      <point x="280" y="88"/>
      <point x="171" y="166"/>
      <point x="171" y="301" type="curve"/>
      <point x="171" y="438"/>
      <point x="274" y="525"/>
      <point x="415" y="525" type="curve"/>
      <point x="560" y="525"/>
      <point x="669" y="440"/>
      <point x="669" y="300" type="curve"/>
      <point x="677" y="300"/>
      <point x="684" y="300"/>
      <point x="692" y="300" type="curve"/>
      <point x="692" y="452"/>
      <point x="574" y="546"/>
      <point x="416" y="546" type="curve"/>
      <point x="262" y="546"/>
      <point x="148" y="451"/>
      <point x="148" y="301" type="curve"/>
      <point x="148" y="154"/>
      <point x="265" y="66"/>
      <point x="420" y="66" type="curve"/>
      <point x="575" y="66"/>
      <point x="692" y="153"/>
      <point x="692" y="300" type="curve"/>
      <point x="684" y="300"/>
      <point x="677" y="300"/>
    </contour>
    <component base="dvTopbar" xScale="1.25271062138" xOffset="-1"/>
    <component base="dvStem_short" yScale="0.825717357052" xOffset="106" yOffset="123"/>
  </outline>
</glyph>
<glyph name="dvDDA" format="1">
  <advance width="691"/>
  <unicode hex="0921"/>
  <outline>
    <contour>
      <point x="437" y="-69" type="move" name="blwm.virama"/>
    </contour>
    <contour>
      <point x="513" y="718" type="move" name="abvm.e"/>
    </contour>
    <contour>
      <point x="456" y="-157" type="move" name="blwm.u"/>
    </contour>
    <component base="dvTopbar" xScale="1.07562537545"/>
    <component base="dvDDA_base" xOffset="-1"/>
  </outline>
</glyph>
<glyph name="dvDA" format="1">
  <advance width="697"/>
  <unicode hex="0926"/>
  <outline>
    <contour>
      <point x="564" y="-13" type="move" name="blwm.virama"/>
    </contour>
    <contour>
      <point x="506" y="721" type="move" name="abvm.e"/>
    </contour>
    <contour>
      <point x="564" y="6" type="move" name="blwm.u"/>
    </contour>
    <component base="dvDA_base"/>
    <component base="dvTopbar" xScale="1.09260362376" xOffset="-5"/>
    <component base="dvStroke_down" xOffset="-5"/>
  </outline>
</glyph>
<glyph name="dvLA" format="1">
  <advance width="1060"/>
  <unicode hex="0932"/>
  <outline>
    <contour>
      <point x="784" y="51" type="move" name="blwm.virama"/>
    </contour>
    <contour>
      <point x="724" y="719" type="move" name="abvm.e"/>
    </contour>
    <contour>
      <point x="773" y="-23" type="move" name="blwm.u"/>
    </contour>
    <component base="dvLA_base" xOffset="1" yOffset="-2"/>
    <component base="dvTopbar" xScale="1.62865464856" xOffset="3"/>
    <component base="dvStem_short" xOffset="406"/>
  </outline>
</glyph>
<glyph name="dvLLA" format="1">
  <advance width="1096"/>
  <unicode hex="0933"/>
  <outline>
    <contour>
      <point x="809" y="-11" type="move" name="blwm.virama"/>
    </contour>
    <contour>
      <point x="780" y="717" type="move" name="abvm.e"/>
    </contour>
    <contour>
      <point x="809" y="-82" type="move" name="blwm.u"/>
    </contour>
    <component base="dvLL" xOffset="-6"/>
    <component base="dvStem_short" xOffset="457"/>
  </outline>
</glyph>
<glyph name="dvSA" format="1">
  <advance width="941"/>
  <unicode hex="0938"/>
  <outline>
    <contour>
      <point x="171" y="373" type="curve"/>
      <point x="308" y="375"/>
      <point x="414" y="430"/>
      <point x="414" y="552" type="curve"/>
      <point x="414" y="621"/>
      <point x="389" y="670"/>
      <point x="338" y="715" type="curve"/>
      <point x="332" y="711"/>
      <point x="327" y="706"/>
      <point x="322" y="701" type="curve"/>
      <point x="370" y="660"/>
      <point x="390" y="614"/>
      <point x="390" y="550" type="curve"/>
      <point x="390" y="434"/>
      <point x="280" y="394"/>
      <point x="148" y="394" type="curve"/>
      <point x="156" y="386"/>
      <point x="163" y="381"/>
    </contour>
    <contour>
      <point x="148" y="394" type="curve"/>
      <point x="148" y="192"/>
      <point x="195" y="17"/>
      <point x="369" y="17" type="curve"/>
      <point x="467" y="17"/>
      <point x="530" y="75"/>
      <point x="566" y="168" type="curve"/>
      <point x="560" y="172"/>
      <point x="555" y="174"/>
      <point x="548" y="179" type="curve"/>
      <point x="513" y="93"/>
      <point x="459" y="37"/>
      <point x="369" y="37" type="curve"/>
      <point x="215" y="37"/>
      <point x="171" y="193"/>
      <point x="171" y="373" type="curve"/>
      <point x="163" y="381"/>
      <point x="156" y="386"/>
    </contour>
    <component base="dvConnector" xScale="1.06627080134" xOffset="14" yOffset="90"/>
    <component base="dvTopbar" xScale="1.140577559" xOffset="-3"/>
    <component base="dvStemright" xOffset="677"/>
  </outline>
</glyph>
<glyph name="dvHA" format="1">
  <advance width="713"/>
  <unicode hex="0939"/>
  <outline>
    <contour>
      <point x="412" y="-144" type="move" name="blwm.virama"/>
    </contour>
    <contour>
      <point x="521" y="720" type="move" name="abvm.e"/>
    </contour>
    <contour>
      <point x="464" y="-226" type="move" name="blwm.u"/>
    </contour>
    <contour>
      <point x="286" y="299" type="curve"/>
      <point x="228" y="329"/>
      <point x="172" y="353"/>
      <point x="172" y="417" type="curve"/>
      <point x="172" y="479"/>
      <point x="238" y="500"/>
      <point x="312" y="500" type="curve"/>
      <point x="386" y="500"/>
      <point x="448" y="500"/>
      <point x="522" y="500" type="curve"/>
      <point x="513" y="509"/>
      <point x="509" y="512"/>
      <point x="499" y="521" type="curve"/>
      <point x="432" y="521"/>
      <point x="376" y="521"/>
      <point x="309" y="521" type="curve"/>
      <point x="223" y="521"/>
      <point x="149" y="493"/>
      <point x="149" y="417" type="curve"/>
      <point x="149" y="348"/>
      <point x="204" y="314"/>
      <point x="269" y="284" type="curve"/>
      <point x="276" y="290"/>
      <point x="279" y="293"/>
    </contour>
    <contour>
      <point x="498" y="710" type="curve"/>
      <point x="498" y="643"/>
      <point x="498" y="589"/>
      <point x="498" y="521" type="curve"/>
      <point x="508" y="513"/>
      <point x="512" y="509"/>
      <point x="522" y="501" type="curve"/>
      <point x="522" y="575"/>
      <point x="522" y="636"/>
      <point x="522" y="710" type="curve"/>
      <point x="512" y="710"/>
      <point x="508" y="710"/>
    </contour>
    <contour>
      <point x="598" y="133" type="line"/>
      <point x="598" y="251"/>
      <point x="498" y="314"/>
      <point x="370" y="314" type="curve"/>
      <point x="235" y="314"/>
      <point x="130" y="243"/>
      <point x="130" y="116" type="curve"/>
      <point x="130" y="-28"/>
      <point x="258" y="-96"/>
      <point x="415" y="-96" type="curve"/>
      <point x="415" y="-94"/>
      <point x="415" y="-76"/>
      <point x="415" y="-74" type="curve"/>
      <point x="271" y="-74"/>
      <point x="153" y="-15"/>
      <point x="153" y="116" type="curve"/>
      <point x="153" y="230"/>
      <point x="248" y="293"/>
      <point x="370" y="293" type="curve"/>
      <point x="486" y="293"/>
      <point x="577" y="235"/>
      <point x="577" y="127" type="curve"/>
    </contour>
    <component base="dvTopbar" xScale="1.11374038583" xOffset="-3"/>
  </outline>
</glyph>
<glyph name="dvmI" format="1">
  <advance width="305"/>
  <unicode hex="093F"/>
  <outline>
    <contour>
      <point x="167" y="715" type="curve"/>
      <point x="148" y="749"/>
      <point x="135" y="787"/>
      <point x="135" y="830" type="curve"/>
      <point x="135" y="919"/>
      <point x="214" y="979"/>
      <point x="336" y="979" type="curve"/>
      <point x="652" y="979"/>
      <point x="840" y="831"/>
      <point x="935" y="703" type="curve"/>
      <point x="943" y="706"/>
      <point x="947" y="710"/>
      <point x="954" y="713" type="curve"/>
      <point x="854" y="848"/>
      <point x="659" y="1000"/>
      <point x="336" y="1000" type="curve"/>
      <point x="201" y="1000"/>
      <point x="112" y="934"/>
      <point x="112" y="834" type="curve"/>
      <point x="112" y="786"/>
      <point x="126" y="745"/>
      <point x="149" y="705" type="curve"/>
      <point x="156" y="707"/>
      <point x="160" y="713"/>
    </contour>
    <component base="dvmAA" xOffset="-35"/>
  </outline>
</glyph>
<glyph name="dvmvL" format="1">
  <advance width="0"/>
  <unicode hex="0962"/>
  <outline>
    <contour>
      <point x="636" y="1" type="move" name="_blwm.u"/>
    </contour>
    <contour>
      <point x="411" y="-254" type="line"/>
      <point x="322" y="-254"/>
      <point x="258" y="-201"/>
      <point x="258" y="-114" type="curve"/>
      <point x="258" y="-50"/>
      <point x="305" y="-10"/>
      <point x="370" y="-10" type="curve"/>
      <point x="444" y="-10"/>
      <point x="473" y="-79"/>
      <point x="473" y="-161" type="curve"/>
      <point x="498" y="-161" type="line"/>
      <point x="498" y="-66"/>
      <point x="457" y="11"/>
      <point x="370" y="11" type="curve"/>
      <point x="291" y="11"/>
      <point x="233" y="-36"/>
      <point x="233" y="-113" type="curve"/>
      <point x="233" y="-214"/>
      <point x="307" y="-276"/>
      <point x="410" y="-276" type="curve"/>
    </contour>
    <contour>
      <point x="735" y="-140" type="line"/>
      <point x="735" y="-54"/>
      <point x="689" y="11"/>
      <point x="608" y="11" type="curve"/>
      <point x="520" y="11"/>
      <point x="479" y="-66"/>
      <point x="479" y="-161" type="curve"/>
      <point x="503" y="-161" type="line"/>
      <point x="503" y="-79"/>
      <point x="534" y="-10"/>
      <point x="608" y="-10" type="curve"/>
      <point x="676" y="-10"/>
      <point x="709" y="-68"/>
      <point x="709" y="-141" type="curve"/>
    </contour>
    <contour>
      <point x="769" y="-282" type="line"/>
      <point x="747" y="-300"/>
      <point x="724" y="-304"/>
      <point x="695" y="-304" type="curve"/>
      <point x="641" y="-304"/>
      <point x="603" y="-275"/>
      <point x="603" y="-224" type="curve"/>
      <point x="603" y="-165"/>
      <point x="667" y="-158"/>
      <point x="736" y="-158" type="curve"/>
      <point x="735" y="-136" type="line"/>
      <point x="652" y="-136"/>
      <point x="577" y="-151"/>
      <point x="577" y="-223" type="curve"/>
      <point x="577" y="-288"/>
      <point x="627" y="-325"/>
      <point x="695" y="-325" type="curve"/>
      <point x="731" y="-325"/>
      <point x="759" y="-318"/>
      <point x="787" y="-297" type="curve"/>
    </contour>
  </outline>
</glyph>
<glyph name="dvZero" format="1">
  <advance width="856"/>
  <unicode hex="0966"/>
  <outline>
    <contour>
      <point x="96" y="360" type="curve"/>
      <point x="96" y="573"/>
      <point x="217" y="703"/>
      <point x="429" y="703" type="curve"/>
      <point x="639" y="703"/>
      <point x="760" y="572"/>
      <point x="760" y="362" type="curve"/>
      <point x="760" y="151"/>
      <point x="640" y="20"/>
      <point x="432" y="20" type="curve"/>
      <point x="220" y="20"/>
      <point x="96" y="148"/>
      <point x="96" y="360" type="curve"/>
      <point x="73" y="360"/>
      <point x="94" y="360"/>
      <point x="71" y="360" type="curve"/>
      <point x="71" y="133"/>
      <point x="204" y="-5"/>
      <point x="431" y="-5" type="curve"/>
      <point x="655" y="-5"/>
      <point x="784" y="136"/>
      <point x="784" y="363" type="curve"/>
      <point x="784" y="589"/>
      <point x="654" y="727"/>
      <point x="430" y="727" type="curve"/>
      <point x="203" y="727"/>
      <point x="71" y="588"/>
      <point x="71" y="360" type="curve"/>
      <point x="94" y="360"/>
      <point x="73" y="360"/>
    </contour>
  </outline>
</glyph>
<glyph name="dvNine" format="1">
  <advance width="693"/>
  <unicode hex="096F"/>
  <outline>
    <contour>
      <point x="610" y="492" type="curve"/>
      <point x="550" y="383"/>
      <point x="467" y="336"/>
      <point x="341" y="336" type="curve"/>
      <point x="203" y="336"/>
      <point x="103" y="393"/>
      <point x="103" y="520" type="curve"/>
      <point x="103" y="644"/>
      <point x="201" y="702"/>
      <point x="334" y="702" type="curve"/>
      <point x="493" y="702"/>
      <point x="605" y="628"/>
      <point x="605" y="480" type="curve"/>
      <point x="605" y="187"/>
      <point x="371" y="54"/>
      <point x="65" y="8" type="curve"/>
      <point x="69" y="-15"/>
      <point x="65" y="8"/>
      <point x="69" y="-15" type="curve"/>
      <point x="390" y="30"/>
      <point x="628" y="175"/>
      <point x="628" y="481" type="curve"/>
      <point x="628" y="644"/>
      <point x="509" y="727"/>
      <point x="335" y="727" type="curve"/>
      <point x="185" y="727"/>
      <point x="79" y="659"/>
      <point x="79" y="519" type="curve"/>
      <point x="79" y="378"/>
      <point x="187" y="313"/>
      <point x="339" y="313" type="curve"/>
      <point x="473" y="313"/>
      <point x="574" y="366"/>
      <point x="623" y="485" type="curve"/>
      <point x="610" y="492"/>
      <point x="623" y="485"/>
    </contour>
  </outline>
</glyph>
<glyph name="endash" format="1">
  <advance width="664"/>
  <unicode hex="2013"/>
  <outline>
    <contour>
      <point x="91" y="260" type="curve"/>
      <point x="251" y="260"/>
      <point x="413" y="260"/>
      <point x="573" y="260" type="curve"/>
      <point x="573" y="284"/>
      <point x="573" y="260"/>
      <point x="573" y="284" type="curve"/>
      <point x="413" y="284"/>
      <point x="251" y="284"/>
      <point x="91" y="284" type="curve"/>
      <point x="91" y="260"/>
      <point x="91" y="284"/>
    </contour>
  </outline>
</glyph>
<glyph name="daggerdbl" format="1">
  <advance width="755"/>
  <unicode hex="2021"/>
  <outline>
    <contour>
      <point x="72" y="501" type="curve"/>
      <point x="682" y="501" type="line"/>
      <point x="682" y="525"/>
      <point x="682" y="501"/>
      <point x="682" y="525" type="curve"/>
      <point x="72" y="525" type="line"/>
      <point x="72" y="501"/>
      <point x="72" y="525"/>
    </contour>
    <contour>
      <point x="384" y="-298" type="curve"/>
      <point x="384" y="792" type="line"/>
      <point x="360" y="792"/>
      <point x="384" y="792"/>
      <point x="360" y="792" type="curve"/>
      <point x="360" y="-298" type="line"/>
      <point x="384" y="-298"/>
      <point x="360" y="-298"/>
    </contour>
    <contour>
      <point x="72" y="-24" type="curve"/>
      <point x="682" y="-24" type="line"/>
      <point x="682" y="0"/>
      <point x="682" y="-23"/>
      <point x="682" y="1" type="curve"/>
      <point x="72" y="1" type="line"/>
      <point x="72" y="-23"/>
      <point x="72" y="0"/>
    </contour>
  </outline>
</glyph>
<glyph name="ellipsis" format="1">
  <advance width="688"/>
  <unicode hex="2026"/>
  <outline>
    <contour>
      <point x="125" y="12" type="curve"/>
      <point x="125" y="23"/>
      <point x="117" y="30"/>
      <point x="106" y="30" type="curve"/>
      <point x="95" y="30"/>
      <point x="88" y="23"/>
      <point x="88" y="12" type="curve"/>
      <point x="104" y="12"/>
      <point x="109" y="12"/>
      <point x="125" y="12" type="curve"/>
      <point x="125" y="1"/>
      <point x="117" y="-6"/>
      <point x="106" y="-6" type="curve"/>
      <point x="95" y="-6"/>
      <point x="88" y="1"/>
      <point x="88" y="12" type="curve"/>
      <point x="104" y="12"/>
      <point x="109" y="12"/>
    </contour>
    <contour>
      <point x="600" y="12" type="curve"/>
      <point x="600" y="23"/>
      <point x="592" y="30"/>
      <point x="580" y="30" type="curve"/>
      <point x="569" y="30"/>
      <point x="562" y="23"/>
      <point x="562" y="12" type="curve"/>
      <point x="578" y="12"/>
      <point x="584" y="12"/>
      <point x="600" y="12" type="curve"/>
      <point x="600" y="1"/>
      <point x="592" y="-6"/>
      <point x="580" y="-6" type="curve"/>
      <point x="569" y="-6"/>
      <point x="562" y="1"/>
      <point x="562" y="12" type="curve"/>
      <point x="578" y="12"/>
      <point x="584" y="12"/>
    </contour>
    <contour>
      <point x="360" y="12" type="curve"/>
      <point x="360" y="23"/>
      <point x="352" y="30"/>
      <point x="340" y="30" type="curve"/>
      <point x="329" y="30"/>
      <point x="322" y="23"/>
      <point x="322" y="12" type="curve"/>
      <point x="338" y="12"/>
      <point x="343" y="12"/>
      <point x="360" y="12" type="curve"/>
      <point x="360" y="1"/>
      <point x="352" y="-6"/>
      <point x="340" y="-6" type="curve"/>
      <point x="329" y="-6"/>
      <point x="322" y="1"/>
      <point x="322" y="12" type="curve"/>
      <point x="338" y="12"/>
      <point x="343" y="12"/>
    </contour>
  </outline>
</glyph>
<glyph name="guilsinglright" format="1">
  <advance width="508"/>
  <unicode hex="203A"/>
  <outline>
    <contour>
      <point x="100" y="397" type="curve"/>
      <point x="429" y="288" type="line"/>
      <point x="429" y="265"/>
      <point x="429" y="288"/>
      <point x="429" y="265" type="curve"/>
      <point x="100" y="374" type="line"/>
      <point x="100" y="397"/>
      <point x="100" y="374"/>
    </contour>
    <contour>
      <point x="100" y="179" type="curve"/>
      <point x="429" y="288" type="line"/>
      <point x="429" y="265"/>
      <point x="429" y="288"/>
      <point x="429" y="265" type="curve"/>
      <point x="100" y="156" type="line"/>
      <point x="100" y="179"/>
      <point x="100" y="156"/>
    </contour>
  </outline>
</glyph>
